<ttFont>
    <TTGlyph name="A" xMin="10" yMin="0" xMax="704" yMax="606">
      <contour>
        <pt x="485" y="0" on="1"/>
        <pt x="445" y="101" on="1"/>
        <pt x="190" y="101" on="1"/>
        <pt x="152" y="0" on="1"/>
        <pt x="10" y="0" on="1"/>
        <pt x="179" y="606" on="1"/>
        <pt x="535" y="606" on="1"/>
        <pt x="704" y="0" on="1"/>
      </contour>
      <contour>
        <pt x="394" y="231" on="1"/>
        <pt x="315" y="431" on="1"/>
        <pt x="239" y="231" on="1"/>
      </contour>
    </TTGlyph>
    <TTGlyph name="AE" xMin="10" yMin="-10" xMax="894" yMax="606">
      <contour>
        <pt x="671" y="233" on="1"/>
        <pt x="671" y="172" on="0"/>
        <pt x="711" y="129" on="0"/>
        <pt x="740" y="129" on="1"/>
        <pt x="788" y="129" on="0"/>
        <pt x="836" y="145" on="1"/>
        <pt x="851" y="150" on="1"/>
        <pt x="894" y="64" on="1"/>
        <pt x="885" y="56" on="0"/>
        <pt x="849" y="31" on="0"/>
        <pt x="724" y="-10" on="0"/>
        <pt x="652" y="-10" on="1"/>
        <pt x="492" y="-10" on="0"/>
        <pt x="430" y="101" on="1"/>
        <pt x="190" y="101" on="1"/>
        <pt x="152" y="0" on="1"/>
        <pt x="10" y="0" on="1"/>
        <pt x="179" y="606" on="1"/>
        <pt x="837" y="606" on="1"/>
        <pt x="865" y="486" on="1"/>
        <pt x="695" y="471" on="1"/>
        <pt x="685" y="374" on="1"/>
        <pt x="819" y="374" on="1"/>
        <pt x="839" y="280" on="1"/>
        <pt x="671" y="238" on="1"/>
      </contour>
      <contour>
        <pt x="394" y="231" on="1"/>
        <pt x="315" y="431" on="1"/>
        <pt x="239" y="231" on="1"/>
      </contour>
    </TTGlyph>
    <TTGlyph name="Aacute" xMin="10" yMin="0" xMax="704" yMax="808">
      <contour>
        <pt x="485" y="0" on="1"/>
        <pt x="445" y="101" on="1"/>
        <pt x="190" y="101" on="1"/>
        <pt x="152" y="0" on="1"/>
        <pt x="10" y="0" on="1"/>
        <pt x="179" y="606" on="1"/>
        <pt x="535" y="606" on="1"/>
        <pt x="704" y="0" on="1"/>
      </contour>
      <contour>
        <pt x="394" y="231" on="1"/>
        <pt x="315" y="431" on="1"/>
        <pt x="239" y="231" on="1"/>
      </contour>
      <contour>
        <pt x="367" y="771" on="1"/>
        <pt x="390" y="808" on="0"/>
        <pt x="455" y="808" on="0"/>
        <pt x="493" y="771" on="0"/>
        <pt x="493" y="708" on="0"/>
        <pt x="457" y="687" on="1"/>
        <pt x="399" y="653" on="1"/>
        <pt x="295" y="653" on="1"/>
      </contour>
    </TTGlyph>
    <TTGlyph name="Acircumflex" xMin="10" yMin="0" xMax="704" yMax="808">
      <contour>
        <pt x="485" y="0" on="1"/>
        <pt x="445" y="101" on="1"/>
        <pt x="190" y="101" on="1"/>
        <pt x="152" y="0" on="1"/>
        <pt x="10" y="0" on="1"/>
        <pt x="179" y="606" on="1"/>
        <pt x="535" y="606" on="1"/>
        <pt x="704" y="0" on="1"/>
      </contour>
      <contour>
        <pt x="394" y="231" on="1"/>
        <pt x="315" y="431" on="1"/>
        <pt x="239" y="231" on="1"/>
      </contour>
      <contour>
        <pt x="344" y="808" on="1"/>
        <pt x="370" y="808" on="1"/>
        <pt x="403" y="808" on="0"/>
        <pt x="442" y="785" on="0"/>
        <pt x="458" y="759" on="1"/>
        <pt x="523" y="653" on="1"/>
        <pt x="419" y="653" on="1"/>
        <pt x="357" y="715" on="1"/>
        <pt x="295" y="653" on="1"/>
        <pt x="191" y="653" on="1"/>
        <pt x="256" y="759" on="1"/>
        <pt x="272" y="785" on="0"/>
        <pt x="311" y="808" on="0"/>
      </contour>
    </TTGlyph>
    <TTGlyph name="Adieresis" xMin="10" yMin="0" xMax="704" yMax="798">
      <contour>
        <pt x="485" y="0" on="1"/>
        <pt x="445" y="101" on="1"/>
        <pt x="190" y="101" on="1"/>
        <pt x="152" y="0" on="1"/>
        <pt x="10" y="0" on="1"/>
        <pt x="179" y="606" on="1"/>
        <pt x="535" y="606" on="1"/>
        <pt x="704" y="0" on="1"/>
      </contour>
      <contour>
        <pt x="394" y="231" on="1"/>
        <pt x="315" y="431" on="1"/>
        <pt x="239" y="231" on="1"/>
      </contour>
      <contour>
        <pt x="413" y="798" on="0"/>
        <pt x="483" y="798" on="0"/>
        <pt x="520" y="759" on="0"/>
        <pt x="520" y="700" on="0"/>
        <pt x="484" y="662" on="0"/>
        <pt x="412" y="662" on="0"/>
        <pt x="377" y="700" on="0"/>
        <pt x="377" y="759" on="0"/>
      </contour>
      <contour>
        <pt x="230" y="798" on="0"/>
        <pt x="300" y="798" on="0"/>
        <pt x="337" y="759" on="0"/>
        <pt x="337" y="700" on="0"/>
        <pt x="301" y="662" on="0"/>
        <pt x="229" y="662" on="0"/>
        <pt x="194" y="700" on="0"/>
        <pt x="194" y="759" on="0"/>
      </contour>
    </TTGlyph>
    <TTGlyph name="Agrave" xMin="10" yMin="0" xMax="704" yMax="808">
      <contour>
        <pt x="485" y="0" on="1"/>
        <pt x="445" y="101" on="1"/>
        <pt x="190" y="101" on="1"/>
        <pt x="152" y="0" on="1"/>
        <pt x="10" y="0" on="1"/>
        <pt x="179" y="606" on="1"/>
        <pt x="535" y="606" on="1"/>
        <pt x="704" y="0" on="1"/>
      </contour>
      <contour>
        <pt x="394" y="231" on="1"/>
        <pt x="315" y="431" on="1"/>
        <pt x="239" y="231" on="1"/>
      </contour>
      <contour>
        <pt x="245" y="687" on="1"/>
        <pt x="209" y="708" on="0"/>
        <pt x="209" y="771" on="0"/>
        <pt x="247" y="808" on="0"/>
        <pt x="312" y="808" on="0"/>
        <pt x="335" y="771" on="1"/>
        <pt x="407" y="653" on="1"/>
        <pt x="303" y="653" on="1"/>
      </contour>
    </TTGlyph>
    <TTGlyph name="Aring" xMin="10" yMin="0" xMax="704" yMax="759">
      <contour>
        <pt x="485" y="0" on="1"/>
        <pt x="445" y="101" on="1"/>
        <pt x="190" y="101" on="1"/>
        <pt x="152" y="0" on="1"/>
        <pt x="10" y="0" on="1"/>
        <pt x="179" y="606" on="1"/>
        <pt x="535" y="606" on="1"/>
        <pt x="704" y="0" on="1"/>
      </contour>
      <contour>
        <pt x="394" y="231" on="1"/>
        <pt x="315" y="431" on="1"/>
        <pt x="239" y="231" on="1"/>
      </contour>
      <contour>
        <pt x="362" y="592" on="1"/>
        <pt x="410" y="592" on="0"/>
        <pt x="462" y="629" on="0"/>
        <pt x="462" y="721" on="0"/>
        <pt x="413" y="759" on="0"/>
        <pt x="362" y="759" on="1"/>
        <pt x="352" y="759" on="1"/>
        <pt x="301" y="759" on="0"/>
        <pt x="252" y="721" on="0"/>
        <pt x="252" y="629" on="0"/>
        <pt x="304" y="592" on="0"/>
        <pt x="352" y="592" on="1"/>
      </contour>
      <contour>
        <pt x="355" y="654" on="1"/>
        <pt x="334" y="654" on="0"/>
        <pt x="327" y="661" on="1"/>
        <pt x="322" y="666" on="0"/>
        <pt x="322" y="690" on="0"/>
        <pt x="337" y="699" on="0"/>
        <pt x="355" y="699" on="1"/>
        <pt x="359" y="699" on="1"/>
        <pt x="377" y="699" on="0"/>
        <pt x="392" y="690" on="0"/>
        <pt x="392" y="666" on="0"/>
        <pt x="380" y="654" on="0"/>
        <pt x="359" y="654" on="1"/>
      </contour>
    </TTGlyph>
    <TTGlyph name="Atilde" xMin="10" yMin="0" xMax="704" yMax="801">
      <contour>
        <pt x="485" y="0" on="1"/>
        <pt x="445" y="101" on="1"/>
        <pt x="190" y="101" on="1"/>
        <pt x="152" y="0" on="1"/>
        <pt x="10" y="0" on="1"/>
        <pt x="179" y="606" on="1"/>
        <pt x="535" y="606" on="1"/>
        <pt x="704" y="0" on="1"/>
      </contour>
      <contour>
        <pt x="394" y="231" on="1"/>
        <pt x="315" y="431" on="1"/>
        <pt x="239" y="231" on="1"/>
      </contour>
      <contour>
        <pt x="413" y="646" on="1"/>
        <pt x="390" y="646" on="0"/>
        <pt x="353" y="683" on="0"/>
        <pt x="336" y="683" on="0"/>
        <pt x="332" y="680" on="1"/>
        <pt x="274" y="646" on="1"/>
        <pt x="191" y="681" on="1"/>
        <pt x="242" y="764" on="1"/>
        <pt x="265" y="801" on="0"/>
        <pt x="303" y="801" on="1"/>
        <pt x="322" y="801" on="0"/>
        <pt x="351" y="776" on="0"/>
        <pt x="371" y="759" on="0"/>
        <pt x="384" y="767" on="1"/>
        <pt x="442" y="801" on="1"/>
        <pt x="525" y="766" on="1"/>
        <pt x="474" y="683" on="1"/>
        <pt x="451" y="646" on="0"/>
      </contour>
    </TTGlyph>
    <TTGlyph name="B" xMin="25" yMin="0" xMax="660" yMax="606">
      <contour>
        <pt x="456" y="606" on="1"/>
        <pt x="649" y="606" on="0"/>
        <pt x="649" y="463" on="1"/>
        <pt x="649" y="432" on="0"/>
        <pt x="624" y="381" on="0"/>
        <pt x="592" y="352" on="0"/>
        <pt x="572" y="342" on="1"/>
        <pt x="541" y="327" on="0"/>
        <pt x="523" y="324" on="1"/>
        <pt x="544" y="319" on="0"/>
        <pt x="599" y="290" on="0"/>
        <pt x="633" y="259" on="0"/>
        <pt x="660" y="204" on="0"/>
        <pt x="660" y="171" on="1"/>
        <pt x="660" y="80" on="0"/>
        <pt x="526" y="0" on="0"/>
        <pt x="380" y="0" on="1"/>
        <pt x="76" y="0" on="1"/>
        <pt x="25" y="606" on="1"/>
      </contour>
      <contour>
        <pt x="353" y="249" on="1"/>
        <pt x="305" y="249" on="1"/>
        <pt x="290" y="101" on="1"/>
        <pt x="327" y="101" on="1"/>
        <pt x="368" y="101" on="0"/>
        <pt x="418" y="145" on="0"/>
        <pt x="418" y="217" on="0"/>
        <pt x="380" y="249" on="0"/>
      </contour>
      <contour>
        <pt x="344" y="365" on="1"/>
        <pt x="379" y="365" on="0"/>
        <pt x="427" y="405" on="0"/>
        <pt x="427" y="438" on="1"/>
        <pt x="427" y="503" on="0"/>
        <pt x="352" y="503" on="1"/>
        <pt x="330" y="503" on="1"/>
        <pt x="316" y="365" on="1"/>
      </contour>
    </TTGlyph>
    <TTGlyph name="C" xMin="20" yMin="-10" xMax="578" yMax="620">
      <contour>
        <pt x="338" y="620" on="1"/>
        <pt x="396" y="620" on="0"/>
        <pt x="531" y="578" on="0"/>
        <pt x="574" y="546" on="1"/>
        <pt x="532" y="457" on="1"/>
        <pt x="488" y="474" on="0"/>
        <pt x="435" y="474" on="1"/>
        <pt x="287" y="474" on="0"/>
        <pt x="287" y="302" on="1"/>
        <pt x="287" y="219" on="0"/>
        <pt x="368" y="126" on="0"/>
        <pt x="483" y="126" on="0"/>
        <pt x="533" y="150" on="1"/>
        <pt x="578" y="64" on="1"/>
        <pt x="477" y="-10" on="0"/>
        <pt x="197" y="-10" on="0"/>
        <pt x="20" y="154" on="0"/>
        <pt x="20" y="461" on="0"/>
        <pt x="194" y="620" on="0"/>
      </contour>
    </TTGlyph>
    <TTGlyph name="Ccedilla" xMin="20" yMin="-183" xMax="578" yMax="620">
      <contour>
        <pt x="338" y="620" on="1"/>
        <pt x="396" y="620" on="0"/>
        <pt x="531" y="578" on="0"/>
        <pt x="574" y="546" on="1"/>
        <pt x="532" y="457" on="1"/>
        <pt x="488" y="474" on="0"/>
        <pt x="435" y="474" on="1"/>
        <pt x="287" y="474" on="0"/>
        <pt x="287" y="302" on="1"/>
        <pt x="287" y="219" on="0"/>
        <pt x="368" y="126" on="0"/>
        <pt x="483" y="126" on="0"/>
        <pt x="533" y="150" on="1"/>
        <pt x="578" y="64" on="1"/>
        <pt x="477" y="-10" on="0"/>
        <pt x="197" y="-10" on="0"/>
        <pt x="20" y="154" on="0"/>
        <pt x="20" y="461" on="0"/>
        <pt x="194" y="620" on="0"/>
      </contour>
      <contour>
        <pt x="335" y="-146" on="1"/>
        <pt x="312" y="-183" on="0"/>
        <pt x="247" y="-183" on="0"/>
        <pt x="209" y="-146" on="0"/>
        <pt x="209" y="-83" on="0"/>
        <pt x="245" y="-62" on="1"/>
        <pt x="303" y="-28" on="1"/>
        <pt x="407" y="-28" on="1"/>
      </contour>
    </TTGlyph>
    <TTGlyph name="D" xMin="25" yMin="0" xMax="671" yMax="606">
      <contour>
        <pt x="285" y="101" on="1"/>
        <pt x="354" y="101" on="0"/>
        <pt x="430" y="247" on="0"/>
        <pt x="430" y="408" on="0"/>
        <pt x="372" y="504" on="0"/>
        <pt x="326" y="504" on="1"/>
        <pt x="320" y="504" on="1"/>
        <pt x="279" y="101" on="1"/>
      </contour>
      <contour>
        <pt x="281" y="0" on="1"/>
        <pt x="85" y="0" on="1"/>
        <pt x="25" y="606" on="1"/>
        <pt x="320" y="606" on="1"/>
        <pt x="543" y="606" on="0"/>
        <pt x="627" y="484" on="1"/>
        <pt x="671" y="419" on="0"/>
        <pt x="671" y="330" on="1"/>
        <pt x="671" y="0" on="0"/>
      </contour>
    </TTGlyph>
    <TTGlyph name="E" xMin="40" yMin="-10" xMax="547" yMax="606">
      <contour>
        <pt x="324" y="233" on="1"/>
        <pt x="324" y="172" on="0"/>
        <pt x="364" y="129" on="0"/>
        <pt x="394" y="129" on="1"/>
        <pt x="441" y="129" on="0"/>
        <pt x="489" y="145" on="1"/>
        <pt x="504" y="150" on="1"/>
        <pt x="547" y="64" on="1"/>
        <pt x="538" y="56" on="0"/>
        <pt x="502" y="31" on="0"/>
        <pt x="377" y="-10" on="0"/>
        <pt x="244" y="-10" on="0"/>
        <pt x="154" y="28" on="0"/>
        <pt x="106" y="79" on="0"/>
        <pt x="76" y="164" on="0"/>
        <pt x="67" y="224" on="0"/>
        <pt x="64" y="269" on="1"/>
        <pt x="40" y="606" on="1"/>
        <pt x="490" y="606" on="1"/>
        <pt x="518" y="486" on="1"/>
        <pt x="348" y="471" on="1"/>
        <pt x="338" y="374" on="1"/>
        <pt x="472" y="374" on="1"/>
        <pt x="492" y="280" on="1"/>
        <pt x="324" y="238" on="1"/>
      </contour>
    </TTGlyph>
    <TTGlyph name="Eacute" xMin="35" yMin="-10" xMax="542" yMax="808">
      <contour>
        <pt x="239" y="-10" on="0"/>
        <pt x="149" y="28" on="0"/>
        <pt x="101" y="79" on="0"/>
        <pt x="71" y="164" on="0"/>
        <pt x="62" y="224" on="0"/>
        <pt x="59" y="269" on="1"/>
        <pt x="35" y="606" on="1"/>
        <pt x="485" y="606" on="1"/>
        <pt x="513" y="486" on="1"/>
        <pt x="343" y="471" on="1"/>
        <pt x="333" y="374" on="1"/>
        <pt x="467" y="374" on="1"/>
        <pt x="487" y="280" on="1"/>
        <pt x="319" y="238" on="1"/>
        <pt x="319" y="233" on="1"/>
        <pt x="319" y="172" on="0"/>
        <pt x="359" y="129" on="0"/>
        <pt x="445" y="129" on="0"/>
        <pt x="499" y="150" on="1"/>
        <pt x="542" y="64" on="1"/>
        <pt x="532" y="56" on="1"/>
        <pt x="509" y="38" on="0"/>
        <pt x="455" y="16" on="1"/>
        <pt x="428" y="5" on="0"/>
        <pt x="345" y="-10" on="0"/>
      </contour>
      <contour>
        <pt x="263" y="771" on="1"/>
        <pt x="286" y="808" on="0"/>
        <pt x="351" y="808" on="0"/>
        <pt x="389" y="771" on="0"/>
        <pt x="389" y="708" on="0"/>
        <pt x="353" y="687" on="1"/>
        <pt x="295" y="653" on="1"/>
        <pt x="191" y="653" on="1"/>
      </contour>
    </TTGlyph>
    <TTGlyph name="Ecircumflex" xMin="35" yMin="-10" xMax="542" yMax="808">
      <contour>
        <pt x="239" y="-10" on="0"/>
        <pt x="149" y="28" on="0"/>
        <pt x="101" y="79" on="0"/>
        <pt x="71" y="164" on="0"/>
        <pt x="62" y="224" on="0"/>
        <pt x="59" y="269" on="1"/>
        <pt x="35" y="606" on="1"/>
        <pt x="485" y="606" on="1"/>
        <pt x="513" y="486" on="1"/>
        <pt x="343" y="471" on="1"/>
        <pt x="333" y="374" on="1"/>
        <pt x="467" y="374" on="1"/>
        <pt x="487" y="280" on="1"/>
        <pt x="319" y="238" on="1"/>
        <pt x="319" y="233" on="1"/>
        <pt x="319" y="172" on="0"/>
        <pt x="359" y="129" on="0"/>
        <pt x="445" y="129" on="0"/>
        <pt x="499" y="150" on="1"/>
        <pt x="542" y="64" on="1"/>
        <pt x="532" y="56" on="1"/>
        <pt x="509" y="38" on="0"/>
        <pt x="455" y="16" on="1"/>
        <pt x="428" y="5" on="0"/>
        <pt x="345" y="-10" on="0"/>
      </contour>
      <contour>
        <pt x="263" y="808" on="1"/>
        <pt x="289" y="808" on="1"/>
        <pt x="322" y="808" on="0"/>
        <pt x="361" y="785" on="0"/>
        <pt x="377" y="759" on="1"/>
        <pt x="442" y="653" on="1"/>
        <pt x="338" y="653" on="1"/>
        <pt x="276" y="715" on="1"/>
        <pt x="214" y="653" on="1"/>
        <pt x="110" y="653" on="1"/>
        <pt x="175" y="759" on="1"/>
        <pt x="191" y="785" on="0"/>
        <pt x="230" y="808" on="0"/>
      </contour>
    </TTGlyph>
    <TTGlyph name="Edieresis" xMin="35" yMin="-10" xMax="542" yMax="798">
      <contour>
        <pt x="239" y="-10" on="0"/>
        <pt x="149" y="28" on="0"/>
        <pt x="101" y="79" on="0"/>
        <pt x="71" y="164" on="0"/>
        <pt x="62" y="224" on="0"/>
        <pt x="59" y="269" on="1"/>
        <pt x="35" y="606" on="1"/>
        <pt x="485" y="606" on="1"/>
        <pt x="513" y="486" on="1"/>
        <pt x="343" y="471" on="1"/>
        <pt x="333" y="374" on="1"/>
        <pt x="467" y="374" on="1"/>
        <pt x="487" y="280" on="1"/>
        <pt x="319" y="238" on="1"/>
        <pt x="319" y="233" on="1"/>
        <pt x="319" y="172" on="0"/>
        <pt x="359" y="129" on="0"/>
        <pt x="445" y="129" on="0"/>
        <pt x="499" y="150" on="1"/>
        <pt x="542" y="64" on="1"/>
        <pt x="532" y="56" on="1"/>
        <pt x="509" y="38" on="0"/>
        <pt x="455" y="16" on="1"/>
        <pt x="428" y="5" on="0"/>
        <pt x="345" y="-10" on="0"/>
      </contour>
      <contour>
        <pt x="316" y="798" on="0"/>
        <pt x="386" y="798" on="0"/>
        <pt x="423" y="759" on="0"/>
        <pt x="423" y="700" on="0"/>
        <pt x="387" y="662" on="0"/>
        <pt x="315" y="662" on="0"/>
        <pt x="280" y="700" on="0"/>
        <pt x="280" y="759" on="0"/>
      </contour>
      <contour>
        <pt x="133" y="798" on="0"/>
        <pt x="203" y="798" on="0"/>
        <pt x="240" y="759" on="0"/>
        <pt x="240" y="700" on="0"/>
        <pt x="204" y="662" on="0"/>
        <pt x="132" y="662" on="0"/>
        <pt x="97" y="700" on="0"/>
        <pt x="97" y="759" on="0"/>
      </contour>
    </TTGlyph>
    <TTGlyph name="Egrave" xMin="35" yMin="-10" xMax="542" yMax="808">
      <contour>
        <pt x="319" y="233" on="1"/>
        <pt x="319" y="172" on="0"/>
        <pt x="359" y="129" on="0"/>
        <pt x="388" y="129" on="1"/>
        <pt x="436" y="129" on="0"/>
        <pt x="484" y="145" on="1"/>
        <pt x="499" y="150" on="1"/>
        <pt x="542" y="64" on="1"/>
        <pt x="533" y="56" on="0"/>
        <pt x="497" y="31" on="0"/>
        <pt x="372" y="-10" on="0"/>
        <pt x="239" y="-10" on="0"/>
        <pt x="149" y="28" on="0"/>
        <pt x="101" y="79" on="0"/>
        <pt x="71" y="164" on="0"/>
        <pt x="62" y="224" on="0"/>
        <pt x="59" y="269" on="1"/>
        <pt x="35" y="606" on="1"/>
        <pt x="485" y="606" on="1"/>
        <pt x="513" y="486" on="1"/>
        <pt x="343" y="471" on="1"/>
        <pt x="333" y="374" on="1"/>
        <pt x="467" y="374" on="1"/>
        <pt x="487" y="280" on="1"/>
        <pt x="319" y="238" on="1"/>
      </contour>
      <contour>
        <pt x="163" y="687" on="1"/>
        <pt x="127" y="708" on="0"/>
        <pt x="127" y="771" on="0"/>
        <pt x="165" y="808" on="0"/>
        <pt x="230" y="808" on="0"/>
        <pt x="253" y="771" on="1"/>
        <pt x="325" y="653" on="1"/>
        <pt x="221" y="653" on="1"/>
      </contour>
    </TTGlyph>
    <TTGlyph name="Eth" xMin="-21" yMin="0" xMax="671" yMax="606">
      <contour>
        <pt x="-21" y="253" on="1"/>
        <pt x="-21" y="351" on="1"/>
        <pt x="50" y="351" on="1"/>
        <pt x="25" y="606" on="1"/>
        <pt x="320" y="606" on="1"/>
        <pt x="543" y="606" on="0"/>
        <pt x="627" y="484" on="1"/>
        <pt x="671" y="419" on="0"/>
        <pt x="671" y="330" on="1"/>
        <pt x="671" y="0" on="0"/>
        <pt x="281" y="0" on="1"/>
        <pt x="85" y="0" on="1"/>
        <pt x="60" y="253" on="1"/>
      </contour>
      <contour>
        <pt x="369" y="351" on="1"/>
        <pt x="369" y="253" on="1"/>
        <pt x="294" y="253" on="1"/>
        <pt x="279" y="101" on="1"/>
        <pt x="285" y="101" on="1"/>
        <pt x="354" y="101" on="0"/>
        <pt x="430" y="247" on="0"/>
        <pt x="430" y="408" on="0"/>
        <pt x="372" y="504" on="0"/>
        <pt x="326" y="504" on="1"/>
        <pt x="320" y="504" on="1"/>
        <pt x="304" y="351" on="1"/>
      </contour>
    </TTGlyph>
    <TTGlyph name="F" xMin="25" yMin="0" xMax="516" yMax="606">
      <contour>
        <pt x="472" y="378" on="1"/>
        <pt x="472" y="285" on="1"/>
        <pt x="304" y="243" on="1"/>
        <pt x="280" y="0" on="1"/>
        <pt x="85" y="0" on="1"/>
        <pt x="25" y="606" on="1"/>
        <pt x="485" y="606" on="1"/>
        <pt x="516" y="482" on="1"/>
        <pt x="327" y="470" on="1"/>
        <pt x="317" y="378" on="1"/>
      </contour>
    </TTGlyph>
    <TTGlyph name="G" xMin="20" yMin="-10" xMax="640" yMax="620">
      <contour>
        <pt x="640" y="320" on="1"/>
        <pt x="640" y="85" on="1"/>
        <pt x="627" y="72" on="0"/>
        <pt x="565" y="36" on="0"/>
        <pt x="534" y="24" on="1"/>
        <pt x="453" y="-10" on="0"/>
        <pt x="354" y="-10" on="1"/>
        <pt x="189" y="-10" on="0"/>
        <pt x="20" y="151" on="0"/>
        <pt x="20" y="457" on="0"/>
        <pt x="193" y="620" on="0"/>
        <pt x="347" y="620" on="1"/>
        <pt x="467" y="620" on="0"/>
        <pt x="566" y="570" on="1"/>
        <pt x="589" y="559" on="0"/>
        <pt x="600" y="551" on="1"/>
        <pt x="610" y="543" on="1"/>
        <pt x="566" y="454" on="1"/>
        <pt x="519" y="474" on="0"/>
        <pt x="454" y="474" on="1"/>
        <pt x="288" y="474" on="0"/>
        <pt x="288" y="302" on="1"/>
        <pt x="288" y="213" on="0"/>
        <pt x="364" y="113" on="0"/>
        <pt x="426" y="113" on="1"/>
        <pt x="451" y="113" on="0"/>
        <pt x="475" y="123" on="1"/>
        <pt x="452" y="219" on="1"/>
        <pt x="378" y="219" on="1"/>
        <pt x="398" y="320" on="1"/>
      </contour>
    </TTGlyph>
    <TTGlyph name="H" xMin="30" yMin="0" xMax="762" yMax="606">
      <contour>
        <pt x="507" y="0" on="1"/>
        <pt x="484" y="230" on="1"/>
        <pt x="306" y="214" on="1"/>
        <pt x="285" y="0" on="1"/>
        <pt x="90" y="0" on="1"/>
        <pt x="30" y="606" on="1"/>
        <pt x="345" y="606" on="1"/>
        <pt x="322" y="375" on="1"/>
        <pt x="470" y="375" on="1"/>
        <pt x="447" y="606" on="1"/>
        <pt x="762" y="606" on="1"/>
        <pt x="702" y="0" on="1"/>
      </contour>
    </TTGlyph>
    <TTGlyph name="I" xMin="25" yMin="0" xMax="340" yMax="606">
      <contour>
        <pt x="85" y="0" on="1"/>
        <pt x="25" y="606" on="1"/>
        <pt x="340" y="606" on="1"/>
        <pt x="280" y="0" on="1"/>
      </contour>
    </TTGlyph>
    <TTGlyph name="Iacute" xMin="25" yMin="0" xMax="340" yMax="808">
      <contour>
        <pt x="85" y="0" on="1"/>
        <pt x="25" y="606" on="1"/>
        <pt x="340" y="606" on="1"/>
        <pt x="280" y="0" on="1"/>
      </contour>
      <contour>
        <pt x="176" y="771" on="1"/>
        <pt x="199" y="808" on="0"/>
        <pt x="264" y="808" on="0"/>
        <pt x="302" y="771" on="0"/>
        <pt x="302" y="708" on="0"/>
        <pt x="266" y="687" on="1"/>
        <pt x="208" y="653" on="1"/>
        <pt x="104" y="653" on="1"/>
      </contour>
    </TTGlyph>
    <TTGlyph name="Icircumflex" xMin="14" yMin="0" xMax="346" yMax="808">
      <contour>
        <pt x="85" y="0" on="1"/>
        <pt x="25" y="606" on="1"/>
        <pt x="340" y="606" on="1"/>
        <pt x="280" y="0" on="1"/>
      </contour>
      <contour>
        <pt x="167" y="808" on="1"/>
        <pt x="193" y="808" on="1"/>
        <pt x="226" y="808" on="0"/>
        <pt x="265" y="785" on="0"/>
        <pt x="281" y="759" on="1"/>
        <pt x="346" y="653" on="1"/>
        <pt x="242" y="653" on="1"/>
        <pt x="180" y="715" on="1"/>
        <pt x="118" y="653" on="1"/>
        <pt x="14" y="653" on="1"/>
        <pt x="79" y="759" on="1"/>
        <pt x="95" y="785" on="0"/>
        <pt x="134" y="808" on="0"/>
      </contour>
    </TTGlyph>
    <TTGlyph name="Idieresis" xMin="20" yMin="0" xMax="346" yMax="798">
      <contour>
        <pt x="85" y="0" on="1"/>
        <pt x="25" y="606" on="1"/>
        <pt x="340" y="606" on="1"/>
        <pt x="280" y="0" on="1"/>
      </contour>
      <contour>
        <pt x="239" y="798" on="0"/>
        <pt x="309" y="798" on="0"/>
        <pt x="346" y="759" on="0"/>
        <pt x="346" y="700" on="0"/>
        <pt x="310" y="662" on="0"/>
        <pt x="238" y="662" on="0"/>
        <pt x="203" y="700" on="0"/>
        <pt x="203" y="759" on="0"/>
      </contour>
      <contour>
        <pt x="56" y="798" on="0"/>
        <pt x="126" y="798" on="0"/>
        <pt x="163" y="759" on="0"/>
        <pt x="163" y="700" on="0"/>
        <pt x="127" y="662" on="0"/>
        <pt x="55" y="662" on="0"/>
        <pt x="20" y="700" on="0"/>
        <pt x="20" y="759" on="0"/>
      </contour>
    </TTGlyph>
    <TTGlyph name="Igrave" xMin="25" yMin="0" xMax="340" yMax="808">
      <contour>
        <pt x="85" y="0" on="1"/>
        <pt x="25" y="606" on="1"/>
        <pt x="340" y="606" on="1"/>
        <pt x="280" y="0" on="1"/>
      </contour>
      <contour>
        <pt x="98" y="687" on="1"/>
        <pt x="62" y="708" on="0"/>
        <pt x="62" y="771" on="0"/>
        <pt x="100" y="808" on="0"/>
        <pt x="165" y="808" on="0"/>
        <pt x="188" y="771" on="1"/>
        <pt x="260" y="653" on="1"/>
        <pt x="156" y="653" on="1"/>
      </contour>
    </TTGlyph>
    <TTGlyph name="Itilde" xMin="25" yMin="0" xMax="344" yMax="794">
      <contour>
        <pt x="85" y="0" on="1"/>
        <pt x="25" y="606" on="1"/>
        <pt x="340" y="606" on="1"/>
        <pt x="280" y="0" on="1"/>
      </contour>
      <contour>
        <pt x="238" y="647" on="1"/>
        <pt x="220" y="647" on="0"/>
        <pt x="192" y="670" on="0"/>
        <pt x="172" y="686" on="0"/>
        <pt x="161" y="679" on="1"/>
        <pt x="105" y="647" on="1"/>
        <pt x="27" y="680" on="1"/>
        <pt x="75" y="759" on="1"/>
        <pt x="97" y="794" on="0"/>
        <pt x="133" y="794" on="1"/>
        <pt x="155" y="794" on="0"/>
        <pt x="189" y="758" on="0"/>
        <pt x="206" y="758" on="0"/>
        <pt x="210" y="761" on="1"/>
        <pt x="265" y="794" on="1"/>
        <pt x="344" y="760" on="1"/>
        <pt x="296" y="682" on="1"/>
        <pt x="273" y="647" on="0"/>
      </contour>
    </TTGlyph>
    <TTGlyph name="J" xMin="0" yMin="-10" xMax="483" yMax="606">
      <contour>
        <pt x="222" y="-10" on="1"/>
        <pt x="162" y="-10" on="0"/>
        <pt x="51" y="30" on="0"/>
        <pt x="26" y="50" on="1"/>
        <pt x="0" y="70" on="1"/>
        <pt x="43" y="156" on="1"/>
        <pt x="96" y="129" on="0"/>
        <pt x="137" y="129" on="1"/>
        <pt x="210" y="129" on="0"/>
        <pt x="210" y="200" on="1"/>
        <pt x="210" y="211" on="0"/>
        <pt x="181" y="471" on="1"/>
        <pt x="43" y="488" on="1"/>
        <pt x="72" y="606" on="1"/>
        <pt x="483" y="606" on="1"/>
        <pt x="444" y="205" on="1"/>
        <pt x="423" y="-10" on="0"/>
      </contour>
    </TTGlyph>
    <TTGlyph name="Jcircumflex" xMin="0" yMin="-10" xMax="483" yMax="808">
      <contour>
        <pt x="210" y="200" on="1"/>
        <pt x="210" y="211" on="0"/>
        <pt x="181" y="471" on="1"/>
        <pt x="43" y="488" on="1"/>
        <pt x="72" y="606" on="1"/>
        <pt x="483" y="606" on="1"/>
        <pt x="444" y="205" on="1"/>
        <pt x="423" y="-10" on="0"/>
        <pt x="222" y="-10" on="1"/>
        <pt x="162" y="-10" on="0"/>
        <pt x="47" y="34" on="0"/>
        <pt x="10" y="61" on="0"/>
        <pt x="0" y="70" on="1"/>
        <pt x="0" y="70" on="0"/>
        <pt x="43" y="156" on="1"/>
        <pt x="58" y="149" on="1"/>
        <pt x="99" y="129" on="0"/>
        <pt x="137" y="129" on="1"/>
        <pt x="210" y="129" on="0"/>
      </contour>
      <contour>
        <pt x="269" y="808" on="1"/>
        <pt x="295" y="808" on="1"/>
        <pt x="328" y="808" on="0"/>
        <pt x="367" y="785" on="0"/>
        <pt x="383" y="759" on="1"/>
        <pt x="448" y="653" on="1"/>
        <pt x="344" y="653" on="1"/>
        <pt x="282" y="715" on="1"/>
        <pt x="220" y="653" on="1"/>
        <pt x="116" y="653" on="1"/>
        <pt x="181" y="759" on="1"/>
        <pt x="197" y="785" on="0"/>
        <pt x="236" y="808" on="0"/>
      </contour>
    </TTGlyph>
    <TTGlyph name="K" xMin="25" yMin="0" xMax="694" yMax="606">
      <contour>
        <pt x="299" y="193" on="1"/>
        <pt x="280" y="0" on="1"/>
        <pt x="85" y="0" on="1"/>
        <pt x="25" y="606" on="1"/>
        <pt x="340" y="606" on="1"/>
        <pt x="322" y="426" on="1"/>
        <pt x="485" y="606" on="1"/>
        <pt x="660" y="606" on="1"/>
        <pt x="491" y="347" on="1"/>
        <pt x="694" y="0" on="1"/>
        <pt x="498" y="0" on="1"/>
        <pt x="358" y="135" on="0"/>
      </contour>
    </TTGlyph>
    <TTGlyph name="L" xMin="20" yMin="0" xMax="471" yMax="606">
      <contour>
        <pt x="80" y="0" on="1"/>
        <pt x="20" y="606" on="1"/>
        <pt x="335" y="606" on="1"/>
        <pt x="290" y="155" on="1"/>
        <pt x="471" y="165" on="1"/>
        <pt x="414" y="0" on="1"/>
      </contour>
    </TTGlyph>
    <TTGlyph name="Lslash" xMin="20" yMin="0" xMax="503" yMax="606">
      <contour>
        <pt x="20" y="182" on="1"/>
        <pt x="20" y="280" on="1"/>
        <pt x="82" y="304" on="1"/>
        <pt x="52" y="606" on="1"/>
        <pt x="367" y="606" on="1"/>
        <pt x="347" y="408" on="1"/>
        <pt x="446" y="447" on="1"/>
        <pt x="446" y="349" on="1"/>
        <pt x="337" y="306" on="1"/>
        <pt x="322" y="155" on="1"/>
        <pt x="503" y="165" on="1"/>
        <pt x="446" y="0" on="1"/>
        <pt x="112" y="0" on="1"/>
        <pt x="91" y="210" on="1"/>
      </contour>
    </TTGlyph>
    <TTGlyph name="M" xMin="25" yMin="0" xMax="965" yMax="606">
      <contour>
        <pt x="75" y="0" on="1"/>
        <pt x="25" y="606" on="1"/>
        <pt x="399" y="606" on="1"/>
        <pt x="512" y="309" on="1"/>
        <pt x="625" y="606" on="1"/>
        <pt x="965" y="606" on="1"/>
        <pt x="915" y="0" on="1"/>
        <pt x="710" y="0" on="1"/>
        <pt x="674" y="361" on="1"/>
        <pt x="536" y="0" on="1"/>
        <pt x="374" y="0" on="1"/>
        <pt x="236" y="361" on="1"/>
        <pt x="206" y="0" on="1"/>
      </contour>
    </TTGlyph>
    <TTGlyph name="N" xMin="25" yMin="0" xMax="750" yMax="606">
      <contour>
        <pt x="370" y="606" on="1"/>
        <pt x="547" y="253" on="1"/>
        <pt x="519" y="606" on="1"/>
        <pt x="750" y="606" on="1"/>
        <pt x="700" y="0" on="1"/>
        <pt x="407" y="0" on="1"/>
        <pt x="239" y="330" on="1"/>
        <pt x="206" y="0" on="1"/>
        <pt x="75" y="0" on="1"/>
        <pt x="25" y="606" on="1"/>
      </contour>
    </TTGlyph>
    <TTGlyph name="Nacute" xMin="25" yMin="0" xMax="750" yMax="818">
      <contour>
        <pt x="370" y="606" on="1"/>
        <pt x="547" y="253" on="1"/>
        <pt x="519" y="606" on="1"/>
        <pt x="750" y="606" on="1"/>
        <pt x="700" y="0" on="1"/>
        <pt x="407" y="0" on="1"/>
        <pt x="239" y="330" on="1"/>
        <pt x="206" y="0" on="1"/>
        <pt x="75" y="0" on="1"/>
        <pt x="25" y="606" on="1"/>
      </contour>
      <contour>
        <pt x="443" y="781" on="1"/>
        <pt x="466" y="818" on="0"/>
        <pt x="531" y="818" on="0"/>
        <pt x="569" y="781" on="0"/>
        <pt x="569" y="718" on="0"/>
        <pt x="533" y="697" on="1"/>
        <pt x="475" y="663" on="1"/>
        <pt x="371" y="663" on="1"/>
      </contour>
    </TTGlyph>
    <TTGlyph name="Ntilde" xMin="25" yMin="0" xMax="750" yMax="804">
      <contour>
        <pt x="436" y="649" on="1"/>
        <pt x="413" y="649" on="0"/>
        <pt x="376" y="686" on="0"/>
        <pt x="359" y="686" on="0"/>
        <pt x="355" y="683" on="1"/>
        <pt x="297" y="649" on="1"/>
        <pt x="214" y="684" on="1"/>
        <pt x="265" y="767" on="1"/>
        <pt x="288" y="804" on="0"/>
        <pt x="326" y="804" on="1"/>
        <pt x="345" y="804" on="0"/>
        <pt x="374" y="779" on="0"/>
        <pt x="394" y="762" on="0"/>
        <pt x="407" y="770" on="1"/>
        <pt x="465" y="804" on="1"/>
        <pt x="548" y="769" on="1"/>
        <pt x="497" y="686" on="1"/>
        <pt x="474" y="649" on="0"/>
      </contour>
      <contour>
        <pt x="370" y="606" on="1"/>
        <pt x="547" y="253" on="1"/>
        <pt x="519" y="606" on="1"/>
        <pt x="750" y="606" on="1"/>
        <pt x="700" y="0" on="1"/>
        <pt x="407" y="0" on="1"/>
        <pt x="239" y="330" on="1"/>
        <pt x="206" y="0" on="1"/>
        <pt x="75" y="0" on="1"/>
        <pt x="25" y="606" on="1"/>
      </contour>
    </TTGlyph>
    <TTGlyph name="O" xMin="20" yMin="-10" xMax="727" yMax="620">
      <contour>
        <pt x="20" y="456" on="0"/>
        <pt x="203" y="620" on="0"/>
        <pt x="544" y="620" on="0"/>
        <pt x="727" y="456" on="0"/>
        <pt x="727" y="142" on="0"/>
        <pt x="534" y="-10" on="0"/>
        <pt x="213" y="-10" on="0"/>
        <pt x="20" y="142" on="0"/>
      </contour>
      <contour>
        <pt x="461" y="505" on="0"/>
        <pt x="286" y="505" on="0"/>
        <pt x="286" y="101" on="0"/>
        <pt x="461" y="101" on="0"/>
      </contour>
    </TTGlyph>
    <TTGlyph name="OE" xMin="20" yMin="-10" xMax="967" yMax="620">
      <contour>
        <pt x="374" y="620" on="1"/>
        <pt x="442" y="620" on="0"/>
        <pt x="500" y="606" on="1"/>
        <pt x="910" y="606" on="1"/>
        <pt x="938" y="486" on="1"/>
        <pt x="768" y="471" on="1"/>
        <pt x="758" y="374" on="1"/>
        <pt x="892" y="374" on="1"/>
        <pt x="912" y="280" on="1"/>
        <pt x="744" y="238" on="1"/>
        <pt x="744" y="233" on="1"/>
        <pt x="744" y="172" on="0"/>
        <pt x="784" y="129" on="0"/>
        <pt x="814" y="129" on="1"/>
        <pt x="861" y="129" on="0"/>
        <pt x="909" y="145" on="1"/>
        <pt x="924" y="150" on="1"/>
        <pt x="967" y="64" on="1"/>
        <pt x="958" y="56" on="0"/>
        <pt x="922" y="31" on="0"/>
        <pt x="797" y="-10" on="0"/>
        <pt x="630" y="-10" on="0"/>
        <pt x="571" y="28" on="1"/>
        <pt x="489" y="-10" on="0"/>
        <pt x="374" y="-10" on="1"/>
        <pt x="213" y="-10" on="0"/>
        <pt x="20" y="142" on="0"/>
        <pt x="20" y="456" on="0"/>
        <pt x="203" y="620" on="0"/>
      </contour>
      <contour>
        <pt x="461" y="505" on="0"/>
        <pt x="286" y="505" on="0"/>
        <pt x="286" y="101" on="0"/>
        <pt x="461" y="101" on="0"/>
      </contour>
    </TTGlyph>
    <TTGlyph name="Oacute" xMin="20" yMin="-10" xMax="727" yMax="808">
      <contour>
        <pt x="20" y="456" on="0"/>
        <pt x="203" y="620" on="0"/>
        <pt x="544" y="620" on="0"/>
        <pt x="727" y="456" on="0"/>
        <pt x="727" y="142" on="0"/>
        <pt x="534" y="-10" on="0"/>
        <pt x="213" y="-10" on="0"/>
        <pt x="20" y="142" on="0"/>
      </contour>
      <contour>
        <pt x="461" y="505" on="0"/>
        <pt x="286" y="505" on="0"/>
        <pt x="286" y="101" on="0"/>
        <pt x="461" y="101" on="0"/>
      </contour>
      <contour>
        <pt x="391" y="771" on="1"/>
        <pt x="414" y="808" on="0"/>
        <pt x="479" y="808" on="0"/>
        <pt x="517" y="771" on="0"/>
        <pt x="517" y="708" on="0"/>
        <pt x="481" y="687" on="1"/>
        <pt x="423" y="653" on="1"/>
        <pt x="319" y="653" on="1"/>
      </contour>
    </TTGlyph>
    <TTGlyph name="Ocircumflex" xMin="20" yMin="-10" xMax="727" yMax="808">
      <contour>
        <pt x="20" y="456" on="0"/>
        <pt x="203" y="620" on="0"/>
        <pt x="544" y="620" on="0"/>
        <pt x="727" y="456" on="0"/>
        <pt x="727" y="142" on="0"/>
        <pt x="534" y="-10" on="0"/>
        <pt x="213" y="-10" on="0"/>
        <pt x="20" y="142" on="0"/>
      </contour>
      <contour>
        <pt x="461" y="505" on="0"/>
        <pt x="286" y="505" on="0"/>
        <pt x="286" y="101" on="0"/>
        <pt x="461" y="101" on="0"/>
      </contour>
      <contour>
        <pt x="363" y="808" on="1"/>
        <pt x="389" y="808" on="1"/>
        <pt x="422" y="808" on="0"/>
        <pt x="461" y="785" on="0"/>
        <pt x="477" y="759" on="1"/>
        <pt x="542" y="653" on="1"/>
        <pt x="438" y="653" on="1"/>
        <pt x="376" y="715" on="1"/>
        <pt x="314" y="653" on="1"/>
        <pt x="210" y="653" on="1"/>
        <pt x="275" y="759" on="1"/>
        <pt x="291" y="785" on="0"/>
        <pt x="330" y="808" on="0"/>
      </contour>
      <contour>
        <pt x="363" y="808" on="1"/>
        <pt x="330" y="808" on="0"/>
        <pt x="291" y="785" on="0"/>
        <pt x="275" y="759" on="1"/>
        <pt x="210" y="653" on="1"/>
        <pt x="314" y="653" on="1"/>
        <pt x="376" y="715" on="1"/>
        <pt x="438" y="653" on="1"/>
        <pt x="542" y="653" on="1"/>
        <pt x="477" y="759" on="1"/>
        <pt x="461" y="785" on="0"/>
        <pt x="422" y="808" on="0"/>
        <pt x="389" y="808" on="1"/>
      </contour>
    </TTGlyph>
    <TTGlyph name="Odieresis" xMin="20" yMin="-10" xMax="727" yMax="798">
      <contour>
        <pt x="20" y="456" on="0"/>
        <pt x="203" y="620" on="0"/>
        <pt x="544" y="620" on="0"/>
        <pt x="727" y="456" on="0"/>
        <pt x="727" y="142" on="0"/>
        <pt x="534" y="-10" on="0"/>
        <pt x="213" y="-10" on="0"/>
        <pt x="20" y="142" on="0"/>
      </contour>
      <contour>
        <pt x="461" y="505" on="0"/>
        <pt x="286" y="505" on="0"/>
        <pt x="286" y="101" on="0"/>
        <pt x="461" y="101" on="0"/>
      </contour>
      <contour>
        <pt x="431" y="798" on="0"/>
        <pt x="501" y="798" on="0"/>
        <pt x="538" y="759" on="0"/>
        <pt x="538" y="700" on="0"/>
        <pt x="502" y="662" on="0"/>
        <pt x="430" y="662" on="0"/>
        <pt x="395" y="700" on="0"/>
        <pt x="395" y="759" on="0"/>
      </contour>
      <contour>
        <pt x="248" y="798" on="0"/>
        <pt x="318" y="798" on="0"/>
        <pt x="355" y="759" on="0"/>
        <pt x="355" y="700" on="0"/>
        <pt x="319" y="662" on="0"/>
        <pt x="247" y="662" on="0"/>
        <pt x="212" y="700" on="0"/>
        <pt x="212" y="759" on="0"/>
      </contour>
    </TTGlyph>
    <TTGlyph name="Ograve" xMin="20" yMin="-10" xMax="727" yMax="808">
      <contour>
        <pt x="20" y="456" on="0"/>
        <pt x="203" y="620" on="0"/>
        <pt x="544" y="620" on="0"/>
        <pt x="727" y="456" on="0"/>
        <pt x="727" y="142" on="0"/>
        <pt x="534" y="-10" on="0"/>
        <pt x="213" y="-10" on="0"/>
        <pt x="20" y="142" on="0"/>
      </contour>
      <contour>
        <pt x="461" y="505" on="0"/>
        <pt x="286" y="505" on="0"/>
        <pt x="286" y="101" on="0"/>
        <pt x="461" y="101" on="0"/>
      </contour>
      <contour>
        <pt x="261" y="687" on="1"/>
        <pt x="225" y="708" on="0"/>
        <pt x="225" y="771" on="0"/>
        <pt x="263" y="808" on="0"/>
        <pt x="328" y="808" on="0"/>
        <pt x="351" y="771" on="1"/>
        <pt x="423" y="653" on="1"/>
        <pt x="319" y="653" on="1"/>
      </contour>
    </TTGlyph>
    <TTGlyph name="Oslash" xMin="20" yMin="-66" xMax="727" yMax="670">
      <contour>
        <pt x="199" y="-66" on="1"/>
        <pt x="451" y="670" on="1"/>
        <pt x="523" y="670" on="1"/>
        <pt x="271" y="-66" on="1"/>
      </contour>
      <contour>
        <pt x="20" y="456" on="0"/>
        <pt x="203" y="620" on="0"/>
        <pt x="544" y="620" on="0"/>
        <pt x="727" y="456" on="0"/>
        <pt x="727" y="142" on="0"/>
        <pt x="534" y="-10" on="0"/>
        <pt x="213" y="-10" on="0"/>
        <pt x="20" y="142" on="0"/>
      </contour>
      <contour>
        <pt x="461" y="505" on="0"/>
        <pt x="286" y="505" on="0"/>
        <pt x="286" y="101" on="0"/>
        <pt x="461" y="101" on="0"/>
      </contour>
    </TTGlyph>
    <TTGlyph name="Otilde" xMin="20" yMin="-10" xMax="727" yMax="801">
      <contour>
        <pt x="20" y="456" on="0"/>
        <pt x="203" y="620" on="0"/>
        <pt x="544" y="620" on="0"/>
        <pt x="727" y="456" on="0"/>
        <pt x="727" y="142" on="0"/>
        <pt x="534" y="-10" on="0"/>
        <pt x="213" y="-10" on="0"/>
        <pt x="20" y="142" on="0"/>
      </contour>
      <contour>
        <pt x="461" y="505" on="0"/>
        <pt x="286" y="505" on="0"/>
        <pt x="286" y="101" on="0"/>
        <pt x="461" y="101" on="0"/>
      </contour>
      <contour>
        <pt x="440" y="646" on="1"/>
        <pt x="417" y="646" on="0"/>
        <pt x="380" y="683" on="0"/>
        <pt x="363" y="683" on="0"/>
        <pt x="359" y="680" on="1"/>
        <pt x="301" y="646" on="1"/>
        <pt x="218" y="681" on="1"/>
        <pt x="269" y="764" on="1"/>
        <pt x="292" y="801" on="0"/>
        <pt x="330" y="801" on="1"/>
        <pt x="349" y="801" on="0"/>
        <pt x="378" y="776" on="0"/>
        <pt x="398" y="759" on="0"/>
        <pt x="411" y="767" on="1"/>
        <pt x="469" y="801" on="1"/>
        <pt x="552" y="766" on="1"/>
        <pt x="501" y="683" on="1"/>
        <pt x="478" y="646" on="0"/>
      </contour>
    </TTGlyph>
    <TTGlyph name="P" xMin="25" yMin="0" xMax="707" yMax="606">
      <contour>
        <pt x="358" y="303" on="1"/>
        <pt x="404" y="303" on="0"/>
        <pt x="458" y="359" on="0"/>
        <pt x="458" y="440" on="0"/>
        <pt x="407" y="481" on="0"/>
        <pt x="367" y="481" on="1"/>
        <pt x="327" y="481" on="1"/>
        <pt x="310" y="303" on="1"/>
      </contour>
      <contour>
        <pt x="421" y="175" on="1"/>
        <pt x="297" y="175" on="1"/>
        <pt x="280" y="0" on="1"/>
        <pt x="85" y="0" on="1"/>
        <pt x="25" y="606" on="1"/>
        <pt x="471" y="606" on="1"/>
        <pt x="576" y="606" on="0"/>
        <pt x="707" y="499" on="0"/>
        <pt x="707" y="399" on="1"/>
        <pt x="707" y="338" on="0"/>
        <pt x="658" y="248" on="0"/>
        <pt x="616" y="223" on="1"/>
        <pt x="535" y="175" on="0"/>
      </contour>
    </TTGlyph>
    <TTGlyph name="Q" xMin="20" yMin="-153" xMax="727" yMax="620">
      <contour>
        <pt x="20" y="456" on="0"/>
        <pt x="203" y="620" on="0"/>
        <pt x="544" y="620" on="0"/>
        <pt x="727" y="456" on="0"/>
        <pt x="727" y="168" on="0"/>
        <pt x="589" y="17" on="0"/>
        <pt x="470" y="-2" on="1"/>
        <pt x="486" y="-35" on="0"/>
        <pt x="585" y="-35" on="0"/>
        <pt x="644" y="7" on="1"/>
        <pt x="687" y="-79" on="1"/>
        <pt x="602" y="-153" on="0"/>
        <pt x="492" y="-153" on="1"/>
        <pt x="416" y="-153" on="0"/>
        <pt x="292" y="-74" on="0"/>
        <pt x="269" y="-1" on="1"/>
        <pt x="153" y="20" on="0"/>
        <pt x="20" y="170" on="0"/>
      </contour>
      <contour>
        <pt x="461" y="505" on="0"/>
        <pt x="286" y="505" on="0"/>
        <pt x="286" y="101" on="0"/>
        <pt x="461" y="101" on="0"/>
      </contour>
    </TTGlyph>
    <TTGlyph name="R" xMin="25" yMin="0" xMax="707" yMax="606">
      <contour>
        <pt x="358" y="303" on="1"/>
        <pt x="404" y="303" on="0"/>
        <pt x="458" y="359" on="0"/>
        <pt x="458" y="440" on="0"/>
        <pt x="407" y="481" on="0"/>
        <pt x="367" y="481" on="1"/>
        <pt x="327" y="481" on="1"/>
        <pt x="310" y="303" on="1"/>
      </contour>
      <contour>
        <pt x="471" y="606" on="1"/>
        <pt x="578" y="606" on="0"/>
        <pt x="707" y="505" on="0"/>
        <pt x="707" y="406" on="1"/>
        <pt x="707" y="370" on="0"/>
        <pt x="677" y="305" on="0"/>
        <pt x="656" y="285" on="1"/>
        <pt x="612" y="245" on="0"/>
        <pt x="575" y="228" on="1"/>
        <pt x="560" y="222" on="1"/>
        <pt x="668" y="0" on="1"/>
        <pt x="493" y="0" on="1"/>
        <pt x="299" y="195" on="1"/>
        <pt x="280" y="0" on="1"/>
        <pt x="85" y="0" on="1"/>
        <pt x="25" y="606" on="1"/>
      </contour>
    </TTGlyph>
    <TTGlyph name="Racute" xMin="25" yMin="0" xMax="707" yMax="818">
      <contour>
        <pt x="367" y="481" on="1"/>
        <pt x="327" y="481" on="1"/>
        <pt x="310" y="303" on="1"/>
        <pt x="358" y="303" on="1"/>
        <pt x="404" y="303" on="0"/>
        <pt x="458" y="359" on="0"/>
        <pt x="458" y="440" on="0"/>
        <pt x="407" y="481" on="0"/>
      </contour>
      <contour>
        <pt x="707" y="406" on="1"/>
        <pt x="707" y="370" on="0"/>
        <pt x="675" y="304" on="0"/>
        <pt x="636" y="266" on="0"/>
        <pt x="579" y="228" on="0"/>
        <pt x="560" y="222" on="1"/>
        <pt x="668" y="0" on="1"/>
        <pt x="493" y="0" on="1"/>
        <pt x="299" y="195" on="1"/>
        <pt x="280" y="0" on="1"/>
        <pt x="85" y="0" on="1"/>
        <pt x="25" y="606" on="1"/>
        <pt x="471" y="606" on="1"/>
        <pt x="578" y="606" on="0"/>
        <pt x="707" y="505" on="0"/>
      </contour>
      <contour>
        <pt x="376" y="781" on="1"/>
        <pt x="399" y="818" on="0"/>
        <pt x="464" y="818" on="0"/>
        <pt x="502" y="781" on="0"/>
        <pt x="502" y="718" on="0"/>
        <pt x="466" y="697" on="1"/>
        <pt x="408" y="663" on="1"/>
        <pt x="304" y="663" on="1"/>
      </contour>
    </TTGlyph>
    <TTGlyph name="Rcaron" xMin="25" yMin="0" xMax="707" yMax="808">
      <contour>
        <pt x="358" y="303" on="1"/>
        <pt x="404" y="303" on="0"/>
        <pt x="458" y="359" on="0"/>
        <pt x="458" y="440" on="0"/>
        <pt x="407" y="481" on="0"/>
        <pt x="367" y="481" on="1"/>
        <pt x="327" y="481" on="1"/>
        <pt x="310" y="303" on="1"/>
      </contour>
      <contour>
        <pt x="471" y="606" on="1"/>
        <pt x="578" y="606" on="0"/>
        <pt x="707" y="505" on="0"/>
        <pt x="707" y="406" on="1"/>
        <pt x="707" y="370" on="0"/>
        <pt x="677" y="305" on="0"/>
        <pt x="656" y="285" on="1"/>
        <pt x="612" y="245" on="0"/>
        <pt x="575" y="228" on="1"/>
        <pt x="560" y="222" on="1"/>
        <pt x="668" y="0" on="1"/>
        <pt x="493" y="0" on="1"/>
        <pt x="299" y="195" on="1"/>
        <pt x="280" y="0" on="1"/>
        <pt x="85" y="0" on="1"/>
        <pt x="25" y="606" on="1"/>
      </contour>
      <contour>
        <pt x="378" y="653" on="1"/>
        <pt x="352" y="653" on="1"/>
        <pt x="319" y="653" on="0"/>
        <pt x="280" y="676" on="0"/>
        <pt x="264" y="702" on="1"/>
        <pt x="199" y="808" on="1"/>
        <pt x="303" y="808" on="1"/>
        <pt x="365" y="746" on="1"/>
        <pt x="427" y="808" on="1"/>
        <pt x="531" y="808" on="1"/>
        <pt x="466" y="702" on="1"/>
        <pt x="450" y="676" on="0"/>
        <pt x="411" y="653" on="0"/>
      </contour>
    </TTGlyph>
    <TTGlyph name="Rcommaaccent" xMin="25" yMin="-236" xMax="707" yMax="606">
      <contour>
        <pt x="300" y="-236" on="1"/>
        <pt x="300" y="-109" on="1"/>
        <pt x="300" y="-84" on="0"/>
        <pt x="336" y="-45" on="0"/>
        <pt x="404" y="-45" on="0"/>
        <pt x="440" y="-84" on="0"/>
        <pt x="440" y="-133" on="0"/>
        <pt x="411" y="-175" on="1"/>
        <pt x="370" y="-236" on="1"/>
      </contour>
      <contour>
        <pt x="358" y="303" on="1"/>
        <pt x="404" y="303" on="0"/>
        <pt x="458" y="359" on="0"/>
        <pt x="458" y="440" on="0"/>
        <pt x="407" y="481" on="0"/>
        <pt x="367" y="481" on="1"/>
        <pt x="327" y="481" on="1"/>
        <pt x="310" y="303" on="1"/>
      </contour>
      <contour>
        <pt x="471" y="606" on="1"/>
        <pt x="578" y="606" on="0"/>
        <pt x="707" y="505" on="0"/>
        <pt x="707" y="406" on="1"/>
        <pt x="707" y="370" on="0"/>
        <pt x="677" y="305" on="0"/>
        <pt x="656" y="285" on="1"/>
        <pt x="612" y="245" on="0"/>
        <pt x="575" y="228" on="1"/>
        <pt x="560" y="222" on="1"/>
        <pt x="668" y="0" on="1"/>
        <pt x="493" y="0" on="1"/>
        <pt x="299" y="195" on="1"/>
        <pt x="280" y="0" on="1"/>
        <pt x="85" y="0" on="1"/>
        <pt x="25" y="606" on="1"/>
      </contour>
    </TTGlyph>
    <TTGlyph name="S" xMin="20" yMin="-10" xMax="527" yMax="620">
      <contour>
        <pt x="482" y="331" on="0"/>
        <pt x="527" y="257" on="0"/>
        <pt x="527" y="134" on="0"/>
        <pt x="488" y="84" on="1"/>
        <pt x="416" y="-10" on="0"/>
        <pt x="269" y="-10" on="1"/>
        <pt x="205" y="-10" on="0"/>
        <pt x="80" y="27" on="0"/>
        <pt x="50" y="46" on="1"/>
        <pt x="20" y="64" on="1"/>
        <pt x="63" y="150" on="1"/>
        <pt x="135" y="115" on="0"/>
        <pt x="251" y="115" on="0"/>
        <pt x="251" y="152" on="1"/>
        <pt x="251" y="173" on="0"/>
        <pt x="206" y="210" on="0"/>
        <pt x="141" y="244" on="0"/>
        <pt x="76" y="289" on="0"/>
        <pt x="31" y="370" on="0"/>
        <pt x="31" y="424" on="1"/>
        <pt x="31" y="520" on="0"/>
        <pt x="178" y="620" on="0"/>
        <pt x="282" y="620" on="1"/>
        <pt x="344" y="620" on="0"/>
        <pt x="453" y="590" on="0"/>
        <pt x="476" y="575" on="1"/>
        <pt x="500" y="560" on="1"/>
        <pt x="461" y="475" on="1"/>
        <pt x="410" y="497" on="0"/>
        <pt x="307" y="497" on="0"/>
        <pt x="307" y="458" on="1"/>
        <pt x="307" y="437" on="0"/>
        <pt x="352" y="403" on="0"/>
        <pt x="417" y="372" on="0"/>
      </contour>
    </TTGlyph>
    <TTGlyph name="T" xMin="0" yMin="0" xMax="608" yMax="606">
      <contour>
        <pt x="588" y="606" on="1"/>
        <pt x="608" y="416" on="1"/>
        <pt x="447" y="448" on="1"/>
        <pt x="402" y="0" on="1"/>
        <pt x="207" y="0" on="1"/>
        <pt x="162" y="448" on="1"/>
        <pt x="0" y="416" on="1"/>
        <pt x="20" y="606" on="1"/>
      </contour>
    </TTGlyph>
    <TTGlyph name="Thorn" xMin="30" yMin="0" xMax="589" yMax="649">
      <contour>
        <pt x="327" y="552" on="1"/>
        <pt x="456" y="552" on="0"/>
        <pt x="589" y="454" on="0"/>
        <pt x="589" y="214" on="0"/>
        <pt x="451" y="109" on="0"/>
        <pt x="338" y="109" on="1"/>
        <pt x="235" y="109" on="1"/>
        <pt x="231" y="0" on="1"/>
        <pt x="57" y="0" on="1"/>
        <pt x="30" y="649" on="1"/>
        <pt x="258" y="649" on="1"/>
        <pt x="254" y="552" on="1"/>
      </contour>
      <contour>
        <pt x="284" y="439" on="1"/>
        <pt x="249" y="439" on="1"/>
        <pt x="240" y="223" on="1"/>
        <pt x="284" y="223" on="1"/>
        <pt x="387" y="223" on="0"/>
        <pt x="387" y="329" on="1"/>
        <pt x="387" y="393" on="0"/>
        <pt x="330" y="439" on="0"/>
      </contour>
    </TTGlyph>
    <TTGlyph name="U" xMin="40" yMin="-10" xMax="708" yMax="606">
      <contour>
        <pt x="527" y="-10" on="0"/>
        <pt x="221" y="-10" on="0"/>
        <pt x="40" y="142" on="0"/>
        <pt x="40" y="305" on="1"/>
        <pt x="40" y="606" on="1"/>
        <pt x="306" y="606" on="1"/>
        <pt x="306" y="256" on="1"/>
        <pt x="306" y="139" on="0"/>
        <pt x="336" y="114" on="1"/>
        <pt x="350" y="101" on="0"/>
        <pt x="398" y="101" on="0"/>
        <pt x="427" y="126" on="0"/>
        <pt x="433" y="152" on="1"/>
        <pt x="442" y="192" on="0"/>
        <pt x="442" y="256" on="1"/>
        <pt x="442" y="606" on="1"/>
        <pt x="708" y="606" on="1"/>
        <pt x="708" y="305" on="1"/>
        <pt x="708" y="142" on="0"/>
      </contour>
    </TTGlyph>
    <TTGlyph name="Uacute" xMin="20" yMin="-10" xMax="688" yMax="808">
      <contour>
        <pt x="507" y="-10" on="0"/>
        <pt x="201" y="-10" on="0"/>
        <pt x="20" y="142" on="0"/>
        <pt x="20" y="305" on="1"/>
        <pt x="20" y="606" on="1"/>
        <pt x="286" y="606" on="1"/>
        <pt x="286" y="256" on="1"/>
        <pt x="286" y="192" on="0"/>
        <pt x="295" y="152" on="1"/>
        <pt x="301" y="126" on="0"/>
        <pt x="330" y="101" on="0"/>
        <pt x="378" y="101" on="0"/>
        <pt x="392" y="114" on="1"/>
        <pt x="422" y="139" on="0"/>
        <pt x="422" y="256" on="1"/>
        <pt x="422" y="606" on="1"/>
        <pt x="688" y="606" on="1"/>
        <pt x="688" y="305" on="1"/>
        <pt x="688" y="142" on="0"/>
      </contour>
      <contour>
        <pt x="368" y="771" on="1"/>
        <pt x="391" y="808" on="0"/>
        <pt x="456" y="808" on="0"/>
        <pt x="494" y="771" on="0"/>
        <pt x="494" y="708" on="0"/>
        <pt x="458" y="687" on="1"/>
        <pt x="400" y="653" on="1"/>
        <pt x="296" y="653" on="1"/>
      </contour>
    </TTGlyph>
    <TTGlyph name="Ucircumflex" xMin="20" yMin="-10" xMax="688" yMax="808">
      <contour>
        <pt x="507" y="-10" on="0"/>
        <pt x="201" y="-10" on="0"/>
        <pt x="20" y="142" on="0"/>
        <pt x="20" y="305" on="1"/>
        <pt x="20" y="606" on="1"/>
        <pt x="286" y="606" on="1"/>
        <pt x="286" y="256" on="1"/>
        <pt x="286" y="192" on="0"/>
        <pt x="295" y="152" on="1"/>
        <pt x="301" y="126" on="0"/>
        <pt x="330" y="101" on="0"/>
        <pt x="378" y="101" on="0"/>
        <pt x="392" y="114" on="1"/>
        <pt x="422" y="139" on="0"/>
        <pt x="422" y="256" on="1"/>
        <pt x="422" y="606" on="1"/>
        <pt x="688" y="606" on="1"/>
        <pt x="688" y="305" on="1"/>
        <pt x="688" y="142" on="0"/>
      </contour>
      <contour>
        <pt x="338" y="808" on="1"/>
        <pt x="364" y="808" on="1"/>
        <pt x="397" y="808" on="0"/>
        <pt x="436" y="785" on="0"/>
        <pt x="452" y="759" on="1"/>
        <pt x="517" y="653" on="1"/>
        <pt x="413" y="653" on="1"/>
        <pt x="351" y="715" on="1"/>
        <pt x="289" y="653" on="1"/>
        <pt x="185" y="653" on="1"/>
        <pt x="250" y="759" on="1"/>
        <pt x="266" y="785" on="0"/>
        <pt x="305" y="808" on="0"/>
      </contour>
    </TTGlyph>
    <TTGlyph name="Udieresis" xMin="20" yMin="-10" xMax="688" yMax="798">
      <contour>
        <pt x="507" y="-10" on="0"/>
        <pt x="201" y="-10" on="0"/>
        <pt x="20" y="142" on="0"/>
        <pt x="20" y="305" on="1"/>
        <pt x="20" y="606" on="1"/>
        <pt x="286" y="606" on="1"/>
        <pt x="286" y="256" on="1"/>
        <pt x="286" y="192" on="0"/>
        <pt x="295" y="152" on="1"/>
        <pt x="301" y="126" on="0"/>
        <pt x="330" y="101" on="0"/>
        <pt x="378" y="101" on="0"/>
        <pt x="392" y="114" on="1"/>
        <pt x="422" y="139" on="0"/>
        <pt x="422" y="256" on="1"/>
        <pt x="422" y="606" on="1"/>
        <pt x="688" y="606" on="1"/>
        <pt x="688" y="305" on="1"/>
        <pt x="688" y="142" on="0"/>
      </contour>
      <contour>
        <pt x="410" y="798" on="0"/>
        <pt x="480" y="798" on="0"/>
        <pt x="517" y="759" on="0"/>
        <pt x="517" y="700" on="0"/>
        <pt x="481" y="662" on="0"/>
        <pt x="409" y="662" on="0"/>
        <pt x="374" y="700" on="0"/>
        <pt x="374" y="759" on="0"/>
      </contour>
      <contour>
        <pt x="227" y="798" on="0"/>
        <pt x="297" y="798" on="0"/>
        <pt x="334" y="759" on="0"/>
        <pt x="334" y="700" on="0"/>
        <pt x="298" y="662" on="0"/>
        <pt x="226" y="662" on="0"/>
        <pt x="191" y="700" on="0"/>
        <pt x="191" y="759" on="0"/>
      </contour>
    </TTGlyph>
    <TTGlyph name="Ugrave" xMin="20" yMin="-10" xMax="688" yMax="808">
      <contour>
        <pt x="507" y="-10" on="0"/>
        <pt x="201" y="-10" on="0"/>
        <pt x="20" y="142" on="0"/>
        <pt x="20" y="305" on="1"/>
        <pt x="20" y="606" on="1"/>
        <pt x="286" y="606" on="1"/>
        <pt x="286" y="256" on="1"/>
        <pt x="286" y="139" on="0"/>
        <pt x="316" y="114" on="1"/>
        <pt x="330" y="101" on="0"/>
        <pt x="378" y="101" on="0"/>
        <pt x="407" y="126" on="0"/>
        <pt x="413" y="152" on="1"/>
        <pt x="422" y="192" on="0"/>
        <pt x="422" y="256" on="1"/>
        <pt x="422" y="606" on="1"/>
        <pt x="688" y="606" on="1"/>
        <pt x="688" y="305" on="1"/>
        <pt x="688" y="142" on="0"/>
      </contour>
      <contour>
        <pt x="248" y="687" on="1"/>
        <pt x="212" y="708" on="0"/>
        <pt x="212" y="771" on="0"/>
        <pt x="250" y="808" on="0"/>
        <pt x="315" y="808" on="0"/>
        <pt x="338" y="771" on="1"/>
        <pt x="410" y="653" on="1"/>
        <pt x="306" y="653" on="1"/>
      </contour>
    </TTGlyph>
    <TTGlyph name="V" xMin="0" yMin="0" xMax="663" yMax="606">
      <contour>
        <pt x="483" y="606" on="1"/>
        <pt x="663" y="606" on="1"/>
        <pt x="663" y="488" on="0"/>
        <pt x="618" y="276" on="0"/>
        <pt x="554" y="142" on="0"/>
        <pt x="489" y="43" on="0"/>
        <pt x="466" y="22" on="1"/>
        <pt x="444" y="0" on="1"/>
        <pt x="187" y="0" on="1"/>
        <pt x="0" y="606" on="1"/>
        <pt x="317" y="606" on="1"/>
        <pt x="374" y="212" on="1"/>
        <pt x="444" y="299" on="0"/>
        <pt x="471" y="459" on="1"/>
        <pt x="483" y="529" on="0"/>
      </contour>
    </TTGlyph>
    <TTGlyph name="W" xMin="0" yMin="0" xMax="1054" yMax="606">
      <contour>
        <pt x="873" y="606" on="1"/>
        <pt x="1054" y="606" on="1"/>
        <pt x="1054" y="488" on="0"/>
        <pt x="1007" y="276" on="0"/>
        <pt x="940" y="142" on="0"/>
        <pt x="872" y="43" on="0"/>
        <pt x="848" y="22" on="1"/>
        <pt x="825" y="0" on="1"/>
        <pt x="598" y="0" on="1"/>
        <pt x="523" y="243" on="1"/>
        <pt x="509" y="196" on="0"/>
        <pt x="450" y="75" on="0"/>
        <pt x="427" y="38" on="1"/>
        <pt x="404" y="0" on="1"/>
        <pt x="187" y="0" on="1"/>
        <pt x="0" y="606" on="1"/>
        <pt x="317" y="606" on="1"/>
        <pt x="374" y="212" on="1"/>
        <pt x="389" y="227" on="0"/>
        <pt x="434" y="306" on="0"/>
        <pt x="465" y="389" on="0"/>
        <pt x="492" y="528" on="0"/>
        <pt x="493" y="606" on="1"/>
        <pt x="708" y="606" on="1"/>
        <pt x="765" y="212" on="1"/>
        <pt x="835" y="300" on="0"/>
        <pt x="862" y="458" on="1"/>
        <pt x="873" y="528" on="0"/>
      </contour>
    </TTGlyph>
    <TTGlyph name="X" xMin="10" yMin="0" xMax="661" yMax="606">
      <contour>
        <pt x="190" y="0" on="1"/>
        <pt x="10" y="0" on="1"/>
        <pt x="10" y="206" on="0"/>
        <pt x="178" y="331" on="1"/>
        <pt x="34" y="606" on="1"/>
        <pt x="342" y="606" on="1"/>
        <pt x="420" y="456" on="1"/>
        <pt x="449" y="489" on="0"/>
        <pt x="476" y="554" on="0"/>
        <pt x="476" y="606" on="1"/>
        <pt x="656" y="606" on="1"/>
        <pt x="656" y="500" on="0"/>
        <pt x="570" y="341" on="0"/>
        <pt x="508" y="290" on="1"/>
        <pt x="661" y="0" on="1"/>
        <pt x="353" y="0" on="1"/>
        <pt x="261" y="174" on="1"/>
        <pt x="190" y="98" on="0"/>
      </contour>
    </TTGlyph>
    <TTGlyph name="Y" xMin="-30" yMin="0" xMax="641" yMax="606">
      <contour>
        <pt x="208" y="0" on="1"/>
        <pt x="182" y="259" on="1"/>
        <pt x="-30" y="606" on="1"/>
        <pt x="216" y="606" on="1"/>
        <pt x="306" y="399" on="1"/>
        <pt x="395" y="606" on="1"/>
        <pt x="641" y="606" on="1"/>
        <pt x="429" y="259" on="1"/>
        <pt x="403" y="0" on="1"/>
      </contour>
    </TTGlyph>
    <TTGlyph name="Yacute" xMin="-30" yMin="0" xMax="641" yMax="808">
      <contour>
        <pt x="208" y="0" on="1"/>
        <pt x="182" y="259" on="1"/>
        <pt x="-30" y="606" on="1"/>
        <pt x="216" y="606" on="1"/>
        <pt x="306" y="399" on="1"/>
        <pt x="395" y="606" on="1"/>
        <pt x="641" y="606" on="1"/>
        <pt x="429" y="259" on="1"/>
        <pt x="403" y="0" on="1"/>
      </contour>
      <contour>
        <pt x="330" y="771" on="1"/>
        <pt x="353" y="808" on="0"/>
        <pt x="418" y="808" on="0"/>
        <pt x="456" y="771" on="0"/>
        <pt x="456" y="708" on="0"/>
        <pt x="420" y="687" on="1"/>
        <pt x="362" y="653" on="1"/>
        <pt x="258" y="653" on="1"/>
      </contour>
    </TTGlyph>
    <TTGlyph name="Z" xMin="40" yMin="0" xMax="619" yMax="606">
      <contour>
        <pt x="40" y="0" on="1"/>
        <pt x="40" y="107" on="1"/>
        <pt x="264" y="445" on="1"/>
        <pt x="58" y="398" on="1"/>
        <pt x="78" y="606" on="1"/>
        <pt x="599" y="606" on="1"/>
        <pt x="599" y="497" on="1"/>
        <pt x="306" y="143" on="1"/>
        <pt x="619" y="203" on="1"/>
        <pt x="599" y="0" on="1"/>
      </contour>
    </TTGlyph>
    <TTGlyph name="a" xMin="25" yMin="-10" xMax="570" yMax="488">
      <contour>
        <pt x="201" y="-10" on="1"/>
        <pt x="124" y="-10" on="0"/>
        <pt x="25" y="80" on="0"/>
        <pt x="25" y="245" on="0"/>
        <pt x="137" y="320" on="0"/>
        <pt x="295" y="320" on="0"/>
        <pt x="353" y="295" on="1"/>
        <pt x="340" y="378" on="0"/>
        <pt x="248" y="378" on="1"/>
        <pt x="206" y="378" on="0"/>
        <pt x="144" y="361" on="1"/>
        <pt x="119" y="451" on="1"/>
        <pt x="209" y="488" on="0"/>
        <pt x="302" y="488" on="1"/>
        <pt x="570" y="488" on="0"/>
        <pt x="570" y="260" on="1"/>
        <pt x="570" y="182" on="0"/>
        <pt x="552" y="44" on="1"/>
        <pt x="547" y="0" on="1"/>
        <pt x="382" y="0" on="1"/>
        <pt x="376" y="55" on="1"/>
        <pt x="308" y="-10" on="0"/>
      </contour>
      <contour>
        <pt x="291" y="114" on="1"/>
        <pt x="336" y="114" on="0"/>
        <pt x="368" y="139" on="1"/>
        <pt x="362" y="205" on="1"/>
        <pt x="337" y="222" on="0"/>
        <pt x="276" y="222" on="0"/>
        <pt x="237" y="192" on="0"/>
        <pt x="237" y="148" on="0"/>
        <pt x="267" y="114" on="0"/>
      </contour>
    </TTGlyph>
    <TTGlyph name="aacute" xMin="31" yMin="-10" xMax="576" yMax="674">
      <contour>
        <pt x="207" y="-10" on="1"/>
        <pt x="130" y="-10" on="0"/>
        <pt x="31" y="80" on="0"/>
        <pt x="31" y="245" on="0"/>
        <pt x="143" y="320" on="0"/>
        <pt x="301" y="320" on="0"/>
        <pt x="359" y="295" on="1"/>
        <pt x="346" y="378" on="0"/>
        <pt x="254" y="378" on="1"/>
        <pt x="212" y="378" on="0"/>
        <pt x="150" y="361" on="1"/>
        <pt x="125" y="451" on="1"/>
        <pt x="215" y="488" on="0"/>
        <pt x="308" y="488" on="1"/>
        <pt x="576" y="488" on="0"/>
        <pt x="576" y="260" on="1"/>
        <pt x="576" y="182" on="0"/>
        <pt x="558" y="44" on="1"/>
        <pt x="553" y="0" on="1"/>
        <pt x="388" y="0" on="1"/>
        <pt x="382" y="55" on="1"/>
        <pt x="314" y="-10" on="0"/>
      </contour>
      <contour>
        <pt x="297" y="114" on="1"/>
        <pt x="342" y="114" on="0"/>
        <pt x="374" y="139" on="1"/>
        <pt x="368" y="205" on="1"/>
        <pt x="343" y="222" on="0"/>
        <pt x="282" y="222" on="0"/>
        <pt x="243" y="192" on="0"/>
        <pt x="243" y="148" on="0"/>
        <pt x="273" y="114" on="0"/>
      </contour>
      <contour>
        <pt x="315" y="637" on="1"/>
        <pt x="338" y="674" on="0"/>
        <pt x="403" y="674" on="0"/>
        <pt x="441" y="637" on="0"/>
        <pt x="441" y="574" on="0"/>
        <pt x="405" y="553" on="1"/>
        <pt x="347" y="519" on="1"/>
        <pt x="243" y="519" on="1"/>
      </contour>
    </TTGlyph>
    <TTGlyph name="acircumflex" xMin="31" yMin="-10" xMax="576" yMax="674">
      <contour>
        <pt x="207" y="-10" on="1"/>
        <pt x="130" y="-10" on="0"/>
        <pt x="31" y="80" on="0"/>
        <pt x="31" y="245" on="0"/>
        <pt x="143" y="320" on="0"/>
        <pt x="301" y="320" on="0"/>
        <pt x="359" y="295" on="1"/>
        <pt x="346" y="378" on="0"/>
        <pt x="254" y="378" on="1"/>
        <pt x="212" y="378" on="0"/>
        <pt x="150" y="361" on="1"/>
        <pt x="125" y="451" on="1"/>
        <pt x="215" y="488" on="0"/>
        <pt x="308" y="488" on="1"/>
        <pt x="576" y="488" on="0"/>
        <pt x="576" y="260" on="1"/>
        <pt x="576" y="182" on="0"/>
        <pt x="558" y="44" on="1"/>
        <pt x="553" y="0" on="1"/>
        <pt x="388" y="0" on="1"/>
        <pt x="382" y="55" on="1"/>
        <pt x="314" y="-10" on="0"/>
      </contour>
      <contour>
        <pt x="297" y="114" on="1"/>
        <pt x="342" y="114" on="0"/>
        <pt x="374" y="139" on="1"/>
        <pt x="368" y="205" on="1"/>
        <pt x="343" y="222" on="0"/>
        <pt x="282" y="222" on="0"/>
        <pt x="243" y="192" on="0"/>
        <pt x="243" y="148" on="0"/>
        <pt x="273" y="114" on="0"/>
      </contour>
      <contour>
        <pt x="292" y="674" on="1"/>
        <pt x="318" y="674" on="1"/>
        <pt x="351" y="674" on="0"/>
        <pt x="390" y="651" on="0"/>
        <pt x="406" y="625" on="1"/>
        <pt x="471" y="519" on="1"/>
        <pt x="367" y="519" on="1"/>
        <pt x="305" y="581" on="1"/>
        <pt x="243" y="519" on="1"/>
        <pt x="139" y="519" on="1"/>
        <pt x="204" y="625" on="1"/>
        <pt x="220" y="651" on="0"/>
        <pt x="259" y="674" on="0"/>
      </contour>
    </TTGlyph>
    <TTGlyph name="acute" xMin="77" yMin="663" xMax="275" yMax="818">
      <contour>
        <pt x="149" y="781" on="1"/>
        <pt x="172" y="818" on="0"/>
        <pt x="237" y="818" on="0"/>
        <pt x="275" y="781" on="0"/>
        <pt x="275" y="718" on="0"/>
        <pt x="239" y="697" on="1"/>
        <pt x="181" y="663" on="1"/>
        <pt x="77" y="663" on="1"/>
      </contour>
    </TTGlyph>
    <TTGlyph name="adieresis" xMin="31" yMin="-10" xMax="576" yMax="664">
      <contour>
        <pt x="207" y="-10" on="1"/>
        <pt x="130" y="-10" on="0"/>
        <pt x="31" y="80" on="0"/>
        <pt x="31" y="245" on="0"/>
        <pt x="143" y="320" on="0"/>
        <pt x="301" y="320" on="0"/>
        <pt x="359" y="295" on="1"/>
        <pt x="346" y="378" on="0"/>
        <pt x="254" y="378" on="1"/>
        <pt x="212" y="378" on="0"/>
        <pt x="150" y="361" on="1"/>
        <pt x="125" y="451" on="1"/>
        <pt x="215" y="488" on="0"/>
        <pt x="308" y="488" on="1"/>
        <pt x="576" y="488" on="0"/>
        <pt x="576" y="260" on="1"/>
        <pt x="576" y="182" on="0"/>
        <pt x="558" y="44" on="1"/>
        <pt x="553" y="0" on="1"/>
        <pt x="388" y="0" on="1"/>
        <pt x="382" y="55" on="1"/>
        <pt x="314" y="-10" on="0"/>
      </contour>
      <contour>
        <pt x="297" y="114" on="1"/>
        <pt x="342" y="114" on="0"/>
        <pt x="374" y="139" on="1"/>
        <pt x="368" y="205" on="1"/>
        <pt x="343" y="222" on="0"/>
        <pt x="282" y="222" on="0"/>
        <pt x="243" y="192" on="0"/>
        <pt x="243" y="148" on="0"/>
        <pt x="273" y="114" on="0"/>
      </contour>
      <contour>
        <pt x="384" y="664" on="0"/>
        <pt x="454" y="664" on="0"/>
        <pt x="491" y="625" on="0"/>
        <pt x="491" y="566" on="0"/>
        <pt x="455" y="528" on="0"/>
        <pt x="383" y="528" on="0"/>
        <pt x="348" y="566" on="0"/>
        <pt x="348" y="625" on="0"/>
      </contour>
      <contour>
        <pt x="201" y="664" on="0"/>
        <pt x="271" y="664" on="0"/>
        <pt x="308" y="625" on="0"/>
        <pt x="308" y="566" on="0"/>
        <pt x="272" y="528" on="0"/>
        <pt x="200" y="528" on="0"/>
        <pt x="165" y="566" on="0"/>
        <pt x="165" y="625" on="0"/>
      </contour>
    </TTGlyph>
    <TTGlyph name="ae" xMin="20" yMin="-10" xMax="858" yMax="489">
      <contour>
        <pt x="624" y="489" on="1"/>
        <pt x="738" y="489" on="0"/>
        <pt x="858" y="398" on="0"/>
        <pt x="858" y="318" on="1"/>
        <pt x="858" y="256" on="0"/>
        <pt x="759" y="179" on="0"/>
        <pt x="664" y="179" on="1"/>
        <pt x="625" y="179" on="0"/>
        <pt x="594" y="185" on="1"/>
        <pt x="583" y="187" on="1"/>
        <pt x="589" y="106" on="0"/>
        <pt x="702" y="106" on="1"/>
        <pt x="733" y="106" on="0"/>
        <pt x="786" y="122" on="0"/>
        <pt x="798" y="130" on="1"/>
        <pt x="809" y="137" on="1"/>
        <pt x="853" y="80" on="1"/>
        <pt x="842" y="66" on="0"/>
        <pt x="798" y="32" on="0"/>
        <pt x="774" y="20" on="1"/>
        <pt x="714" y="-9" on="0"/>
        <pt x="631" y="-9" on="1"/>
        <pt x="506" y="-9" on="0"/>
        <pt x="433" y="64" on="1"/>
        <pt x="342" y="-10" on="0"/>
        <pt x="226" y="-10" on="1"/>
        <pt x="138" y="-10" on="0"/>
        <pt x="20" y="77" on="0"/>
        <pt x="20" y="237" on="0"/>
        <pt x="126" y="320" on="0"/>
        <pt x="210" y="320" on="1"/>
        <pt x="257" y="320" on="0"/>
        <pt x="335" y="298" on="0"/>
        <pt x="350" y="289" on="1"/>
        <pt x="365" y="280" on="1"/>
        <pt x="362" y="342" on="0"/>
        <pt x="292" y="387" on="0"/>
        <pt x="228" y="387" on="1"/>
        <pt x="196" y="387" on="0"/>
        <pt x="157" y="380" on="1"/>
        <pt x="144" y="377" on="1"/>
        <pt x="132" y="457" on="1"/>
        <pt x="153" y="464" on="1"/>
        <pt x="174" y="472" on="0"/>
        <pt x="261" y="488" on="0"/>
        <pt x="307" y="488" on="1"/>
        <pt x="413" y="488" on="0"/>
        <pt x="477" y="453" on="1"/>
        <pt x="542" y="489" on="0"/>
      </contour>
      <contour>
        <pt x="232" y="148" on="0"/>
        <pt x="262" y="114" on="0"/>
        <pt x="312" y="114" on="0"/>
        <pt x="355" y="131" on="0"/>
        <pt x="364" y="140" on="1"/>
        <pt x="373" y="148" on="1"/>
        <pt x="369" y="196" on="1"/>
        <pt x="341" y="222" on="0"/>
        <pt x="271" y="222" on="0"/>
        <pt x="232" y="192" on="0"/>
      </contour>
      <contour>
        <pt x="712" y="347" on="0"/>
        <pt x="681" y="373" on="0"/>
        <pt x="627" y="373" on="0"/>
        <pt x="580" y="325" on="0"/>
        <pt x="580" y="292" on="1"/>
        <pt x="602" y="282" on="0"/>
        <pt x="673" y="282" on="0"/>
        <pt x="712" y="307" on="0"/>
      </contour>
    </TTGlyph>
    <TTGlyph name="agrave" xMin="31" yMin="-10" xMax="576" yMax="674">
      <contour>
        <pt x="207" y="-10" on="1"/>
        <pt x="130" y="-10" on="0"/>
        <pt x="31" y="80" on="0"/>
        <pt x="31" y="245" on="0"/>
        <pt x="143" y="320" on="0"/>
        <pt x="301" y="320" on="0"/>
        <pt x="359" y="295" on="1"/>
        <pt x="346" y="378" on="0"/>
        <pt x="254" y="378" on="1"/>
        <pt x="212" y="378" on="0"/>
        <pt x="150" y="361" on="1"/>
        <pt x="125" y="451" on="1"/>
        <pt x="215" y="488" on="0"/>
        <pt x="308" y="488" on="1"/>
        <pt x="576" y="488" on="0"/>
        <pt x="576" y="260" on="1"/>
        <pt x="576" y="182" on="0"/>
        <pt x="558" y="44" on="1"/>
        <pt x="553" y="0" on="1"/>
        <pt x="388" y="0" on="1"/>
        <pt x="382" y="55" on="1"/>
        <pt x="314" y="-10" on="0"/>
      </contour>
      <contour>
        <pt x="297" y="114" on="1"/>
        <pt x="342" y="114" on="0"/>
        <pt x="374" y="139" on="1"/>
        <pt x="368" y="205" on="1"/>
        <pt x="343" y="222" on="0"/>
        <pt x="282" y="222" on="0"/>
        <pt x="243" y="192" on="0"/>
        <pt x="243" y="148" on="0"/>
        <pt x="273" y="114" on="0"/>
      </contour>
      <contour>
        <pt x="221" y="553" on="1"/>
        <pt x="185" y="574" on="0"/>
        <pt x="185" y="637" on="0"/>
        <pt x="223" y="674" on="0"/>
        <pt x="288" y="674" on="0"/>
        <pt x="311" y="637" on="1"/>
        <pt x="383" y="519" on="1"/>
        <pt x="279" y="519" on="1"/>
      </contour>
    </TTGlyph>
    <TTGlyph name="ampersand" xMin="0" yMin="-27" xMax="580" yMax="576">
      <contour>
        <pt x="379" y="40" on="1"/>
        <pt x="315" y="-10" on="0"/>
        <pt x="120" y="-10" on="0"/>
        <pt x="0" y="96" on="0"/>
        <pt x="0" y="168" on="1"/>
        <pt x="0" y="256" on="0"/>
        <pt x="86" y="313" on="1"/>
        <pt x="54" y="369" on="0"/>
        <pt x="54" y="411" on="1"/>
        <pt x="54" y="493" on="0"/>
        <pt x="193" y="576" on="0"/>
        <pt x="383" y="576" on="0"/>
        <pt x="452" y="546" on="1"/>
        <pt x="442" y="441" on="1"/>
        <pt x="414" y="454" on="0"/>
        <pt x="344" y="454" on="0"/>
        <pt x="296" y="417" on="0"/>
        <pt x="296" y="382" on="1"/>
        <pt x="296" y="313" on="0"/>
        <pt x="367" y="229" on="1"/>
        <pt x="375" y="267" on="0"/>
        <pt x="375" y="335" on="0"/>
        <pt x="372" y="362" on="1"/>
        <pt x="511" y="362" on="1"/>
        <pt x="530" y="256" on="1"/>
        <pt x="481" y="256" on="1"/>
        <pt x="475" y="194" on="0"/>
        <pt x="456" y="144" on="1"/>
        <pt x="513" y="99" on="0"/>
        <pt x="580" y="65" on="1"/>
        <pt x="540" y="-27" on="1"/>
        <pt x="471" y="-14" on="0"/>
      </contour>
      <contour>
        <pt x="150" y="145" on="0"/>
        <pt x="190" y="108" on="0"/>
        <pt x="251" y="108" on="0"/>
        <pt x="272" y="114" on="1"/>
        <pt x="217" y="156" on="0"/>
        <pt x="165" y="210" on="1"/>
        <pt x="150" y="194" on="0"/>
      </contour>
    </TTGlyph>
    <TTGlyph name="aring" xMin="31" yMin="-10" xMax="576" yMax="676">
      <contour>
        <pt x="207" y="-10" on="1"/>
        <pt x="130" y="-10" on="0"/>
        <pt x="31" y="80" on="0"/>
        <pt x="31" y="245" on="0"/>
        <pt x="143" y="320" on="0"/>
        <pt x="301" y="320" on="0"/>
        <pt x="359" y="295" on="1"/>
        <pt x="346" y="378" on="0"/>
        <pt x="254" y="378" on="1"/>
        <pt x="212" y="378" on="0"/>
        <pt x="150" y="361" on="1"/>
        <pt x="125" y="451" on="1"/>
        <pt x="215" y="488" on="0"/>
        <pt x="308" y="488" on="1"/>
        <pt x="576" y="488" on="0"/>
        <pt x="576" y="260" on="1"/>
        <pt x="576" y="182" on="0"/>
        <pt x="558" y="44" on="1"/>
        <pt x="553" y="0" on="1"/>
        <pt x="388" y="0" on="1"/>
        <pt x="382" y="55" on="1"/>
        <pt x="314" y="-10" on="0"/>
      </contour>
      <contour>
        <pt x="297" y="114" on="1"/>
        <pt x="342" y="114" on="0"/>
        <pt x="374" y="139" on="1"/>
        <pt x="368" y="205" on="1"/>
        <pt x="343" y="222" on="0"/>
        <pt x="282" y="222" on="0"/>
        <pt x="243" y="192" on="0"/>
        <pt x="243" y="148" on="0"/>
        <pt x="273" y="114" on="0"/>
      </contour>
      <contour>
        <pt x="344" y="509" on="1"/>
        <pt x="334" y="509" on="1"/>
        <pt x="286" y="509" on="0"/>
        <pt x="234" y="546" on="0"/>
        <pt x="234" y="638" on="0"/>
        <pt x="283" y="676" on="0"/>
        <pt x="334" y="676" on="1"/>
        <pt x="344" y="676" on="1"/>
        <pt x="395" y="676" on="0"/>
        <pt x="444" y="638" on="0"/>
        <pt x="444" y="546" on="0"/>
        <pt x="392" y="509" on="0"/>
      </contour>
      <contour>
        <pt x="337" y="571" on="1"/>
        <pt x="341" y="571" on="1"/>
        <pt x="362" y="571" on="0"/>
        <pt x="374" y="583" on="0"/>
        <pt x="374" y="607" on="0"/>
        <pt x="359" y="616" on="0"/>
        <pt x="341" y="616" on="1"/>
        <pt x="337" y="616" on="1"/>
        <pt x="319" y="616" on="0"/>
        <pt x="304" y="607" on="0"/>
        <pt x="304" y="583" on="0"/>
        <pt x="309" y="578" on="1"/>
        <pt x="316" y="571" on="0"/>
      </contour>
    </TTGlyph>
    <TTGlyph name="asciicircum" xMin="30" yMin="269" xMax="462" yMax="534">
      <contour>
        <pt x="187" y="534" on="1"/>
        <pt x="305" y="534" on="1"/>
        <pt x="462" y="269" on="1"/>
        <pt x="344" y="269" on="1"/>
        <pt x="246" y="434" on="1"/>
        <pt x="148" y="269" on="1"/>
        <pt x="30" y="269" on="1"/>
      </contour>
    </TTGlyph>
    <TTGlyph name="asciitilde" xMin="30" yMin="171" xMax="521" yMax="333">
      <contour>
        <pt x="371" y="294" on="1"/>
        <pt x="424" y="294" on="0"/>
        <pt x="447" y="333" on="1"/>
        <pt x="521" y="290" on="1"/>
        <pt x="477" y="171" on="0"/>
        <pt x="372" y="171" on="1"/>
        <pt x="331" y="171" on="0"/>
        <pt x="276" y="190" on="1"/>
        <pt x="275" y="314" on="1"/>
        <pt x="333" y="294" on="0"/>
      </contour>
      <contour>
        <pt x="181" y="210" on="1"/>
        <pt x="127" y="210" on="0"/>
        <pt x="104" y="171" on="1"/>
        <pt x="30" y="213" on="1"/>
        <pt x="74" y="333" on="0"/>
        <pt x="180" y="333" on="1"/>
        <pt x="214" y="333" on="0"/>
        <pt x="275" y="314" on="1"/>
        <pt x="276" y="190" on="1"/>
        <pt x="211" y="210" on="0"/>
      </contour>
    </TTGlyph>
    <TTGlyph name="asterisk" xMin="20" yMin="251" xMax="432" yMax="663">
      <contour>
        <pt x="363" y="494" on="1"/>
        <pt x="389" y="494" on="0"/>
        <pt x="432" y="455" on="0"/>
        <pt x="432" y="382" on="0"/>
        <pt x="390" y="343" on="0"/>
        <pt x="337" y="343" on="0"/>
        <pt x="292" y="374" on="1"/>
        <pt x="263" y="394" on="1"/>
        <pt x="263" y="320" on="1"/>
        <pt x="263" y="294" on="0"/>
        <pt x="224" y="251" on="0"/>
        <pt x="151" y="251" on="0"/>
        <pt x="112" y="293" on="0"/>
        <pt x="112" y="346" on="0"/>
        <pt x="143" y="391" on="1"/>
        <pt x="162" y="419" on="1"/>
        <pt x="89" y="419" on="1"/>
        <pt x="63" y="419" on="0"/>
        <pt x="20" y="458" on="0"/>
        <pt x="20" y="531" on="0"/>
        <pt x="62" y="570" on="0"/>
        <pt x="115" y="570" on="0"/>
        <pt x="160" y="539" on="1"/>
        <pt x="188" y="520" on="1"/>
        <pt x="188" y="594" on="1"/>
        <pt x="188" y="620" on="0"/>
        <pt x="227" y="663" on="0"/>
        <pt x="300" y="663" on="0"/>
        <pt x="339" y="621" on="0"/>
        <pt x="339" y="568" on="0"/>
        <pt x="308" y="523" on="1"/>
        <pt x="288" y="494" on="1"/>
      </contour>
    </TTGlyph>
    <TTGlyph name="at" xMin="50" yMin="-155" xMax="813" yMax="546">
      <contour>
        <pt x="432" y="-155" on="1"/>
        <pt x="244" y="-155" on="0"/>
        <pt x="50" y="49" on="0"/>
        <pt x="50" y="204" on="1"/>
        <pt x="50" y="327" on="0"/>
        <pt x="142" y="432" on="1"/>
        <pt x="186" y="483" on="0"/>
        <pt x="337" y="546" on="0"/>
        <pt x="527" y="546" on="0"/>
        <pt x="679" y="483" on="0"/>
        <pt x="723" y="432" on="1"/>
        <pt x="813" y="326" on="0"/>
        <pt x="813" y="204" on="1"/>
        <pt x="813" y="109" on="0"/>
        <pt x="708" y="-1" on="0"/>
        <pt x="636" y="-1" on="1"/>
        <pt x="548" y="-1" on="0"/>
        <pt x="487" y="76" on="1"/>
        <pt x="481" y="69" on="0"/>
        <pt x="460" y="50" on="0"/>
        <pt x="386" y="17" on="0"/>
        <pt x="285" y="17" on="0"/>
        <pt x="207" y="86" on="0"/>
        <pt x="207" y="205" on="0"/>
        <pt x="291" y="268" on="0"/>
        <pt x="356" y="268" on="1"/>
        <pt x="392" y="268" on="0"/>
        <pt x="451" y="252" on="0"/>
        <pt x="462" y="244" on="1"/>
        <pt x="474" y="237" on="1"/>
        <pt x="471" y="285" on="0"/>
        <pt x="419" y="320" on="0"/>
        <pt x="370" y="320" on="1"/>
        <pt x="344" y="320" on="0"/>
        <pt x="314" y="314" on="1"/>
        <pt x="304" y="312" on="1"/>
        <pt x="294" y="372" on="1"/>
        <pt x="310" y="378" on="1"/>
        <pt x="363" y="398" on="0"/>
        <pt x="430" y="398" on="1"/>
        <pt x="639" y="398" on="0"/>
        <pt x="639" y="223" on="1"/>
        <pt x="639" y="143" on="0"/>
        <pt x="653" y="97" on="0"/>
        <pt x="673" y="97" on="1"/>
        <pt x="703" y="97" on="0"/>
        <pt x="735" y="157" on="0"/>
        <pt x="735" y="248" on="0"/>
        <pt x="698" y="341" on="0"/>
        <pt x="627" y="422" on="0"/>
        <pt x="507" y="472" on="0"/>
        <pt x="358" y="472" on="0"/>
        <pt x="238" y="422" on="0"/>
        <pt x="202" y="382" on="1"/>
        <pt x="130" y="299" on="0"/>
        <pt x="130" y="201" on="1"/>
        <pt x="130" y="78" on="0"/>
        <pt x="284" y="-82" on="0"/>
        <pt x="432" y="-82" on="1"/>
      </contour>
      <contour>
        <pt x="413" y="111" on="1"/>
        <pt x="454" y="111" on="0"/>
        <pt x="478" y="139" on="1"/>
        <pt x="477" y="174" on="1"/>
        <pt x="456" y="195" on="0"/>
        <pt x="403" y="195" on="0"/>
        <pt x="372" y="171" on="0"/>
        <pt x="372" y="138" on="0"/>
        <pt x="396" y="111" on="0"/>
      </contour>
    </TTGlyph>
    <TTGlyph name="atilde" xMin="31" yMin="-10" xMax="576" yMax="671">
      <contour>
        <pt x="207" y="-10" on="1"/>
        <pt x="130" y="-10" on="0"/>
        <pt x="31" y="80" on="0"/>
        <pt x="31" y="245" on="0"/>
        <pt x="143" y="320" on="0"/>
        <pt x="301" y="320" on="0"/>
        <pt x="359" y="295" on="1"/>
        <pt x="346" y="378" on="0"/>
        <pt x="254" y="378" on="1"/>
        <pt x="212" y="378" on="0"/>
        <pt x="150" y="361" on="1"/>
        <pt x="125" y="451" on="1"/>
        <pt x="215" y="488" on="0"/>
        <pt x="308" y="488" on="1"/>
        <pt x="576" y="488" on="0"/>
        <pt x="576" y="260" on="1"/>
        <pt x="576" y="182" on="0"/>
        <pt x="558" y="44" on="1"/>
        <pt x="553" y="0" on="1"/>
        <pt x="388" y="0" on="1"/>
        <pt x="382" y="55" on="1"/>
        <pt x="314" y="-10" on="0"/>
      </contour>
      <contour>
        <pt x="297" y="114" on="1"/>
        <pt x="342" y="114" on="0"/>
        <pt x="374" y="139" on="1"/>
        <pt x="368" y="205" on="1"/>
        <pt x="343" y="222" on="0"/>
        <pt x="282" y="222" on="0"/>
        <pt x="243" y="192" on="0"/>
        <pt x="243" y="148" on="0"/>
        <pt x="273" y="114" on="0"/>
      </contour>
      <contour>
        <pt x="378" y="516" on="1"/>
        <pt x="355" y="516" on="0"/>
        <pt x="318" y="553" on="0"/>
        <pt x="301" y="553" on="0"/>
        <pt x="297" y="550" on="1"/>
        <pt x="239" y="516" on="1"/>
        <pt x="156" y="551" on="1"/>
        <pt x="207" y="634" on="1"/>
        <pt x="230" y="671" on="0"/>
        <pt x="268" y="671" on="1"/>
        <pt x="287" y="671" on="0"/>
        <pt x="316" y="646" on="0"/>
        <pt x="336" y="629" on="0"/>
        <pt x="349" y="637" on="1"/>
        <pt x="407" y="671" on="1"/>
        <pt x="490" y="636" on="1"/>
        <pt x="439" y="553" on="1"/>
        <pt x="416" y="516" on="0"/>
      </contour>
    </TTGlyph>
    <TTGlyph name="b" xMin="30" yMin="-10" xMax="573" yMax="649">
      <contour>
        <pt x="272" y="456" on="0"/>
        <pt x="335" y="488" on="0"/>
        <pt x="406" y="488" on="0"/>
        <pt x="471" y="466" on="0"/>
        <pt x="534" y="417" on="0"/>
        <pt x="573" y="317" on="0"/>
        <pt x="573" y="248" on="1"/>
        <pt x="573" y="122" on="0"/>
        <pt x="459" y="-10" on="0"/>
        <pt x="281" y="-10" on="0"/>
        <pt x="226" y="62" on="1"/>
        <pt x="225" y="64" on="0"/>
        <pt x="224" y="65" on="1"/>
        <pt x="207" y="0" on="1"/>
        <pt x="57" y="0" on="1"/>
        <pt x="30" y="649" on="1"/>
        <pt x="258" y="649" on="1"/>
        <pt x="250" y="430" on="1"/>
        <pt x="254" y="436" on="0"/>
      </contour>
      <contour>
        <pt x="307" y="354" on="1"/>
        <pt x="241" y="354" on="0"/>
        <pt x="241" y="234" on="1"/>
        <pt x="241" y="193" on="0"/>
        <pt x="272" y="128" on="0"/>
        <pt x="330" y="128" on="0"/>
        <pt x="360" y="172" on="0"/>
        <pt x="366" y="212" on="0"/>
        <pt x="366" y="234" on="1"/>
        <pt x="366" y="354" on="0"/>
      </contour>
    </TTGlyph>
    <TTGlyph name="backslash" xMin="0" yMin="-87" xMax="398" yMax="663">
      <contour>
        <pt x="251" y="-87" on="1"/>
        <pt x="0" y="663" on="1"/>
        <pt x="144" y="663" on="1"/>
        <pt x="398" y="-87" on="1"/>
      </contour>
    </TTGlyph>
    <TTGlyph name="bar" xMin="20" yMin="-171" xMax="151" yMax="682">
      <contour>
        <pt x="20" y="-171" on="1"/>
        <pt x="20" y="682" on="1"/>
        <pt x="151" y="682" on="1"/>
        <pt x="151" y="-171" on="1"/>
      </contour>
    </TTGlyph>
    <TTGlyph name="braceleft" xMin="10" yMin="-185" xMax="352" yMax="682">
      <contour>
        <pt x="308" y="-185" on="1"/>
        <pt x="198" y="-185" on="0"/>
        <pt x="147" y="-132" on="1"/>
        <pt x="125" y="-110" on="0"/>
        <pt x="102" y="-27" on="0"/>
        <pt x="97" y="44" on="0"/>
        <pt x="97" y="155" on="0"/>
        <pt x="58" y="185" on="0"/>
        <pt x="10" y="187" on="1"/>
        <pt x="29" y="300" on="1"/>
        <pt x="69" y="301" on="0"/>
        <pt x="97" y="344" on="0"/>
        <pt x="97" y="453" on="0"/>
        <pt x="102" y="524" on="0"/>
        <pt x="125" y="607" on="0"/>
        <pt x="147" y="630" on="1"/>
        <pt x="198" y="682" on="0"/>
        <pt x="308" y="682" on="1"/>
        <pt x="320" y="682" on="0"/>
        <pt x="336" y="680" on="1"/>
        <pt x="352" y="585" on="1"/>
        <pt x="295" y="580" on="0"/>
        <pt x="241" y="529" on="0"/>
        <pt x="241" y="469" on="1"/>
        <pt x="241" y="449" on="0"/>
        <pt x="251" y="387" on="0"/>
        <pt x="251" y="372" on="1"/>
        <pt x="251" y="271" on="0"/>
        <pt x="137" y="249" on="1"/>
        <pt x="251" y="227" on="0"/>
        <pt x="251" y="125" on="1"/>
        <pt x="251" y="110" on="0"/>
        <pt x="241" y="48" on="0"/>
        <pt x="241" y="28" on="1"/>
        <pt x="241" y="-32" on="0"/>
        <pt x="295" y="-83" on="0"/>
        <pt x="352" y="-88" on="1"/>
        <pt x="336" y="-183" on="1"/>
        <pt x="320" y="-185" on="0"/>
      </contour>
    </TTGlyph>
    <TTGlyph name="braceright" xMin="10" yMin="-185" xMax="352" yMax="682">
      <contour>
        <pt x="54" y="682" on="1"/>
        <pt x="164" y="682" on="0"/>
        <pt x="215" y="630" on="1"/>
        <pt x="237" y="607" on="0"/>
        <pt x="260" y="524" on="0"/>
        <pt x="265" y="453" on="0"/>
        <pt x="265" y="342" on="0"/>
        <pt x="304" y="312" on="0"/>
        <pt x="352" y="310" on="1"/>
        <pt x="333" y="197" on="1"/>
        <pt x="293" y="196" on="0"/>
        <pt x="265" y="153" on="0"/>
        <pt x="265" y="44" on="0"/>
        <pt x="260" y="-27" on="0"/>
        <pt x="237" y="-110" on="0"/>
        <pt x="215" y="-132" on="1"/>
        <pt x="164" y="-185" on="0"/>
        <pt x="54" y="-185" on="1"/>
        <pt x="42" y="-185" on="0"/>
        <pt x="26" y="-183" on="1"/>
        <pt x="10" y="-88" on="1"/>
        <pt x="67" y="-83" on="0"/>
        <pt x="121" y="-32" on="0"/>
        <pt x="121" y="28" on="1"/>
        <pt x="121" y="48" on="0"/>
        <pt x="111" y="110" on="0"/>
        <pt x="111" y="125" on="1"/>
        <pt x="111" y="226" on="0"/>
        <pt x="225" y="248" on="1"/>
        <pt x="111" y="270" on="0"/>
        <pt x="111" y="372" on="1"/>
        <pt x="111" y="387" on="0"/>
        <pt x="121" y="449" on="0"/>
        <pt x="121" y="469" on="1"/>
        <pt x="121" y="529" on="0"/>
        <pt x="67" y="580" on="0"/>
        <pt x="10" y="585" on="1"/>
        <pt x="26" y="680" on="1"/>
        <pt x="42" y="682" on="0"/>
      </contour>
    </TTGlyph>
    <TTGlyph name="bracketleft" xMin="30" yMin="-171" xMax="257" yMax="663">
      <contour>
        <pt x="30" y="-171" on="1"/>
        <pt x="30" y="663" on="1"/>
        <pt x="257" y="663" on="1"/>
        <pt x="257" y="549" on="1"/>
        <pt x="173" y="549" on="1"/>
        <pt x="173" y="-57" on="1"/>
        <pt x="257" y="-57" on="1"/>
        <pt x="256" y="-171" on="1"/>
      </contour>
    </TTGlyph>
    <TTGlyph name="bracketright" xMin="30" yMin="-171" xMax="257" yMax="663">
      <contour>
        <pt x="257" y="663" on="1"/>
        <pt x="257" y="-171" on="1"/>
        <pt x="31" y="-171" on="1"/>
        <pt x="31" y="-57" on="1"/>
        <pt x="114" y="-57" on="1"/>
        <pt x="114" y="549" on="1"/>
        <pt x="30" y="549" on="1"/>
        <pt x="31" y="663" on="1"/>
      </contour>
    </TTGlyph>
    <TTGlyph name="brokenbar" xMin="40" yMin="-98" xMax="144" yMax="690">
      <contour>
        <pt x="144" y="345" on="1"/>
        <pt x="40" y="345" on="1"/>
        <pt x="40" y="690" on="1"/>
        <pt x="144" y="690" on="1"/>
      </contour>
      <contour>
        <pt x="144" y="-98" on="1"/>
        <pt x="40" y="-98" on="1"/>
        <pt x="40" y="247" on="1"/>
        <pt x="144" y="247" on="1"/>
      </contour>
    </TTGlyph>
    <TTGlyph name="bullet" xMin="30" yMin="174" xMax="290" yMax="420">
      <contour>
        <pt x="95" y="420" on="0"/>
        <pt x="225" y="420" on="0"/>
        <pt x="290" y="351" on="0"/>
        <pt x="290" y="243" on="0"/>
        <pt x="225" y="174" on="0"/>
        <pt x="95" y="174" on="0"/>
        <pt x="30" y="243" on="0"/>
        <pt x="30" y="351" on="0"/>
      </contour>
    </TTGlyph>
    <TTGlyph name="c" xMin="25" yMin="-10" xMax="489" yMax="488">
      <contour>
        <pt x="489" y="70" on="1"/>
        <pt x="414" y="-10" on="0"/>
        <pt x="163" y="-10" on="0"/>
        <pt x="25" y="125" on="0"/>
        <pt x="25" y="371" on="0"/>
        <pt x="173" y="488" on="0"/>
        <pt x="284" y="488" on="1"/>
        <pt x="331" y="488" on="0"/>
        <pt x="418" y="470" on="0"/>
        <pt x="438" y="460" on="1"/>
        <pt x="458" y="451" on="1"/>
        <pt x="436" y="348" on="1"/>
        <pt x="395" y="360" on="0"/>
        <pt x="308" y="360" on="0"/>
        <pt x="237" y="305" on="0"/>
        <pt x="237" y="248" on="1"/>
        <pt x="237" y="120" on="0"/>
        <pt x="336" y="120" on="1"/>
        <pt x="362" y="120" on="0"/>
        <pt x="410" y="133" on="0"/>
        <pt x="421" y="140" on="1"/>
        <pt x="432" y="146" on="1"/>
      </contour>
    </TTGlyph>
    <TTGlyph name="caron" xMin="50" yMin="519" xMax="382" yMax="674">
      <contour>
        <pt x="229" y="519" on="1"/>
        <pt x="203" y="519" on="1"/>
        <pt x="170" y="519" on="0"/>
        <pt x="131" y="542" on="0"/>
        <pt x="115" y="568" on="1"/>
        <pt x="50" y="674" on="1"/>
        <pt x="154" y="674" on="1"/>
        <pt x="216" y="612" on="1"/>
        <pt x="278" y="674" on="1"/>
        <pt x="382" y="674" on="1"/>
        <pt x="317" y="568" on="1"/>
        <pt x="301" y="542" on="0"/>
        <pt x="262" y="519" on="0"/>
      </contour>
    </TTGlyph>
    <TTGlyph name="ccedilla" xMin="25" yMin="-183" xMax="489" yMax="488">
      <contour>
        <pt x="489" y="70" on="1"/>
        <pt x="414" y="-10" on="0"/>
        <pt x="163" y="-10" on="0"/>
        <pt x="25" y="125" on="0"/>
        <pt x="25" y="371" on="0"/>
        <pt x="173" y="488" on="0"/>
        <pt x="284" y="488" on="1"/>
        <pt x="331" y="488" on="0"/>
        <pt x="418" y="470" on="0"/>
        <pt x="438" y="460" on="1"/>
        <pt x="458" y="451" on="1"/>
        <pt x="436" y="348" on="1"/>
        <pt x="395" y="360" on="0"/>
        <pt x="308" y="360" on="0"/>
        <pt x="237" y="305" on="0"/>
        <pt x="237" y="248" on="1"/>
        <pt x="237" y="120" on="0"/>
        <pt x="336" y="120" on="1"/>
        <pt x="362" y="120" on="0"/>
        <pt x="410" y="133" on="0"/>
        <pt x="421" y="140" on="1"/>
        <pt x="432" y="146" on="1"/>
      </contour>
      <contour>
        <pt x="287" y="-146" on="1"/>
        <pt x="264" y="-183" on="0"/>
        <pt x="199" y="-183" on="0"/>
        <pt x="161" y="-146" on="0"/>
        <pt x="161" y="-83" on="0"/>
        <pt x="197" y="-62" on="1"/>
        <pt x="255" y="-28" on="1"/>
        <pt x="359" y="-28" on="1"/>
      </contour>
    </TTGlyph>
    <TTGlyph name="cedilla" xMin="50" yMin="-183" xMax="248" yMax="-28">
      <contour>
        <pt x="176" y="-146" on="1"/>
        <pt x="153" y="-183" on="0"/>
        <pt x="88" y="-183" on="0"/>
        <pt x="50" y="-146" on="0"/>
        <pt x="50" y="-83" on="0"/>
        <pt x="86" y="-62" on="1"/>
        <pt x="144" y="-28" on="1"/>
        <pt x="248" y="-28" on="1"/>
      </contour>
    </TTGlyph>
    <TTGlyph name="cent" xMin="25" yMin="-78" xMax="489" yMax="546">
      <contour>
        <pt x="454" y="356" on="1"/>
        <pt x="403" y="371" on="0"/>
        <pt x="303" y="371" on="0"/>
        <pt x="238" y="313" on="0"/>
        <pt x="238" y="186" on="0"/>
        <pt x="294" y="116" on="0"/>
        <pt x="393" y="116" on="0"/>
        <pt x="453" y="149" on="1"/>
        <pt x="489" y="90" on="1"/>
        <pt x="427" y="25" on="0"/>
        <pt x="330" y="13" on="1"/>
        <pt x="321" y="-78" on="1"/>
        <pt x="246" y="-78" on="1"/>
        <pt x="232" y="13" on="1"/>
        <pt x="135" y="25" on="0"/>
        <pt x="25" y="144" on="0"/>
        <pt x="25" y="341" on="0"/>
        <pt x="133" y="453" on="0"/>
        <pt x="217" y="471" on="1"/>
        <pt x="206" y="546" on="1"/>
        <pt x="331" y="546" on="1"/>
        <pt x="323" y="476" on="1"/>
        <pt x="399" y="470" on="0"/>
        <pt x="452" y="448" on="1"/>
        <pt x="468" y="441" on="1"/>
      </contour>
    </TTGlyph>
    <TTGlyph name="circumflex" xMin="60" yMin="653" xMax="392" yMax="808">
      <contour>
        <pt x="213" y="808" on="1"/>
        <pt x="239" y="808" on="1"/>
        <pt x="272" y="808" on="0"/>
        <pt x="311" y="785" on="0"/>
        <pt x="327" y="759" on="1"/>
        <pt x="392" y="653" on="1"/>
        <pt x="288" y="653" on="1"/>
        <pt x="226" y="715" on="1"/>
        <pt x="164" y="653" on="1"/>
        <pt x="60" y="653" on="1"/>
        <pt x="125" y="759" on="1"/>
        <pt x="141" y="785" on="0"/>
        <pt x="180" y="808" on="0"/>
      </contour>
    </TTGlyph>
    <TTGlyph name="colon" xMin="19" yMin="-10" xMax="171" yMax="488">
      <contour>
        <pt x="57" y="134" on="0"/>
        <pt x="133" y="134" on="0"/>
        <pt x="171" y="93" on="0"/>
        <pt x="171" y="31" on="0"/>
        <pt x="133" y="-10" on="0"/>
        <pt x="57" y="-10" on="0"/>
        <pt x="19" y="31" on="0"/>
        <pt x="19" y="93" on="0"/>
      </contour>
      <contour>
        <pt x="57" y="488" on="0"/>
        <pt x="133" y="488" on="0"/>
        <pt x="171" y="447" on="0"/>
        <pt x="171" y="385" on="0"/>
        <pt x="133" y="344" on="0"/>
        <pt x="57" y="344" on="0"/>
        <pt x="19" y="385" on="0"/>
        <pt x="19" y="447" on="0"/>
      </contour>
    </TTGlyph>
    <TTGlyph name="comma" xMin="20" yMin="-75" xMax="171" yMax="131">
      <contour>
        <pt x="20" y="-75" on="1"/>
        <pt x="20" y="62" on="1"/>
        <pt x="20" y="88" on="0"/>
        <pt x="59" y="131" on="0"/>
        <pt x="132" y="131" on="0"/>
        <pt x="171" y="89" on="0"/>
        <pt x="171" y="36" on="0"/>
        <pt x="140" y="-9" on="1"/>
        <pt x="95" y="-75" on="1"/>
      </contour>
    </TTGlyph>
    <TTGlyph name="copyright" xMin="15" yMin="128" xMax="570" yMax="646">
      <contour>
        <pt x="513" y="467" on="0"/>
        <pt x="399" y="591" on="0"/>
        <pt x="188" y="591" on="0"/>
        <pt x="73" y="467" on="0"/>
        <pt x="73" y="300" on="0"/>
        <pt x="184" y="182" on="0"/>
        <pt x="402" y="182" on="0"/>
        <pt x="513" y="299" on="0"/>
      </contour>
      <contour>
        <pt x="224" y="646" on="0"/>
        <pt x="362" y="646" on="0"/>
        <pt x="472" y="599" on="0"/>
        <pt x="504" y="562" on="1"/>
        <pt x="570" y="486" on="0"/>
        <pt x="570" y="394" on="1"/>
        <pt x="570" y="278" on="0"/>
        <pt x="431" y="128" on="0"/>
        <pt x="156" y="128" on="0"/>
        <pt x="15" y="278" on="0"/>
        <pt x="15" y="394" on="1"/>
        <pt x="15" y="485" on="0"/>
        <pt x="82" y="562" on="1"/>
        <pt x="114" y="599" on="0"/>
      </contour>
      <contour>
        <pt x="345" y="462" on="1"/>
        <pt x="276" y="462" on="0"/>
        <pt x="276" y="386" on="1"/>
        <pt x="276" y="346" on="0"/>
        <pt x="314" y="307" on="0"/>
        <pt x="374" y="307" on="0"/>
        <pt x="393" y="319" on="1"/>
        <pt x="413" y="281" on="1"/>
        <pt x="368" y="247" on="0"/>
        <pt x="238" y="247" on="0"/>
        <pt x="157" y="317" on="0"/>
        <pt x="157" y="457" on="0"/>
        <pt x="236" y="528" on="0"/>
        <pt x="366" y="528" on="0"/>
        <pt x="412" y="494" on="1"/>
        <pt x="393" y="454" on="1"/>
        <pt x="371" y="462" on="0"/>
      </contour>
    </TTGlyph>
    <TTGlyph name="currency" xMin="33" yMin="-10" xMax="517" yMax="488">
      <contour>
        <pt x="456" y="341" on="1"/>
        <pt x="479" y="298" on="0"/>
        <pt x="479" y="192" on="0"/>
        <pt x="450" y="142" on="1"/>
        <pt x="517" y="63" on="1"/>
        <pt x="424" y="-10" on="1"/>
        <pt x="363" y="62" on="1"/>
        <pt x="320" y="43" on="0"/>
        <pt x="230" y="43" on="0"/>
        <pt x="187" y="62" on="1"/>
        <pt x="126" y="-10" on="1"/>
        <pt x="33" y="63" on="1"/>
        <pt x="100" y="143" on="1"/>
        <pt x="72" y="190" on="0"/>
        <pt x="72" y="298" on="0"/>
        <pt x="95" y="341" on="1"/>
        <pt x="33" y="415" on="1"/>
        <pt x="126" y="488" on="1"/>
        <pt x="178" y="426" on="1"/>
        <pt x="224" y="450" on="0"/>
        <pt x="326" y="450" on="0"/>
        <pt x="371" y="426" on="1"/>
        <pt x="424" y="488" on="1"/>
        <pt x="517" y="415" on="1"/>
      </contour>
      <contour>
        <pt x="201" y="278" on="0"/>
        <pt x="201" y="216" on="0"/>
        <pt x="244" y="173" on="0"/>
        <pt x="306" y="173" on="0"/>
        <pt x="349" y="216" on="0"/>
        <pt x="349" y="278" on="0"/>
        <pt x="306" y="321" on="0"/>
        <pt x="244" y="321" on="0"/>
      </contour>
    </TTGlyph>
    <TTGlyph name="d" xMin="25" yMin="-10" xMax="568" yMax="649">
      <contour>
        <pt x="25" y="248" on="1"/>
        <pt x="25" y="317" on="0"/>
        <pt x="64" y="417" on="0"/>
        <pt x="96" y="442" on="1"/>
        <pt x="155" y="488" on="0"/>
        <pt x="227" y="488" on="1"/>
        <pt x="263" y="488" on="0"/>
        <pt x="324" y="459" on="0"/>
        <pt x="336" y="444" on="1"/>
        <pt x="348" y="430" on="1"/>
        <pt x="340" y="649" on="1"/>
        <pt x="568" y="649" on="1"/>
        <pt x="541" y="0" on="1"/>
        <pt x="391" y="0" on="1"/>
        <pt x="374" y="65" on="1"/>
        <pt x="314" y="-9" on="0"/>
        <pt x="139" y="-10" on="0"/>
        <pt x="25" y="122" on="0"/>
      </contour>
      <contour>
        <pt x="291" y="354" on="1"/>
        <pt x="232" y="354" on="0"/>
        <pt x="232" y="234" on="1"/>
        <pt x="232" y="212" on="0"/>
        <pt x="238" y="172" on="0"/>
        <pt x="268" y="128" on="0"/>
        <pt x="326" y="128" on="0"/>
        <pt x="357" y="193" on="0"/>
        <pt x="357" y="234" on="1"/>
        <pt x="357" y="354" on="0"/>
      </contour>
    </TTGlyph>
    <TTGlyph name="degree" xMin="20" yMin="474" xMax="390" yMax="819">
      <contour>
        <pt x="20" y="715" on="0"/>
        <pt x="115" y="819" on="0"/>
        <pt x="294" y="819" on="0"/>
        <pt x="390" y="715" on="0"/>
        <pt x="390" y="573" on="0"/>
        <pt x="296" y="474" on="0"/>
        <pt x="113" y="474" on="0"/>
        <pt x="20" y="573" on="0"/>
      </contour>
      <contour>
        <pt x="270" y="670" on="0"/>
        <pt x="236" y="707" on="0"/>
        <pt x="173" y="707" on="0"/>
        <pt x="139" y="670" on="0"/>
        <pt x="139" y="620" on="0"/>
        <pt x="172" y="585" on="0"/>
        <pt x="237" y="585" on="0"/>
        <pt x="270" y="620" on="0"/>
      </contour>
    </TTGlyph>
    <TTGlyph name="dieresis" xMin="20" yMin="648" xMax="346" yMax="784">
      <contour>
        <pt x="239" y="784" on="0"/>
        <pt x="309" y="784" on="0"/>
        <pt x="346" y="745" on="0"/>
        <pt x="346" y="686" on="0"/>
        <pt x="310" y="648" on="0"/>
        <pt x="238" y="648" on="0"/>
        <pt x="203" y="686" on="0"/>
        <pt x="203" y="745" on="0"/>
      </contour>
      <contour>
        <pt x="56" y="784" on="0"/>
        <pt x="126" y="784" on="0"/>
        <pt x="163" y="745" on="0"/>
        <pt x="163" y="686" on="0"/>
        <pt x="127" y="648" on="0"/>
        <pt x="55" y="648" on="0"/>
        <pt x="20" y="686" on="0"/>
        <pt x="20" y="745" on="0"/>
      </contour>
    </TTGlyph>
    <TTGlyph name="divide" xMin="30" yMin="58" xMax="385" yMax="538">
      <contour>
        <pt x="30" y="247" on="1"/>
        <pt x="30" y="345" on="1"/>
        <pt x="385" y="345" on="1"/>
        <pt x="385" y="247" on="1"/>
      </contour>
      <contour>
        <pt x="170" y="202" on="0"/>
        <pt x="246" y="202" on="0"/>
        <pt x="284" y="161" on="0"/>
        <pt x="284" y="99" on="0"/>
        <pt x="246" y="58" on="0"/>
        <pt x="170" y="58" on="0"/>
        <pt x="132" y="99" on="0"/>
        <pt x="132" y="161" on="0"/>
      </contour>
      <contour>
        <pt x="170" y="538" on="0"/>
        <pt x="246" y="538" on="0"/>
        <pt x="284" y="497" on="0"/>
        <pt x="284" y="435" on="0"/>
        <pt x="246" y="394" on="0"/>
        <pt x="170" y="394" on="0"/>
        <pt x="132" y="435" on="0"/>
        <pt x="132" y="497" on="0"/>
      </contour>
    </TTGlyph>
    <TTGlyph name="dollar" xMin="15" yMin="-70" xMax="494" yMax="619">
      <contour>
        <pt x="269" y="131" on="1"/>
        <pt x="269" y="150" on="0"/>
        <pt x="217" y="181" on="0"/>
        <pt x="143" y="212" on="0"/>
        <pt x="69" y="253" on="0"/>
        <pt x="17" y="331" on="0"/>
        <pt x="17" y="384" on="1"/>
        <pt x="17" y="463" on="0"/>
        <pt x="125" y="553" on="0"/>
        <pt x="207" y="563" on="1"/>
        <pt x="207" y="619" on="1"/>
        <pt x="302" y="619" on="1"/>
        <pt x="302" y="563" on="1"/>
        <pt x="346" y="559" on="0"/>
        <pt x="424" y="535" on="0"/>
        <pt x="440" y="525" on="1"/>
        <pt x="457" y="515" on="1"/>
        <pt x="420" y="434" on="1"/>
        <pt x="344" y="466" on="0"/>
        <pt x="236" y="466" on="0"/>
        <pt x="236" y="429" on="1"/>
        <pt x="236" y="407" on="0"/>
        <pt x="259" y="394" on="1"/>
        <pt x="274" y="385" on="0"/>
        <pt x="349" y="354" on="0"/>
        <pt x="371" y="344" on="1"/>
        <pt x="427" y="317" on="0"/>
        <pt x="494" y="245" on="0"/>
        <pt x="494" y="190" on="1"/>
        <pt x="494" y="104" on="0"/>
        <pt x="376" y="4" on="0"/>
        <pt x="290" y="-7" on="1"/>
        <pt x="290" y="-70" on="1"/>
        <pt x="197" y="-70" on="1"/>
        <pt x="197" y="-7" on="1"/>
        <pt x="148" y="-1" on="0"/>
        <pt x="57" y="33" on="0"/>
        <pt x="36" y="48" on="1"/>
        <pt x="15" y="62" on="1"/>
        <pt x="56" y="144" on="1"/>
        <pt x="140" y="94" on="0"/>
        <pt x="219" y="94" on="1"/>
        <pt x="269" y="94" on="0"/>
      </contour>
    </TTGlyph>
    <TTGlyph name="dotlessi" xMin="20" yMin="0" xMax="275" yMax="466">
      <contour>
        <pt x="258" y="460" on="1"/>
        <pt x="275" y="466" on="1"/>
        <pt x="241" y="0" on="1"/>
        <pt x="52" y="0" on="1"/>
        <pt x="20" y="466" on="1"/>
        <pt x="77" y="443" on="0"/>
        <pt x="206" y="443" on="0"/>
      </contour>
    </TTGlyph>
    <TTGlyph name="e" xMin="25" yMin="-10" xMax="518" yMax="488">
      <contour>
        <pt x="291" y="-10" on="1"/>
        <pt x="178" y="-10" on="0"/>
        <pt x="25" y="121" on="0"/>
        <pt x="25" y="248" on="1"/>
        <pt x="25" y="328" on="0"/>
        <pt x="64" y="384" on="1"/>
        <pt x="135" y="488" on="0"/>
        <pt x="284" y="488" on="1"/>
        <pt x="398" y="488" on="0"/>
        <pt x="518" y="397" on="0"/>
        <pt x="518" y="317" on="1"/>
        <pt x="518" y="255" on="0"/>
        <pt x="419" y="178" on="0"/>
        <pt x="324" y="178" on="1"/>
        <pt x="285" y="178" on="0"/>
        <pt x="254" y="184" on="1"/>
        <pt x="243" y="186" on="1"/>
        <pt x="248" y="150" on="0"/>
        <pt x="301" y="115" on="0"/>
        <pt x="338" y="115" on="1"/>
        <pt x="399" y="115" on="0"/>
        <pt x="442" y="152" on="1"/>
        <pt x="504" y="77" on="1"/>
        <pt x="488" y="58" on="0"/>
        <pt x="444" y="25" on="0"/>
        <pt x="348" y="-10" on="0"/>
      </contour>
      <contour>
        <pt x="372" y="346" on="0"/>
        <pt x="341" y="372" on="0"/>
        <pt x="287" y="372" on="0"/>
        <pt x="240" y="324" on="0"/>
        <pt x="240" y="291" on="1"/>
        <pt x="262" y="281" on="0"/>
        <pt x="333" y="281" on="0"/>
        <pt x="372" y="306" on="0"/>
      </contour>
    </TTGlyph>
    <TTGlyph name="eacute" xMin="25" yMin="-10" xMax="518" yMax="674">
      <contour>
        <pt x="338" y="115" on="1"/>
        <pt x="399" y="115" on="0"/>
        <pt x="442" y="152" on="1"/>
        <pt x="504" y="77" on="1"/>
        <pt x="488" y="58" on="0"/>
        <pt x="444" y="25" on="0"/>
        <pt x="348" y="-10" on="0"/>
        <pt x="291" y="-10" on="1"/>
        <pt x="178" y="-10" on="0"/>
        <pt x="25" y="121" on="0"/>
        <pt x="25" y="248" on="1"/>
        <pt x="25" y="328" on="0"/>
        <pt x="64" y="384" on="1"/>
        <pt x="135" y="488" on="0"/>
        <pt x="284" y="488" on="1"/>
        <pt x="398" y="488" on="0"/>
        <pt x="518" y="397" on="0"/>
        <pt x="518" y="317" on="1"/>
        <pt x="518" y="255" on="0"/>
        <pt x="419" y="178" on="0"/>
        <pt x="324" y="178" on="1"/>
        <pt x="281" y="178" on="0"/>
        <pt x="243" y="186" on="1"/>
        <pt x="248" y="150" on="0"/>
        <pt x="301" y="115" on="0"/>
      </contour>
      <contour>
        <pt x="333" y="281" on="0"/>
        <pt x="372" y="306" on="0"/>
        <pt x="372" y="346" on="0"/>
        <pt x="341" y="372" on="0"/>
        <pt x="287" y="372" on="0"/>
        <pt x="240" y="324" on="0"/>
        <pt x="240" y="291" on="1"/>
        <pt x="266" y="281" on="0"/>
      </contour>
      <contour>
        <pt x="303" y="637" on="1"/>
        <pt x="326" y="674" on="0"/>
        <pt x="391" y="674" on="0"/>
        <pt x="429" y="637" on="0"/>
        <pt x="429" y="574" on="0"/>
        <pt x="393" y="553" on="1"/>
        <pt x="335" y="519" on="1"/>
        <pt x="231" y="519" on="1"/>
      </contour>
    </TTGlyph>
    <TTGlyph name="ecircumflex" xMin="25" yMin="-10" xMax="518" yMax="674">
      <contour>
        <pt x="338" y="115" on="1"/>
        <pt x="399" y="115" on="0"/>
        <pt x="442" y="152" on="1"/>
        <pt x="504" y="77" on="1"/>
        <pt x="488" y="58" on="0"/>
        <pt x="444" y="25" on="0"/>
        <pt x="348" y="-10" on="0"/>
        <pt x="291" y="-10" on="1"/>
        <pt x="178" y="-10" on="0"/>
        <pt x="25" y="121" on="0"/>
        <pt x="25" y="248" on="1"/>
        <pt x="25" y="328" on="0"/>
        <pt x="64" y="384" on="1"/>
        <pt x="135" y="488" on="0"/>
        <pt x="284" y="488" on="1"/>
        <pt x="398" y="488" on="0"/>
        <pt x="518" y="397" on="0"/>
        <pt x="518" y="317" on="1"/>
        <pt x="518" y="255" on="0"/>
        <pt x="419" y="178" on="0"/>
        <pt x="324" y="178" on="1"/>
        <pt x="281" y="178" on="0"/>
        <pt x="243" y="186" on="1"/>
        <pt x="248" y="150" on="0"/>
        <pt x="301" y="115" on="0"/>
      </contour>
      <contour>
        <pt x="333" y="281" on="0"/>
        <pt x="372" y="306" on="0"/>
        <pt x="372" y="346" on="0"/>
        <pt x="341" y="372" on="0"/>
        <pt x="287" y="372" on="0"/>
        <pt x="240" y="324" on="0"/>
        <pt x="240" y="291" on="1"/>
        <pt x="266" y="281" on="0"/>
      </contour>
      <contour>
        <pt x="267" y="674" on="1"/>
        <pt x="293" y="674" on="1"/>
        <pt x="326" y="674" on="0"/>
        <pt x="365" y="651" on="0"/>
        <pt x="381" y="625" on="1"/>
        <pt x="446" y="519" on="1"/>
        <pt x="342" y="519" on="1"/>
        <pt x="280" y="581" on="1"/>
        <pt x="218" y="519" on="1"/>
        <pt x="114" y="519" on="1"/>
        <pt x="179" y="625" on="1"/>
        <pt x="195" y="651" on="0"/>
        <pt x="234" y="674" on="0"/>
      </contour>
    </TTGlyph>
    <TTGlyph name="edieresis" xMin="25" yMin="-10" xMax="518" yMax="664">
      <contour>
        <pt x="338" y="115" on="1"/>
        <pt x="399" y="115" on="0"/>
        <pt x="442" y="152" on="1"/>
        <pt x="504" y="77" on="1"/>
        <pt x="488" y="58" on="0"/>
        <pt x="444" y="25" on="0"/>
        <pt x="348" y="-10" on="0"/>
        <pt x="291" y="-10" on="1"/>
        <pt x="178" y="-10" on="0"/>
        <pt x="25" y="121" on="0"/>
        <pt x="25" y="248" on="1"/>
        <pt x="25" y="328" on="0"/>
        <pt x="64" y="384" on="1"/>
        <pt x="135" y="488" on="0"/>
        <pt x="284" y="488" on="1"/>
        <pt x="398" y="488" on="0"/>
        <pt x="518" y="397" on="0"/>
        <pt x="518" y="317" on="1"/>
        <pt x="518" y="255" on="0"/>
        <pt x="419" y="178" on="0"/>
        <pt x="324" y="178" on="1"/>
        <pt x="281" y="178" on="0"/>
        <pt x="243" y="186" on="1"/>
        <pt x="248" y="150" on="0"/>
        <pt x="301" y="115" on="0"/>
      </contour>
      <contour>
        <pt x="333" y="281" on="0"/>
        <pt x="372" y="306" on="0"/>
        <pt x="372" y="346" on="0"/>
        <pt x="341" y="372" on="0"/>
        <pt x="287" y="372" on="0"/>
        <pt x="240" y="324" on="0"/>
        <pt x="240" y="291" on="1"/>
        <pt x="266" y="281" on="0"/>
      </contour>
      <contour>
        <pt x="338" y="664" on="0"/>
        <pt x="408" y="664" on="0"/>
        <pt x="445" y="625" on="0"/>
        <pt x="445" y="566" on="0"/>
        <pt x="409" y="528" on="0"/>
        <pt x="337" y="528" on="0"/>
        <pt x="302" y="566" on="0"/>
        <pt x="302" y="625" on="0"/>
      </contour>
      <contour>
        <pt x="155" y="664" on="0"/>
        <pt x="225" y="664" on="0"/>
        <pt x="262" y="625" on="0"/>
        <pt x="262" y="566" on="0"/>
        <pt x="226" y="528" on="0"/>
        <pt x="154" y="528" on="0"/>
        <pt x="119" y="566" on="0"/>
        <pt x="119" y="625" on="0"/>
      </contour>
    </TTGlyph>
    <TTGlyph name="egrave" xMin="25" yMin="-10" xMax="518" yMax="674">
      <contour>
        <pt x="291" y="-10" on="1"/>
        <pt x="178" y="-10" on="0"/>
        <pt x="25" y="121" on="0"/>
        <pt x="25" y="248" on="1"/>
        <pt x="25" y="328" on="0"/>
        <pt x="64" y="384" on="1"/>
        <pt x="135" y="488" on="0"/>
        <pt x="284" y="488" on="1"/>
        <pt x="398" y="488" on="0"/>
        <pt x="518" y="397" on="0"/>
        <pt x="518" y="317" on="1"/>
        <pt x="518" y="255" on="0"/>
        <pt x="419" y="178" on="0"/>
        <pt x="324" y="178" on="1"/>
        <pt x="285" y="178" on="0"/>
        <pt x="254" y="184" on="1"/>
        <pt x="243" y="186" on="1"/>
        <pt x="248" y="150" on="0"/>
        <pt x="301" y="115" on="0"/>
        <pt x="338" y="115" on="1"/>
        <pt x="399" y="115" on="0"/>
        <pt x="442" y="152" on="1"/>
        <pt x="504" y="77" on="1"/>
        <pt x="488" y="58" on="0"/>
        <pt x="444" y="25" on="0"/>
        <pt x="348" y="-10" on="0"/>
      </contour>
      <contour>
        <pt x="372" y="346" on="0"/>
        <pt x="341" y="372" on="0"/>
        <pt x="287" y="372" on="0"/>
        <pt x="240" y="324" on="0"/>
        <pt x="240" y="291" on="1"/>
        <pt x="262" y="281" on="0"/>
        <pt x="333" y="281" on="0"/>
        <pt x="372" y="306" on="0"/>
      </contour>
      <contour>
        <pt x="206" y="553" on="1"/>
        <pt x="170" y="574" on="0"/>
        <pt x="170" y="637" on="0"/>
        <pt x="208" y="674" on="0"/>
        <pt x="273" y="674" on="0"/>
        <pt x="296" y="637" on="1"/>
        <pt x="368" y="519" on="1"/>
        <pt x="264" y="519" on="1"/>
      </contour>
    </TTGlyph>
    <TTGlyph name="eight" xMin="28" yMin="-10" xMax="575" yMax="620">
      <contour>
        <pt x="153" y="305" on="1"/>
        <pt x="55" y="388" on="0"/>
        <pt x="55" y="538" on="0"/>
        <pt x="186" y="620" on="0"/>
        <pt x="427" y="620" on="0"/>
        <pt x="553" y="547" on="0"/>
        <pt x="553" y="481" on="1"/>
        <pt x="553" y="439" on="0"/>
        <pt x="505" y="372" on="0"/>
        <pt x="451" y="339" on="1"/>
        <pt x="575" y="261" on="0"/>
        <pt x="575" y="89" on="0"/>
        <pt x="422" y="-10" on="0"/>
        <pt x="169" y="-10" on="0"/>
        <pt x="28" y="73" on="0"/>
        <pt x="28" y="242" on="0"/>
      </contour>
      <contour>
        <pt x="174" y="167" on="1"/>
        <pt x="174" y="141" on="0"/>
        <pt x="214" y="108" on="0"/>
        <pt x="270" y="108" on="0"/>
        <pt x="303" y="142" on="0"/>
        <pt x="303" y="181" on="0"/>
        <pt x="273" y="212" on="0"/>
        <pt x="239" y="236" on="1"/>
        <pt x="174" y="201" on="0"/>
      </contour>
      <contour>
        <pt x="410" y="457" on="1"/>
        <pt x="410" y="503" on="0"/>
        <pt x="357" y="503" on="1"/>
        <pt x="331" y="503" on="0"/>
        <pt x="303" y="477" on="0"/>
        <pt x="303" y="432" on="0"/>
        <pt x="354" y="396" on="1"/>
        <pt x="410" y="424" on="0"/>
      </contour>
    </TTGlyph>
    <TTGlyph name="emdash" xMin="0" yMin="247" xMax="826" yMax="345">
      <contour>
        <pt x="0" y="247" on="1"/>
        <pt x="0" y="345" on="1"/>
        <pt x="826" y="345" on="1"/>
        <pt x="826" y="247" on="1"/>
      </contour>
    </TTGlyph>
    <TTGlyph name="endash" xMin="0" yMin="247" xMax="415" yMax="345">
      <contour>
        <pt x="0" y="247" on="1"/>
        <pt x="0" y="345" on="1"/>
        <pt x="415" y="345" on="1"/>
        <pt x="415" y="247" on="1"/>
      </contour>
    </TTGlyph>
    <TTGlyph name="equal" xMin="50" yMin="165" xMax="405" yMax="427">
      <contour>
        <pt x="50" y="165" on="1"/>
        <pt x="50" y="263" on="1"/>
        <pt x="405" y="263" on="1"/>
        <pt x="405" y="165" on="1"/>
      </contour>
      <contour>
        <pt x="50" y="329" on="1"/>
        <pt x="50" y="427" on="1"/>
        <pt x="405" y="427" on="1"/>
        <pt x="405" y="329" on="1"/>
      </contour>
    </TTGlyph>
    <TTGlyph name="eth" xMin="25" yMin="-10" xMax="567" yMax="761">
      <contour>
        <pt x="483" y="570" on="0"/>
        <pt x="567" y="379" on="0"/>
        <pt x="567" y="207" on="0"/>
        <pt x="510" y="75" on="0"/>
        <pt x="385" y="-10" on="0"/>
        <pt x="296" y="-10" on="1"/>
        <pt x="172" y="-10" on="0"/>
        <pt x="25" y="106" on="0"/>
        <pt x="25" y="345" on="0"/>
        <pt x="170" y="470" on="0"/>
        <pt x="268" y="470" on="1"/>
        <pt x="321" y="470" on="0"/>
        <pt x="365" y="448" on="1"/>
        <pt x="358" y="514" on="0"/>
        <pt x="317" y="566" on="1"/>
        <pt x="250" y="512" on="1"/>
        <pt x="193" y="585" on="1"/>
        <pt x="245" y="627" on="1"/>
        <pt x="205" y="651" on="0"/>
        <pt x="172" y="658" on="1"/>
        <pt x="161" y="661" on="1"/>
        <pt x="176" y="742" on="1"/>
        <pt x="256" y="732" on="0"/>
        <pt x="328" y="693" on="1"/>
        <pt x="413" y="761" on="1"/>
        <pt x="471" y="689" on="1"/>
        <pt x="407" y="637" on="1"/>
      </contour>
      <contour>
        <pt x="369" y="356" on="1"/>
        <pt x="341" y="371" on="0"/>
        <pt x="272" y="371" on="0"/>
        <pt x="229" y="299" on="0"/>
        <pt x="229" y="228" on="1"/>
        <pt x="229" y="75" on="0"/>
        <pt x="296" y="75" on="1"/>
        <pt x="327" y="75" on="0"/>
        <pt x="373" y="189" on="0"/>
        <pt x="373" y="280" on="1"/>
        <pt x="373" y="320" on="0"/>
      </contour>
    </TTGlyph>
    <TTGlyph name="exclam" xMin="31" yMin="-10" xMax="259" yMax="606">
      <contour>
        <pt x="198" y="185" on="0"/>
        <pt x="92" y="185" on="0"/>
        <pt x="58" y="163" on="1"/>
        <pt x="31" y="606" on="1"/>
        <pt x="259" y="606" on="1"/>
        <pt x="232" y="163" on="1"/>
      </contour>
      <contour>
        <pt x="107" y="134" on="0"/>
        <pt x="183" y="134" on="0"/>
        <pt x="221" y="93" on="0"/>
        <pt x="221" y="31" on="0"/>
        <pt x="183" y="-10" on="0"/>
        <pt x="107" y="-10" on="0"/>
        <pt x="69" y="31" on="0"/>
        <pt x="69" y="93" on="0"/>
      </contour>
    </TTGlyph>
    <TTGlyph name="exclamdown" xMin="21" yMin="-128" xMax="249" yMax="488">
      <contour>
        <pt x="82" y="293" on="0"/>
        <pt x="188" y="293" on="0"/>
        <pt x="222" y="315" on="1"/>
        <pt x="249" y="-128" on="1"/>
        <pt x="21" y="-128" on="1"/>
        <pt x="48" y="315" on="1"/>
      </contour>
      <contour>
        <pt x="173" y="344" on="0"/>
        <pt x="97" y="344" on="0"/>
        <pt x="59" y="385" on="0"/>
        <pt x="59" y="447" on="0"/>
        <pt x="97" y="488" on="0"/>
        <pt x="173" y="488" on="0"/>
        <pt x="211" y="447" on="0"/>
        <pt x="211" y="385" on="0"/>
      </contour>
    </TTGlyph>
    <TTGlyph name="f" xMin="20" yMin="0" xMax="370" yMax="663">
      <contour>
        <pt x="80" y="474" on="1"/>
        <pt x="80" y="566" on="0"/>
        <pt x="167" y="663" on="0"/>
        <pt x="271" y="663" on="1"/>
        <pt x="317" y="663" on="0"/>
        <pt x="359" y="650" on="1"/>
        <pt x="370" y="553" on="1"/>
        <pt x="355" y="557" on="0"/>
        <pt x="340" y="557" on="1"/>
        <pt x="291" y="557" on="0"/>
        <pt x="291" y="487" on="1"/>
        <pt x="291" y="474" on="1"/>
        <pt x="352" y="474" on="1"/>
        <pt x="364" y="344" on="1"/>
        <pt x="297" y="344" on="1"/>
        <pt x="282" y="0" on="1"/>
        <pt x="98" y="0" on="1"/>
        <pt x="83" y="344" on="1"/>
        <pt x="20" y="344" on="1"/>
        <pt x="32" y="474" on="1"/>
      </contour>
    </TTGlyph>
    <TTGlyph name="five" xMin="30" yMin="-10" xMax="506" yMax="606">
      <contour>
        <pt x="506" y="213" on="1"/>
        <pt x="506" y="112" on="0"/>
        <pt x="349" y="-10" on="0"/>
        <pt x="241" y="-10" on="1"/>
        <pt x="187" y="-10" on="0"/>
        <pt x="81" y="26" on="0"/>
        <pt x="56" y="44" on="1"/>
        <pt x="30" y="62" on="1"/>
        <pt x="78" y="160" on="1"/>
        <pt x="129" y="137" on="0"/>
        <pt x="205" y="137" on="0"/>
        <pt x="248" y="180" on="0"/>
        <pt x="248" y="253" on="0"/>
        <pt x="207" y="303" on="0"/>
        <pt x="178" y="316" on="1"/>
        <pt x="119" y="345" on="0"/>
        <pt x="72" y="350" on="1"/>
        <pt x="51" y="353" on="1"/>
        <pt x="124" y="606" on="1"/>
        <pt x="503" y="606" on="1"/>
        <pt x="471" y="495" on="1"/>
        <pt x="318" y="441" on="1"/>
        <pt x="318" y="430" on="1"/>
        <pt x="403" y="403" on="0"/>
        <pt x="454" y="348" on="1"/>
        <pt x="475" y="326" on="0"/>
        <pt x="506" y="254" on="0"/>
      </contour>
    </TTGlyph>
    <TTGlyph name="four" xMin="20" yMin="0" xMax="572" yMax="606">
      <contour>
        <pt x="170" y="606" on="1"/>
        <pt x="539" y="606" on="1"/>
        <pt x="508" y="295" on="1"/>
        <pt x="572" y="295" on="1"/>
        <pt x="554" y="152" on="1"/>
        <pt x="493" y="152" on="1"/>
        <pt x="478" y="0" on="1"/>
        <pt x="304" y="0" on="1"/>
        <pt x="289" y="152" on="1"/>
        <pt x="20" y="152" on="1"/>
        <pt x="28" y="295" on="1"/>
      </contour>
      <contour>
        <pt x="258" y="462" on="1"/>
        <pt x="180" y="295" on="1"/>
        <pt x="274" y="295" on="1"/>
      </contour>
    </TTGlyph>
    <TTGlyph name="g" xMin="25" yMin="-185" xMax="587" yMax="488">
      <contour>
        <pt x="316" y="-185" on="1"/>
        <pt x="267" y="-185" on="0"/>
        <pt x="173" y="-156" on="0"/>
        <pt x="151" y="-142" on="1"/>
        <pt x="129" y="-127" on="1"/>
        <pt x="173" y="-37" on="1"/>
        <pt x="216" y="-58" on="0"/>
        <pt x="253" y="-58" on="1"/>
        <pt x="321" y="-58" on="0"/>
        <pt x="385" y="28" on="0"/>
        <pt x="385" y="84" on="1"/>
        <pt x="385" y="94" on="0"/>
        <pt x="384" y="104" on="1"/>
        <pt x="337" y="10" on="0"/>
        <pt x="230" y="10" on="1"/>
        <pt x="136" y="10" on="0"/>
        <pt x="25" y="124" on="0"/>
        <pt x="25" y="248" on="1"/>
        <pt x="25" y="317" on="0"/>
        <pt x="64" y="417" on="0"/>
        <pt x="96" y="442" on="1"/>
        <pt x="155" y="488" on="0"/>
        <pt x="227" y="488" on="1"/>
        <pt x="277" y="488" on="0"/>
        <pt x="312" y="464" on="1"/>
        <pt x="341" y="443" on="0"/>
        <pt x="361" y="418" on="1"/>
        <pt x="355" y="474" on="1"/>
        <pt x="587" y="474" on="1"/>
        <pt x="570" y="85" on="1"/>
        <pt x="557" y="-185" on="0"/>
      </contour>
      <contour>
        <pt x="291" y="353" on="1"/>
        <pt x="232" y="353" on="0"/>
        <pt x="232" y="243" on="1"/>
        <pt x="232" y="223" on="0"/>
        <pt x="239" y="185" on="0"/>
        <pt x="270" y="147" on="0"/>
        <pt x="328" y="147" on="0"/>
        <pt x="357" y="203" on="0"/>
        <pt x="357" y="243" on="1"/>
        <pt x="357" y="353" on="0"/>
      </contour>
    </TTGlyph>
    <TTGlyph name="germandbls" xMin="25" yMin="-10" xMax="755" yMax="649">
      <contour>
        <pt x="336" y="158" on="1"/>
        <pt x="384" y="131" on="0"/>
        <pt x="475" y="131" on="0"/>
        <pt x="521" y="180" on="0"/>
        <pt x="521" y="250" on="0"/>
        <pt x="484" y="296" on="0"/>
        <pt x="462" y="307" on="1"/>
        <pt x="404" y="337" on="0"/>
        <pt x="404" y="374" on="1"/>
        <pt x="404" y="398" on="0"/>
        <pt x="444" y="446" on="0"/>
        <pt x="444" y="506" on="0"/>
        <pt x="408" y="539" on="0"/>
        <pt x="377" y="539" on="1"/>
        <pt x="328" y="539" on="0"/>
        <pt x="295" y="460" on="0"/>
        <pt x="285" y="364" on="1"/>
        <pt x="247" y="0" on="1"/>
        <pt x="58" y="0" on="1"/>
        <pt x="28" y="351" on="1"/>
        <pt x="25" y="386" on="0"/>
        <pt x="25" y="416" on="1"/>
        <pt x="25" y="500" on="0"/>
        <pt x="54" y="549" on="1"/>
        <pt x="115" y="649" on="0"/>
        <pt x="380" y="649" on="1"/>
        <pt x="593" y="649" on="0"/>
        <pt x="652" y="582" on="1"/>
        <pt x="677" y="553" on="0"/>
        <pt x="677" y="482" on="0"/>
        <pt x="637" y="440" on="0"/>
        <pt x="589" y="422" on="0"/>
        <pt x="549" y="403" on="0"/>
        <pt x="549" y="385" on="0"/>
        <pt x="580" y="371" on="0"/>
        <pt x="625" y="360" on="0"/>
        <pt x="679" y="337" on="0"/>
        <pt x="724" y="308" on="0"/>
        <pt x="755" y="252" on="0"/>
        <pt x="755" y="216" on="1"/>
        <pt x="755" y="107" on="0"/>
        <pt x="611" y="-10" on="0"/>
        <pt x="507" y="-10" on="1"/>
        <pt x="380" y="-10" on="0"/>
        <pt x="288" y="62" on="1"/>
      </contour>
    </TTGlyph>
    <TTGlyph name="grave" xMin="103" yMin="653" xMax="301" yMax="808">
      <contour>
        <pt x="139" y="687" on="1"/>
        <pt x="103" y="708" on="0"/>
        <pt x="103" y="771" on="0"/>
        <pt x="141" y="808" on="0"/>
        <pt x="206" y="808" on="0"/>
        <pt x="229" y="771" on="1"/>
        <pt x="301" y="653" on="1"/>
        <pt x="197" y="653" on="1"/>
      </contour>
    </TTGlyph>
    <TTGlyph name="greater" xMin="40" yMin="104" xMax="448" yMax="488">
      <contour>
        <pt x="448" y="345" on="1"/>
        <pt x="448" y="247" on="1"/>
        <pt x="40" y="104" on="1"/>
        <pt x="40" y="202" on="1"/>
        <pt x="308" y="296" on="1"/>
        <pt x="40" y="390" on="1"/>
        <pt x="40" y="488" on="1"/>
      </contour>
    </TTGlyph>
    <TTGlyph name="guillemotleft" xMin="1" yMin="56" xMax="407" yMax="408">
      <contour>
        <pt x="222" y="408" on="1"/>
        <pt x="143" y="232" on="1"/>
        <pt x="222" y="56" on="1"/>
        <pt x="111" y="56" on="1"/>
        <pt x="1" y="232" on="1"/>
        <pt x="111" y="408" on="1"/>
      </contour>
      <contour>
        <pt x="407" y="408" on="1"/>
        <pt x="328" y="232" on="1"/>
        <pt x="407" y="56" on="1"/>
        <pt x="296" y="56" on="1"/>
        <pt x="186" y="232" on="1"/>
        <pt x="296" y="408" on="1"/>
      </contour>
    </TTGlyph>
    <TTGlyph name="guillemotright" xMin="15" yMin="56" xMax="421" yMax="408">
      <contour>
        <pt x="279" y="232" on="1"/>
        <pt x="200" y="408" on="1"/>
        <pt x="311" y="408" on="1"/>
        <pt x="421" y="232" on="1"/>
        <pt x="311" y="56" on="1"/>
        <pt x="200" y="56" on="1"/>
      </contour>
      <contour>
        <pt x="94" y="232" on="1"/>
        <pt x="15" y="408" on="1"/>
        <pt x="126" y="408" on="1"/>
        <pt x="236" y="232" on="1"/>
        <pt x="126" y="56" on="1"/>
        <pt x="15" y="56" on="1"/>
      </contour>
    </TTGlyph>
    <TTGlyph name="guilsinglleft" xMin="1" yMin="56" xMax="222" yMax="408">
      <contour>
        <pt x="222" y="408" on="1"/>
        <pt x="143" y="232" on="1"/>
        <pt x="222" y="56" on="1"/>
        <pt x="111" y="56" on="1"/>
        <pt x="1" y="232" on="1"/>
        <pt x="111" y="408" on="1"/>
      </contour>
    </TTGlyph>
    <TTGlyph name="guilsinglright" xMin="1" yMin="56" xMax="222" yMax="408">
      <contour>
        <pt x="1" y="56" on="1"/>
        <pt x="80" y="232" on="1"/>
        <pt x="1" y="408" on="1"/>
        <pt x="112" y="408" on="1"/>
        <pt x="222" y="232" on="1"/>
        <pt x="112" y="56" on="1"/>
      </contour>
    </TTGlyph>
    <TTGlyph name="h" xMin="30" yMin="0" xMax="585" yMax="649">
      <contour>
        <pt x="431" y="488" on="1"/>
        <pt x="488" y="488" on="0"/>
        <pt x="560" y="421" on="0"/>
        <pt x="585" y="327" on="0"/>
        <pt x="585" y="181" on="0"/>
        <pt x="562" y="0" on="1"/>
        <pt x="387" y="0" on="1"/>
        <pt x="365" y="232" on="1"/>
        <pt x="359" y="292" on="0"/>
        <pt x="339" y="332" on="0"/>
        <pt x="315" y="332" on="1"/>
        <pt x="256" y="332" on="0"/>
        <pt x="251" y="231" on="1"/>
        <pt x="241" y="0" on="1"/>
        <pt x="57" y="0" on="1"/>
        <pt x="30" y="649" on="1"/>
        <pt x="268" y="649" on="1"/>
        <pt x="258" y="389" on="1"/>
        <pt x="290" y="453" on="0"/>
        <pt x="364" y="478" on="1"/>
        <pt x="395" y="488" on="0"/>
      </contour>
    </TTGlyph>
    <TTGlyph name="hbar" xMin="-19" yMin="0" xMax="575" yMax="649">
      <contour>
        <pt x="421" y="488" on="1"/>
        <pt x="478" y="488" on="0"/>
        <pt x="550" y="421" on="0"/>
        <pt x="575" y="327" on="0"/>
        <pt x="575" y="181" on="0"/>
        <pt x="552" y="0" on="1"/>
        <pt x="377" y="0" on="1"/>
        <pt x="355" y="232" on="1"/>
        <pt x="349" y="292" on="0"/>
        <pt x="329" y="332" on="0"/>
        <pt x="305" y="332" on="1"/>
        <pt x="246" y="332" on="0"/>
        <pt x="241" y="231" on="1"/>
        <pt x="231" y="0" on="1"/>
        <pt x="47" y="0" on="1"/>
        <pt x="20" y="649" on="1"/>
        <pt x="258" y="649" on="1"/>
        <pt x="248" y="389" on="1"/>
        <pt x="280" y="453" on="0"/>
        <pt x="354" y="478" on="1"/>
        <pt x="385" y="488" on="0"/>
      </contour>
      <contour>
        <pt x="298" y="474" on="1"/>
        <pt x="-19" y="474" on="1"/>
        <pt x="-19" y="574" on="1"/>
        <pt x="298" y="574" on="1"/>
      </contour>
    </TTGlyph>
    <TTGlyph name="hyphen" xMin="30" yMin="247" xMax="285" yMax="345">
      <contour>
        <pt x="30" y="247" on="1"/>
        <pt x="30" y="345" on="1"/>
        <pt x="285" y="345" on="1"/>
        <pt x="285" y="247" on="1"/>
      </contour>
    </TTGlyph>
    <TTGlyph name="i" xMin="30" yMin="0" xMax="285" yMax="703">
      <contour>
        <pt x="268" y="460" on="1"/>
        <pt x="285" y="466" on="1"/>
        <pt x="251" y="0" on="1"/>
        <pt x="62" y="0" on="1"/>
        <pt x="30" y="466" on="1"/>
        <pt x="87" y="443" on="0"/>
        <pt x="216" y="443" on="0"/>
      </contour>
      <contour>
        <pt x="107" y="487" on="0"/>
        <pt x="39" y="547" on="0"/>
        <pt x="39" y="644" on="0"/>
        <pt x="106" y="703" on="0"/>
        <pt x="207" y="703" on="0"/>
        <pt x="275" y="643" on="0"/>
        <pt x="275" y="547" on="0"/>
        <pt x="207" y="487" on="0"/>
      </contour>
    </TTGlyph>
    <TTGlyph name="iacute" xMin="30" yMin="0" xMax="285" yMax="674">
      <contour>
        <pt x="268" y="460" on="1"/>
        <pt x="285" y="466" on="1"/>
        <pt x="251" y="0" on="1"/>
        <pt x="62" y="0" on="1"/>
        <pt x="30" y="466" on="1"/>
        <pt x="87" y="443" on="0"/>
        <pt x="216" y="443" on="0"/>
      </contour>
      <contour>
        <pt x="149" y="637" on="1"/>
        <pt x="172" y="674" on="0"/>
        <pt x="237" y="674" on="0"/>
        <pt x="275" y="637" on="0"/>
        <pt x="275" y="574" on="0"/>
        <pt x="239" y="553" on="1"/>
        <pt x="181" y="519" on="1"/>
        <pt x="77" y="519" on="1"/>
      </contour>
    </TTGlyph>
    <TTGlyph name="icircumflex" xMin="-9" yMin="0" xMax="303" yMax="674">
      <contour>
        <pt x="144" y="674" on="1"/>
        <pt x="150" y="674" on="1"/>
        <pt x="183" y="674" on="0"/>
        <pt x="222" y="651" on="0"/>
        <pt x="238" y="625" on="1"/>
        <pt x="303" y="519" on="1"/>
        <pt x="199" y="519" on="1"/>
        <pt x="147" y="581" on="1"/>
        <pt x="95" y="519" on="1"/>
        <pt x="-9" y="519" on="1"/>
        <pt x="56" y="625" on="1"/>
        <pt x="72" y="651" on="0"/>
        <pt x="111" y="674" on="0"/>
      </contour>
      <contour>
        <pt x="268" y="460" on="1"/>
        <pt x="285" y="466" on="1"/>
        <pt x="251" y="0" on="1"/>
        <pt x="62" y="0" on="1"/>
        <pt x="30" y="466" on="1"/>
        <pt x="87" y="443" on="0"/>
        <pt x="216" y="443" on="0"/>
      </contour>
    </TTGlyph>
    <TTGlyph name="idieresis" xMin="-6" yMin="0" xMax="300" yMax="664">
      <contour>
        <pt x="193" y="664" on="0"/>
        <pt x="263" y="664" on="0"/>
        <pt x="300" y="625" on="0"/>
        <pt x="300" y="566" on="0"/>
        <pt x="264" y="528" on="0"/>
        <pt x="192" y="528" on="0"/>
        <pt x="157" y="566" on="0"/>
        <pt x="157" y="625" on="0"/>
      </contour>
      <contour>
        <pt x="30" y="664" on="0"/>
        <pt x="100" y="664" on="0"/>
        <pt x="137" y="625" on="0"/>
        <pt x="137" y="566" on="0"/>
        <pt x="101" y="528" on="0"/>
        <pt x="29" y="528" on="0"/>
        <pt x="-6" y="566" on="0"/>
        <pt x="-6" y="625" on="0"/>
      </contour>
      <contour>
        <pt x="268" y="460" on="1"/>
        <pt x="285" y="466" on="1"/>
        <pt x="251" y="0" on="1"/>
        <pt x="62" y="0" on="1"/>
        <pt x="30" y="466" on="1"/>
        <pt x="87" y="443" on="0"/>
        <pt x="216" y="443" on="0"/>
      </contour>
    </TTGlyph>
    <TTGlyph name="igrave" xMin="30" yMin="0" xMax="285" yMax="674">
      <contour>
        <pt x="268" y="460" on="1"/>
        <pt x="285" y="466" on="1"/>
        <pt x="251" y="0" on="1"/>
        <pt x="62" y="0" on="1"/>
        <pt x="30" y="466" on="1"/>
        <pt x="87" y="443" on="0"/>
        <pt x="216" y="443" on="0"/>
      </contour>
      <contour>
        <pt x="77" y="553" on="1"/>
        <pt x="41" y="574" on="0"/>
        <pt x="41" y="637" on="0"/>
        <pt x="79" y="674" on="0"/>
        <pt x="144" y="674" on="0"/>
        <pt x="167" y="637" on="1"/>
        <pt x="239" y="519" on="1"/>
        <pt x="135" y="519" on="1"/>
      </contour>
    </TTGlyph>
    <TTGlyph name="ij" xMin="30" yMin="-185" xMax="612" yMax="703">
      <contour>
        <pt x="268" y="460" on="1"/>
        <pt x="285" y="466" on="1"/>
        <pt x="251" y="0" on="1"/>
        <pt x="62" y="0" on="1"/>
        <pt x="30" y="466" on="1"/>
        <pt x="87" y="443" on="0"/>
        <pt x="216" y="443" on="0"/>
      </contour>
      <contour>
        <pt x="107" y="487" on="0"/>
        <pt x="39" y="547" on="0"/>
        <pt x="39" y="644" on="0"/>
        <pt x="106" y="703" on="0"/>
        <pt x="207" y="703" on="0"/>
        <pt x="275" y="643" on="0"/>
        <pt x="275" y="547" on="0"/>
        <pt x="207" y="487" on="0"/>
      </contour>
      <contour>
        <pt x="375" y="-79" on="0"/>
        <pt x="386" y="-45" on="0"/>
        <pt x="386" y="-16" on="0"/>
        <pt x="357" y="466" on="1"/>
        <pt x="414" y="443" on="0"/>
        <pt x="484" y="443" on="1"/>
        <pt x="543" y="443" on="0"/>
        <pt x="596" y="460" on="1"/>
        <pt x="612" y="466" on="1"/>
        <pt x="578" y="-4" on="1"/>
        <pt x="572" y="-87" on="0"/>
        <pt x="477" y="-185" on="0"/>
        <pt x="386" y="-185" on="1"/>
        <pt x="312" y="-128" on="1"/>
        <pt x="325" y="-122" on="1"/>
        <pt x="343" y="-113" on="0"/>
      </contour>
      <contour>
        <pt x="434" y="487" on="0"/>
        <pt x="366" y="547" on="0"/>
        <pt x="366" y="644" on="0"/>
        <pt x="433" y="703" on="0"/>
        <pt x="534" y="703" on="0"/>
        <pt x="602" y="643" on="0"/>
        <pt x="602" y="547" on="0"/>
        <pt x="534" y="487" on="0"/>
      </contour>
    </TTGlyph>
    <TTGlyph name="itilde" xMin="-10" yMin="0" xMax="324" yMax="671">
      <contour>
        <pt x="268" y="460" on="1"/>
        <pt x="285" y="466" on="1"/>
        <pt x="251" y="0" on="1"/>
        <pt x="62" y="0" on="1"/>
        <pt x="30" y="466" on="1"/>
        <pt x="87" y="443" on="0"/>
        <pt x="216" y="443" on="0"/>
      </contour>
      <contour>
        <pt x="212" y="516" on="1"/>
        <pt x="189" y="516" on="0"/>
        <pt x="152" y="553" on="0"/>
        <pt x="135" y="553" on="0"/>
        <pt x="131" y="550" on="1"/>
        <pt x="73" y="516" on="1"/>
        <pt x="-10" y="551" on="1"/>
        <pt x="41" y="634" on="1"/>
        <pt x="64" y="671" on="0"/>
        <pt x="102" y="671" on="1"/>
        <pt x="121" y="671" on="0"/>
        <pt x="150" y="646" on="0"/>
        <pt x="170" y="629" on="0"/>
        <pt x="183" y="637" on="1"/>
        <pt x="241" y="671" on="1"/>
        <pt x="324" y="636" on="1"/>
        <pt x="273" y="553" on="1"/>
        <pt x="250" y="516" on="0"/>
      </contour>
    </TTGlyph>
    <TTGlyph name="j" xMin="0" yMin="-185" xMax="300" yMax="703">
      <contour>
        <pt x="63" y="-79" on="0"/>
        <pt x="74" y="-45" on="0"/>
        <pt x="74" y="-16" on="0"/>
        <pt x="45" y="466" on="1"/>
        <pt x="102" y="443" on="0"/>
        <pt x="172" y="443" on="1"/>
        <pt x="231" y="443" on="0"/>
        <pt x="284" y="460" on="1"/>
        <pt x="300" y="466" on="1"/>
        <pt x="266" y="-4" on="1"/>
        <pt x="260" y="-87" on="0"/>
        <pt x="165" y="-185" on="0"/>
        <pt x="74" y="-185" on="1"/>
        <pt x="0" y="-128" on="1"/>
        <pt x="13" y="-122" on="1"/>
        <pt x="31" y="-113" on="0"/>
      </contour>
      <contour>
        <pt x="122" y="487" on="0"/>
        <pt x="54" y="547" on="0"/>
        <pt x="54" y="644" on="0"/>
        <pt x="121" y="703" on="0"/>
        <pt x="222" y="703" on="0"/>
        <pt x="290" y="643" on="0"/>
        <pt x="290" y="547" on="0"/>
        <pt x="222" y="487" on="0"/>
      </contour>
    </TTGlyph>
    <TTGlyph name="jcircumflex" xMin="0" yMin="-185" xMax="338" yMax="674">
      <contour>
        <pt x="63" y="-79" on="0"/>
        <pt x="74" y="-45" on="0"/>
        <pt x="74" y="-16" on="0"/>
        <pt x="45" y="466" on="1"/>
        <pt x="102" y="443" on="0"/>
        <pt x="172" y="443" on="1"/>
        <pt x="231" y="443" on="0"/>
        <pt x="284" y="460" on="1"/>
        <pt x="300" y="466" on="1"/>
        <pt x="266" y="-4" on="1"/>
        <pt x="260" y="-87" on="0"/>
        <pt x="165" y="-185" on="0"/>
        <pt x="74" y="-185" on="1"/>
        <pt x="0" y="-128" on="1"/>
        <pt x="13" y="-122" on="1"/>
        <pt x="31" y="-113" on="0"/>
      </contour>
      <contour>
        <pt x="159" y="674" on="1"/>
        <pt x="185" y="674" on="1"/>
        <pt x="218" y="674" on="0"/>
        <pt x="257" y="651" on="0"/>
        <pt x="273" y="625" on="1"/>
        <pt x="338" y="519" on="1"/>
        <pt x="234" y="519" on="1"/>
        <pt x="172" y="581" on="1"/>
        <pt x="110" y="519" on="1"/>
        <pt x="6" y="519" on="1"/>
        <pt x="71" y="625" on="1"/>
        <pt x="87" y="651" on="0"/>
        <pt x="126" y="674" on="0"/>
      </contour>
    </TTGlyph>
    <TTGlyph name="k" xMin="30" yMin="0" xMax="579" yMax="649">
      <contour>
        <pt x="416" y="0" on="1"/>
        <pt x="297" y="115" on="0"/>
        <pt x="248" y="163" on="1"/>
        <pt x="241" y="0" on="1"/>
        <pt x="57" y="0" on="1"/>
        <pt x="30" y="649" on="1"/>
        <pt x="268" y="649" on="1"/>
        <pt x="256" y="341" on="1"/>
        <pt x="357" y="474" on="1"/>
        <pt x="559" y="474" on="1"/>
        <pt x="418" y="276" on="1"/>
        <pt x="579" y="0" on="1"/>
      </contour>
    </TTGlyph>
    <TTGlyph name="kcedilla" xMin="30" yMin="-183" xMax="579" yMax="649">
      <contour>
        <pt x="416" y="0" on="1"/>
        <pt x="297" y="115" on="0"/>
        <pt x="248" y="163" on="1"/>
        <pt x="241" y="0" on="1"/>
        <pt x="57" y="0" on="1"/>
        <pt x="30" y="649" on="1"/>
        <pt x="268" y="649" on="1"/>
        <pt x="256" y="341" on="1"/>
        <pt x="357" y="474" on="1"/>
        <pt x="559" y="474" on="1"/>
        <pt x="418" y="276" on="1"/>
        <pt x="579" y="0" on="1"/>
      </contour>
      <contour>
        <pt x="506" y="-146" on="1"/>
        <pt x="483" y="-183" on="0"/>
        <pt x="418" y="-183" on="0"/>
        <pt x="380" y="-146" on="0"/>
        <pt x="380" y="-83" on="0"/>
        <pt x="416" y="-62" on="1"/>
        <pt x="474" y="-28" on="1"/>
        <pt x="578" y="-28" on="1"/>
      </contour>
    </TTGlyph>
    <TTGlyph name="kgreenlandic" xMin="30" yMin="0" xMax="572" yMax="474">
      <contour>
        <pt x="30" y="474" on="1"/>
        <pt x="254" y="474" on="1"/>
        <pt x="249" y="341" on="1"/>
        <pt x="350" y="474" on="1"/>
        <pt x="552" y="474" on="1"/>
        <pt x="411" y="276" on="1"/>
        <pt x="572" y="0" on="1"/>
        <pt x="409" y="0" on="1"/>
        <pt x="290" y="115" on="0"/>
        <pt x="241" y="163" on="1"/>
        <pt x="234" y="0" on="1"/>
        <pt x="50" y="0" on="1"/>
      </contour>
    </TTGlyph>
    <TTGlyph name="l" xMin="30" yMin="0" xMax="268" yMax="649">
      <contour>
        <pt x="268" y="649" on="1"/>
        <pt x="241" y="0" on="1"/>
        <pt x="57" y="0" on="1"/>
        <pt x="30" y="649" on="1"/>
      </contour>
    </TTGlyph>
    <TTGlyph name="ldot" xMin="30" yMin="0" xMax="437" yMax="649">
      <contour>
        <pt x="268" y="649" on="1"/>
        <pt x="241" y="0" on="1"/>
        <pt x="57" y="0" on="1"/>
        <pt x="30" y="649" on="1"/>
      </contour>
      <contour>
        <pt x="323" y="457" on="0"/>
        <pt x="399" y="457" on="0"/>
        <pt x="437" y="416" on="0"/>
        <pt x="437" y="354" on="0"/>
        <pt x="399" y="313" on="0"/>
        <pt x="323" y="313" on="0"/>
        <pt x="285" y="354" on="0"/>
        <pt x="285" y="416" on="0"/>
      </contour>
    </TTGlyph>
    <TTGlyph name="less" xMin="30" yMin="104" xMax="438" yMax="488">
      <contour>
        <pt x="30" y="247" on="1"/>
        <pt x="30" y="345" on="1"/>
        <pt x="438" y="488" on="1"/>
        <pt x="438" y="390" on="1"/>
        <pt x="170" y="296" on="1"/>
        <pt x="438" y="202" on="1"/>
        <pt x="438" y="104" on="1"/>
      </contour>
    </TTGlyph>
    <TTGlyph name="logicalnot" xMin="30" yMin="157" xMax="385" yMax="345">
      <contour>
        <pt x="30" y="247" on="1"/>
        <pt x="30" y="345" on="1"/>
        <pt x="385" y="345" on="1"/>
        <pt x="385" y="157" on="1"/>
        <pt x="287" y="157" on="1"/>
        <pt x="287" y="247" on="1"/>
      </contour>
    </TTGlyph>
    <TTGlyph name="lslash" xMin="-22" yMin="0" xMax="313" yMax="649">
      <contour>
        <pt x="-22" y="199" on="1"/>
        <pt x="-22" y="297" on="1"/>
        <pt x="313" y="428" on="1"/>
        <pt x="313" y="330" on="1"/>
      </contour>
      <contour>
        <pt x="268" y="649" on="1"/>
        <pt x="241" y="0" on="1"/>
        <pt x="57" y="0" on="1"/>
        <pt x="30" y="649" on="1"/>
      </contour>
    </TTGlyph>
    <TTGlyph name="m" xMin="30" yMin="0" xMax="910" yMax="489">
      <contour>
        <pt x="832" y="488" on="0"/>
        <pt x="910" y="360" on="0"/>
        <pt x="910" y="181" on="0"/>
        <pt x="887" y="0" on="1"/>
        <pt x="712" y="0" on="1"/>
        <pt x="690" y="232" on="1"/>
        <pt x="684" y="292" on="0"/>
        <pt x="664" y="332" on="0"/>
        <pt x="640" y="332" on="1"/>
        <pt x="583" y="332" on="0"/>
        <pt x="576" y="231" on="1"/>
        <pt x="559" y="0" on="1"/>
        <pt x="381" y="0" on="1"/>
        <pt x="359" y="232" on="1"/>
        <pt x="353" y="292" on="0"/>
        <pt x="333" y="332" on="0"/>
        <pt x="309" y="332" on="1"/>
        <pt x="250" y="332" on="0"/>
        <pt x="245" y="231" on="1"/>
        <pt x="235" y="0" on="1"/>
        <pt x="51" y="0" on="1"/>
        <pt x="30" y="474" on="1"/>
        <pt x="256" y="474" on="1"/>
        <pt x="252" y="379" on="1"/>
        <pt x="254" y="383" on="0"/>
        <pt x="261" y="398" on="0"/>
        <pt x="290" y="436" on="0"/>
        <pt x="326" y="464" on="0"/>
        <pt x="389" y="488" on="0"/>
        <pt x="425" y="488" on="1"/>
        <pt x="483" y="488" on="0"/>
        <pt x="556" y="414" on="0"/>
        <pt x="567" y="369" on="1"/>
        <pt x="582" y="394" on="0"/>
        <pt x="604" y="424" on="0"/>
        <pt x="626" y="445" on="1"/>
        <pt x="671" y="488" on="0"/>
      </contour>
    </TTGlyph>
    <TTGlyph name="macron" xMin="20" yMin="599" xMax="337" yMax="699">
      <contour>
        <pt x="337" y="599" on="1"/>
        <pt x="20" y="599" on="1"/>
        <pt x="20" y="699" on="1"/>
        <pt x="337" y="699" on="1"/>
      </contour>
    </TTGlyph>
    <TTGlyph name="minus" xMin="30" yMin="247" xMax="385" yMax="345">
      <contour>
        <pt x="30" y="247" on="1"/>
        <pt x="30" y="345" on="1"/>
        <pt x="385" y="345" on="1"/>
        <pt x="385" y="247" on="1"/>
      </contour>
    </TTGlyph>
    <TTGlyph name="mu" xMin="20" yMin="-171" xMax="582" yMax="474">
      <contour>
        <pt x="245" y="-171" on="1"/>
        <pt x="20" y="-171" on="1"/>
        <pt x="50" y="474" on="1"/>
        <pt x="254" y="474" on="1"/>
        <pt x="254" y="265" on="1"/>
        <pt x="254" y="179" on="0"/>
        <pt x="284" y="152" on="1"/>
        <pt x="295" y="142" on="0"/>
        <pt x="309" y="142" on="1"/>
        <pt x="341" y="142" on="0"/>
        <pt x="366" y="213" on="0"/>
        <pt x="366" y="255" on="0"/>
        <pt x="366" y="260" on="1"/>
        <pt x="357" y="474" on="1"/>
        <pt x="582" y="474" on="1"/>
        <pt x="561" y="0" on="1"/>
        <pt x="392" y="0" on="1"/>
        <pt x="382" y="85" on="1"/>
        <pt x="365" y="52" on="0"/>
        <pt x="301" y="4" on="0"/>
        <pt x="264" y="4" on="1"/>
        <pt x="259" y="4" on="0"/>
        <pt x="245" y="6" on="1"/>
      </contour>
    </TTGlyph>
    <TTGlyph name="multiply" xMin="30" yMin="135" xMax="351" yMax="457">
      <contour>
        <pt x="30" y="387" on="1"/>
        <pt x="99" y="456" on="1"/>
        <pt x="190" y="365" on="1"/>
        <pt x="281" y="457" on="1"/>
        <pt x="351" y="387" on="1"/>
        <pt x="259" y="296" on="1"/>
        <pt x="351" y="205" on="1"/>
        <pt x="281" y="135" on="1"/>
        <pt x="190" y="226" on="1"/>
        <pt x="99" y="136" on="1"/>
        <pt x="30" y="205" on="1"/>
        <pt x="120" y="296" on="1"/>
      </contour>
    </TTGlyph>
    <TTGlyph name="n" xMin="30" yMin="0" xMax="579" yMax="488">
      <contour>
        <pt x="408" y="488" on="1"/>
        <pt x="478" y="488" on="0"/>
        <pt x="579" y="370" on="0"/>
        <pt x="579" y="181" on="0"/>
        <pt x="556" y="0" on="1"/>
        <pt x="381" y="0" on="1"/>
        <pt x="361" y="224" on="1"/>
        <pt x="351" y="331" on="0"/>
        <pt x="303" y="331" on="1"/>
        <pt x="246" y="331" on="0"/>
        <pt x="242" y="223" on="1"/>
        <pt x="235" y="0" on="1"/>
        <pt x="51" y="0" on="1"/>
        <pt x="30" y="474" on="1"/>
        <pt x="256" y="474" on="1"/>
        <pt x="252" y="389" on="1"/>
        <pt x="257" y="399" on="0"/>
        <pt x="293" y="441" on="0"/>
        <pt x="310" y="454" on="1"/>
        <pt x="354" y="488" on="0"/>
      </contour>
    </TTGlyph>
    <TTGlyph name="nacute" xMin="30" yMin="0" xMax="579" yMax="674">
      <contour>
        <pt x="408" y="488" on="1"/>
        <pt x="478" y="488" on="0"/>
        <pt x="579" y="370" on="0"/>
        <pt x="579" y="181" on="0"/>
        <pt x="556" y="0" on="1"/>
        <pt x="381" y="0" on="1"/>
        <pt x="361" y="224" on="1"/>
        <pt x="351" y="331" on="0"/>
        <pt x="303" y="331" on="1"/>
        <pt x="246" y="331" on="0"/>
        <pt x="242" y="223" on="1"/>
        <pt x="235" y="0" on="1"/>
        <pt x="51" y="0" on="1"/>
        <pt x="30" y="474" on="1"/>
        <pt x="256" y="474" on="1"/>
        <pt x="252" y="389" on="1"/>
        <pt x="257" y="399" on="0"/>
        <pt x="293" y="441" on="0"/>
        <pt x="310" y="454" on="1"/>
        <pt x="354" y="488" on="0"/>
      </contour>
      <contour>
        <pt x="326" y="637" on="1"/>
        <pt x="349" y="674" on="0"/>
        <pt x="414" y="674" on="0"/>
        <pt x="452" y="637" on="0"/>
        <pt x="452" y="574" on="0"/>
        <pt x="416" y="553" on="1"/>
        <pt x="358" y="519" on="1"/>
        <pt x="254" y="519" on="1"/>
      </contour>
    </TTGlyph>
    <TTGlyph name="nine" xMin="20" yMin="-10" xMax="607" yMax="620">
      <contour>
        <pt x="217" y="379" on="0"/>
        <pt x="253" y="346" on="0"/>
        <pt x="307" y="346" on="0"/>
        <pt x="354" y="370" on="0"/>
        <pt x="364" y="392" on="1"/>
        <pt x="364" y="418" on="0"/>
        <pt x="318" y="461" on="0"/>
        <pt x="255" y="461" on="0"/>
        <pt x="217" y="433" on="0"/>
      </contour>
      <contour>
        <pt x="112" y="159" on="1"/>
        <pt x="177" y="133" on="0"/>
        <pt x="298" y="133" on="0"/>
        <pt x="376" y="203" on="0"/>
        <pt x="376" y="255" on="1"/>
        <pt x="372" y="249" on="0"/>
        <pt x="356" y="231" on="0"/>
        <pt x="289" y="201" on="0"/>
        <pt x="247" y="201" on="1"/>
        <pt x="145" y="201" on="0"/>
        <pt x="20" y="309" on="0"/>
        <pt x="20" y="496" on="0"/>
        <pt x="167" y="620" on="0"/>
        <pt x="432" y="620" on="0"/>
        <pt x="607" y="465" on="0"/>
        <pt x="607" y="160" on="0"/>
        <pt x="429" y="-10" on="0"/>
        <pt x="181" y="-10" on="0"/>
        <pt x="73" y="53" on="1"/>
      </contour>
    </TTGlyph>
    <TTGlyph name="ntilde" xMin="30" yMin="0" xMax="579" yMax="671">
      <contour>
        <pt x="408" y="488" on="1"/>
        <pt x="478" y="488" on="0"/>
        <pt x="579" y="370" on="0"/>
        <pt x="579" y="181" on="0"/>
        <pt x="556" y="0" on="1"/>
        <pt x="381" y="0" on="1"/>
        <pt x="361" y="224" on="1"/>
        <pt x="351" y="331" on="0"/>
        <pt x="303" y="331" on="1"/>
        <pt x="246" y="331" on="0"/>
        <pt x="242" y="223" on="1"/>
        <pt x="235" y="0" on="1"/>
        <pt x="51" y="0" on="1"/>
        <pt x="30" y="474" on="1"/>
        <pt x="256" y="474" on="1"/>
        <pt x="252" y="389" on="1"/>
        <pt x="257" y="399" on="0"/>
        <pt x="293" y="441" on="0"/>
        <pt x="310" y="454" on="1"/>
        <pt x="354" y="488" on="0"/>
      </contour>
      <contour>
        <pt x="356" y="516" on="1"/>
        <pt x="333" y="516" on="0"/>
        <pt x="296" y="553" on="0"/>
        <pt x="279" y="553" on="0"/>
        <pt x="275" y="550" on="1"/>
        <pt x="217" y="516" on="1"/>
        <pt x="134" y="551" on="1"/>
        <pt x="185" y="634" on="1"/>
        <pt x="208" y="671" on="0"/>
        <pt x="246" y="671" on="1"/>
        <pt x="265" y="671" on="0"/>
        <pt x="294" y="646" on="0"/>
        <pt x="314" y="629" on="0"/>
        <pt x="327" y="637" on="1"/>
        <pt x="385" y="671" on="1"/>
        <pt x="468" y="636" on="1"/>
        <pt x="417" y="553" on="1"/>
        <pt x="394" y="516" on="0"/>
      </contour>
    </TTGlyph>
    <TTGlyph name="numbersign" xMin="30" yMin="0" xMax="627" yMax="491">
      <contour>
        <pt x="213" y="0" on="1"/>
        <pt x="107" y="0" on="1"/>
        <pt x="135" y="101" on="1"/>
        <pt x="30" y="101" on="1"/>
        <pt x="58" y="199" on="1"/>
        <pt x="162" y="199" on="1"/>
        <pt x="187" y="290" on="1"/>
        <pt x="76" y="290" on="1"/>
        <pt x="104" y="388" on="1"/>
        <pt x="214" y="388" on="1"/>
        <pt x="242" y="491" on="1"/>
        <pt x="349" y="491" on="1"/>
        <pt x="320" y="388" on="1"/>
        <pt x="415" y="388" on="1"/>
        <pt x="443" y="491" on="1"/>
        <pt x="550" y="491" on="1"/>
        <pt x="521" y="388" on="1"/>
        <pt x="627" y="388" on="1"/>
        <pt x="600" y="290" on="1"/>
        <pt x="494" y="290" on="1"/>
        <pt x="469" y="199" on="1"/>
        <pt x="581" y="199" on="1"/>
        <pt x="554" y="101" on="1"/>
        <pt x="442" y="101" on="1"/>
        <pt x="414" y="0" on="1"/>
        <pt x="308" y="0" on="1"/>
        <pt x="336" y="101" on="1"/>
        <pt x="241" y="101" on="1"/>
      </contour>
      <contour>
        <pt x="293" y="290" on="1"/>
        <pt x="268" y="199" on="1"/>
        <pt x="363" y="199" on="1"/>
        <pt x="388" y="290" on="1"/>
      </contour>
    </TTGlyph>
    <TTGlyph name="o" xMin="25" yMin="-10" xMax="557" yMax="488">
      <contour>
        <pt x="25" y="109" on="0"/>
        <pt x="25" y="369" on="0"/>
        <pt x="170" y="488" on="0"/>
        <pt x="412" y="488" on="0"/>
        <pt x="557" y="369" on="0"/>
        <pt x="557" y="109" on="0"/>
        <pt x="412" y="-10" on="0"/>
        <pt x="170" y="-10" on="0"/>
      </contour>
      <contour>
        <pt x="237" y="318" on="0"/>
        <pt x="237" y="160" on="0"/>
        <pt x="261" y="91" on="0"/>
        <pt x="321" y="91" on="0"/>
        <pt x="345" y="160" on="0"/>
        <pt x="345" y="318" on="0"/>
        <pt x="321" y="387" on="0"/>
        <pt x="261" y="387" on="0"/>
      </contour>
    </TTGlyph>
    <TTGlyph name="oacute" xMin="25" yMin="-10" xMax="557" yMax="674">
      <contour>
        <pt x="25" y="109" on="0"/>
        <pt x="25" y="369" on="0"/>
        <pt x="170" y="488" on="0"/>
        <pt x="412" y="488" on="0"/>
        <pt x="557" y="369" on="0"/>
        <pt x="557" y="109" on="0"/>
        <pt x="412" y="-10" on="0"/>
        <pt x="170" y="-10" on="0"/>
      </contour>
      <contour>
        <pt x="237" y="318" on="0"/>
        <pt x="237" y="160" on="0"/>
        <pt x="261" y="91" on="0"/>
        <pt x="321" y="91" on="0"/>
        <pt x="345" y="160" on="0"/>
        <pt x="345" y="318" on="0"/>
        <pt x="321" y="387" on="0"/>
        <pt x="261" y="387" on="0"/>
      </contour>
      <contour>
        <pt x="312" y="637" on="1"/>
        <pt x="335" y="674" on="0"/>
        <pt x="400" y="674" on="0"/>
        <pt x="438" y="637" on="0"/>
        <pt x="438" y="574" on="0"/>
        <pt x="402" y="553" on="1"/>
        <pt x="344" y="519" on="1"/>
        <pt x="240" y="519" on="1"/>
      </contour>
    </TTGlyph>
    <TTGlyph name="ocircumflex" xMin="25" yMin="-10" xMax="557" yMax="674">
      <contour>
        <pt x="25" y="109" on="0"/>
        <pt x="25" y="369" on="0"/>
        <pt x="170" y="488" on="0"/>
        <pt x="412" y="488" on="0"/>
        <pt x="557" y="369" on="0"/>
        <pt x="557" y="109" on="0"/>
        <pt x="412" y="-10" on="0"/>
        <pt x="170" y="-10" on="0"/>
      </contour>
      <contour>
        <pt x="237" y="318" on="0"/>
        <pt x="237" y="160" on="0"/>
        <pt x="261" y="91" on="0"/>
        <pt x="321" y="91" on="0"/>
        <pt x="345" y="160" on="0"/>
        <pt x="345" y="318" on="0"/>
        <pt x="321" y="387" on="0"/>
        <pt x="261" y="387" on="0"/>
      </contour>
      <contour>
        <pt x="276" y="674" on="1"/>
        <pt x="302" y="674" on="1"/>
        <pt x="335" y="674" on="0"/>
        <pt x="374" y="651" on="0"/>
        <pt x="390" y="625" on="1"/>
        <pt x="455" y="519" on="1"/>
        <pt x="351" y="519" on="1"/>
        <pt x="289" y="581" on="1"/>
        <pt x="227" y="519" on="1"/>
        <pt x="123" y="519" on="1"/>
        <pt x="188" y="625" on="1"/>
        <pt x="204" y="651" on="0"/>
        <pt x="243" y="674" on="0"/>
      </contour>
    </TTGlyph>
    <TTGlyph name="odieresis" xMin="25" yMin="-10" xMax="557" yMax="664">
      <contour>
        <pt x="25" y="109" on="0"/>
        <pt x="25" y="369" on="0"/>
        <pt x="170" y="488" on="0"/>
        <pt x="412" y="488" on="0"/>
        <pt x="557" y="369" on="0"/>
        <pt x="557" y="109" on="0"/>
        <pt x="412" y="-10" on="0"/>
        <pt x="170" y="-10" on="0"/>
      </contour>
      <contour>
        <pt x="237" y="318" on="0"/>
        <pt x="237" y="160" on="0"/>
        <pt x="261" y="91" on="0"/>
        <pt x="321" y="91" on="0"/>
        <pt x="345" y="160" on="0"/>
        <pt x="345" y="318" on="0"/>
        <pt x="321" y="387" on="0"/>
        <pt x="261" y="387" on="0"/>
      </contour>
      <contour>
        <pt x="348" y="664" on="0"/>
        <pt x="418" y="664" on="0"/>
        <pt x="455" y="625" on="0"/>
        <pt x="455" y="566" on="0"/>
        <pt x="419" y="528" on="0"/>
        <pt x="347" y="528" on="0"/>
        <pt x="312" y="566" on="0"/>
        <pt x="312" y="625" on="0"/>
      </contour>
      <contour>
        <pt x="165" y="664" on="0"/>
        <pt x="235" y="664" on="0"/>
        <pt x="272" y="625" on="0"/>
        <pt x="272" y="566" on="0"/>
        <pt x="236" y="528" on="0"/>
        <pt x="164" y="528" on="0"/>
        <pt x="129" y="566" on="0"/>
        <pt x="129" y="625" on="0"/>
      </contour>
    </TTGlyph>
    <TTGlyph name="oe" xMin="20" yMin="-10" xMax="841" yMax="488">
      <contour>
        <pt x="614" y="-10" on="1"/>
        <pt x="524" y="-10" on="0"/>
        <pt x="455" y="32" on="1"/>
        <pt x="390" y="-10" on="0"/>
        <pt x="165" y="-10" on="0"/>
        <pt x="20" y="111" on="0"/>
        <pt x="20" y="361" on="0"/>
        <pt x="156" y="488" on="0"/>
        <pt x="286" y="488" on="1"/>
        <pt x="387" y="488" on="0"/>
        <pt x="453" y="448" on="1"/>
        <pt x="518" y="488" on="0"/>
        <pt x="721" y="488" on="0"/>
        <pt x="841" y="397" on="0"/>
        <pt x="841" y="317" on="1"/>
        <pt x="841" y="255" on="0"/>
        <pt x="742" y="178" on="0"/>
        <pt x="647" y="178" on="1"/>
        <pt x="608" y="178" on="0"/>
        <pt x="576" y="184" on="1"/>
        <pt x="566" y="186" on="1"/>
        <pt x="571" y="150" on="0"/>
        <pt x="624" y="115" on="0"/>
        <pt x="661" y="115" on="1"/>
        <pt x="722" y="115" on="0"/>
        <pt x="765" y="152" on="1"/>
        <pt x="827" y="77" on="1"/>
        <pt x="811" y="58" on="0"/>
        <pt x="767" y="25" on="0"/>
        <pt x="671" y="-10" on="0"/>
      </contour>
      <contour>
        <pt x="346" y="324" on="0"/>
        <pt x="321" y="387" on="0"/>
        <pt x="248" y="387" on="0"/>
        <pt x="224" y="315" on="0"/>
        <pt x="224" y="163" on="0"/>
        <pt x="250" y="91" on="0"/>
        <pt x="322" y="91" on="0"/>
        <pt x="348" y="163" on="0"/>
        <pt x="348" y="238" on="1"/>
        <pt x="348" y="258" on="1"/>
      </contour>
      <contour>
        <pt x="695" y="346" on="0"/>
        <pt x="664" y="372" on="0"/>
        <pt x="610" y="372" on="0"/>
        <pt x="563" y="324" on="0"/>
        <pt x="563" y="291" on="1"/>
        <pt x="585" y="281" on="0"/>
        <pt x="656" y="281" on="0"/>
        <pt x="695" y="306" on="0"/>
      </contour>
    </TTGlyph>
    <TTGlyph name="ograve" xMin="25" yMin="-10" xMax="557" yMax="674">
      <contour>
        <pt x="25" y="109" on="0"/>
        <pt x="25" y="369" on="0"/>
        <pt x="170" y="488" on="0"/>
        <pt x="412" y="488" on="0"/>
        <pt x="557" y="369" on="0"/>
        <pt x="557" y="109" on="0"/>
        <pt x="412" y="-10" on="0"/>
        <pt x="170" y="-10" on="0"/>
      </contour>
      <contour>
        <pt x="237" y="318" on="0"/>
        <pt x="237" y="160" on="0"/>
        <pt x="261" y="91" on="0"/>
        <pt x="321" y="91" on="0"/>
        <pt x="345" y="160" on="0"/>
        <pt x="345" y="318" on="0"/>
        <pt x="321" y="387" on="0"/>
        <pt x="261" y="387" on="0"/>
      </contour>
      <contour>
        <pt x="192" y="553" on="1"/>
        <pt x="156" y="574" on="0"/>
        <pt x="156" y="637" on="0"/>
        <pt x="194" y="674" on="0"/>
        <pt x="259" y="674" on="0"/>
        <pt x="282" y="637" on="1"/>
        <pt x="354" y="519" on="1"/>
        <pt x="250" y="519" on="1"/>
      </contour>
    </TTGlyph>
    <TTGlyph name="one" xMin="20" yMin="0" xMax="422" yMax="606">
      <contour>
        <pt x="174" y="0" on="1"/>
        <pt x="113" y="478" on="1"/>
        <pt x="28" y="495" on="1"/>
        <pt x="20" y="606" on="1"/>
        <pt x="422" y="606" on="1"/>
        <pt x="359" y="0" on="1"/>
      </contour>
    </TTGlyph>
    <TTGlyph name="onehalf" xMin="59" yMin="-87" xMax="903" yMax="663">
      <contour>
        <pt x="897" y="274" on="1"/>
        <pt x="897" y="183" on="0"/>
        <pt x="750" y="94" on="1"/>
        <pt x="754" y="85" on="1"/>
        <pt x="903" y="116" on="1"/>
        <pt x="903" y="0" on="1"/>
        <pt x="590" y="0" on="1"/>
        <pt x="590" y="61" on="1"/>
        <pt x="643" y="114" on="0"/>
        <pt x="690" y="171" on="1"/>
        <pt x="726" y="215" on="0"/>
        <pt x="726" y="247" on="1"/>
        <pt x="726" y="294" on="0"/>
        <pt x="680" y="294" on="1"/>
        <pt x="651" y="294" on="0"/>
        <pt x="621" y="281" on="1"/>
        <pt x="604" y="350" on="1"/>
        <pt x="623" y="360" on="1"/>
        <pt x="642" y="370" on="0"/>
        <pt x="711" y="389" on="0"/>
        <pt x="743" y="389" on="1"/>
        <pt x="829" y="389" on="0"/>
        <pt x="872" y="343" on="1"/>
        <pt x="897" y="316" on="0"/>
      </contour>
      <contour>
        <pt x="156" y="167" on="1"/>
        <pt x="117" y="469" on="1"/>
        <pt x="64" y="480" on="1"/>
        <pt x="59" y="550" on="1"/>
        <pt x="313" y="550" on="1"/>
        <pt x="273" y="167" on="1"/>
      </contour>
      <contour>
        <pt x="256" y="-87" on="1"/>
        <pt x="507" y="663" on="1"/>
        <pt x="654" y="663" on="1"/>
        <pt x="400" y="-87" on="1"/>
      </contour>
    </TTGlyph>
    <TTGlyph name="onequarter" xMin="59" yMin="-87" xMax="916" yMax="663">
      <contour>
        <pt x="156" y="167" on="1"/>
        <pt x="117" y="469" on="1"/>
        <pt x="64" y="480" on="1"/>
        <pt x="59" y="550" on="1"/>
        <pt x="313" y="550" on="1"/>
        <pt x="273" y="167" on="1"/>
      </contour>
      <contour>
        <pt x="256" y="-87" on="1"/>
        <pt x="507" y="663" on="1"/>
        <pt x="654" y="663" on="1"/>
        <pt x="400" y="-87" on="1"/>
      </contour>
      <contour>
        <pt x="662" y="383" on="1"/>
        <pt x="895" y="383" on="1"/>
        <pt x="875" y="186" on="1"/>
        <pt x="916" y="186" on="1"/>
        <pt x="904" y="96" on="1"/>
        <pt x="866" y="96" on="1"/>
        <pt x="856" y="0" on="1"/>
        <pt x="747" y="0" on="1"/>
        <pt x="737" y="96" on="1"/>
        <pt x="568" y="96" on="1"/>
        <pt x="573" y="186" on="1"/>
      </contour>
      <contour>
        <pt x="718" y="292" on="1"/>
        <pt x="668" y="186" on="1"/>
        <pt x="728" y="186" on="1"/>
      </contour>
    </TTGlyph>
    <TTGlyph name="onesuperior" xMin="18" yMin="277" xMax="265" yMax="649">
      <contour>
        <pt x="113" y="277" on="1"/>
        <pt x="75" y="570" on="1"/>
        <pt x="23" y="581" on="1"/>
        <pt x="18" y="649" on="1"/>
        <pt x="265" y="649" on="1"/>
        <pt x="227" y="277" on="1"/>
      </contour>
    </TTGlyph>
    <TTGlyph name="ordfeminine" xMin="34" yMin="277" xMax="364" yMax="666">
      <contour>
        <pt x="56" y="277" on="1"/>
        <pt x="56" y="319" on="1"/>
        <pt x="349" y="319" on="1"/>
        <pt x="349" y="277" on="1"/>
      </contour>
      <contour>
        <pt x="141" y="365" on="1"/>
        <pt x="94" y="365" on="0"/>
        <pt x="34" y="420" on="0"/>
        <pt x="34" y="519" on="0"/>
        <pt x="101" y="565" on="0"/>
        <pt x="199" y="565" on="0"/>
        <pt x="232" y="550" on="1"/>
        <pt x="224" y="600" on="0"/>
        <pt x="169" y="600" on="1"/>
        <pt x="146" y="600" on="0"/>
        <pt x="106" y="590" on="1"/>
        <pt x="91" y="644" on="1"/>
        <pt x="147" y="666" on="0"/>
        <pt x="201" y="666" on="1"/>
        <pt x="364" y="666" on="0"/>
        <pt x="364" y="528" on="1"/>
        <pt x="364" y="475" on="0"/>
        <pt x="354" y="397" on="1"/>
        <pt x="350" y="371" on="1"/>
        <pt x="250" y="371" on="1"/>
        <pt x="246" y="405" on="1"/>
        <pt x="209" y="365" on="0"/>
      </contour>
      <contour>
        <pt x="162" y="460" on="0"/>
        <pt x="180" y="440" on="0"/>
        <pt x="224" y="440" on="0"/>
        <pt x="241" y="455" on="1"/>
        <pt x="237" y="495" on="1"/>
        <pt x="226" y="505" on="0"/>
        <pt x="186" y="505" on="0"/>
        <pt x="162" y="487" on="0"/>
      </contour>
    </TTGlyph>
    <TTGlyph name="ordmasculine" xMin="30" yMin="277" xMax="349" yMax="664">
      <contour>
        <pt x="30" y="588" on="0"/>
        <pt x="111" y="664" on="0"/>
        <pt x="268" y="664" on="0"/>
        <pt x="349" y="588" on="0"/>
        <pt x="349" y="438" on="0"/>
        <pt x="263" y="365" on="0"/>
        <pt x="117" y="365" on="0"/>
        <pt x="30" y="438" on="0"/>
      </contour>
      <contour>
        <pt x="227" y="560" on="0"/>
        <pt x="212" y="603" on="0"/>
        <pt x="167" y="603" on="0"/>
        <pt x="152" y="560" on="0"/>
        <pt x="152" y="469" on="0"/>
        <pt x="169" y="426" on="0"/>
        <pt x="211" y="426" on="0"/>
        <pt x="227" y="469" on="0"/>
      </contour>
      <contour>
        <pt x="46" y="277" on="1"/>
        <pt x="46" y="329" on="1"/>
        <pt x="339" y="329" on="1"/>
        <pt x="339" y="277" on="1"/>
      </contour>
    </TTGlyph>
    <TTGlyph name="oslash" xMin="25" yMin="-73" xMax="557" yMax="535">
      <contour>
        <pt x="150" y="-73" on="1"/>
        <pt x="361" y="535" on="1"/>
        <pt x="433" y="535" on="1"/>
        <pt x="222" y="-73" on="1"/>
      </contour>
      <contour>
        <pt x="25" y="109" on="0"/>
        <pt x="25" y="369" on="0"/>
        <pt x="170" y="488" on="0"/>
        <pt x="412" y="488" on="0"/>
        <pt x="557" y="369" on="0"/>
        <pt x="557" y="109" on="0"/>
        <pt x="412" y="-10" on="0"/>
        <pt x="170" y="-10" on="0"/>
      </contour>
      <contour>
        <pt x="237" y="318" on="0"/>
        <pt x="237" y="160" on="0"/>
        <pt x="261" y="91" on="0"/>
        <pt x="321" y="91" on="0"/>
        <pt x="345" y="160" on="0"/>
        <pt x="345" y="318" on="0"/>
        <pt x="321" y="387" on="0"/>
        <pt x="261" y="387" on="0"/>
      </contour>
    </TTGlyph>
    <TTGlyph name="otilde" xMin="25" yMin="-10" xMax="557" yMax="671">
      <contour>
        <pt x="25" y="109" on="0"/>
        <pt x="25" y="369" on="0"/>
        <pt x="170" y="488" on="0"/>
        <pt x="412" y="488" on="0"/>
        <pt x="557" y="369" on="0"/>
        <pt x="557" y="109" on="0"/>
        <pt x="412" y="-10" on="0"/>
        <pt x="170" y="-10" on="0"/>
      </contour>
      <contour>
        <pt x="237" y="318" on="0"/>
        <pt x="237" y="160" on="0"/>
        <pt x="261" y="91" on="0"/>
        <pt x="321" y="91" on="0"/>
        <pt x="345" y="160" on="0"/>
        <pt x="345" y="318" on="0"/>
        <pt x="321" y="387" on="0"/>
        <pt x="261" y="387" on="0"/>
      </contour>
      <contour>
        <pt x="332" y="516" on="1"/>
        <pt x="309" y="516" on="0"/>
        <pt x="272" y="553" on="0"/>
        <pt x="255" y="553" on="0"/>
        <pt x="251" y="550" on="1"/>
        <pt x="193" y="516" on="1"/>
        <pt x="110" y="551" on="1"/>
        <pt x="161" y="634" on="1"/>
        <pt x="184" y="671" on="0"/>
        <pt x="222" y="671" on="1"/>
        <pt x="241" y="671" on="0"/>
        <pt x="270" y="646" on="0"/>
        <pt x="290" y="629" on="0"/>
        <pt x="303" y="637" on="1"/>
        <pt x="361" y="671" on="1"/>
        <pt x="444" y="636" on="1"/>
        <pt x="393" y="553" on="1"/>
        <pt x="370" y="516" on="0"/>
      </contour>
    </TTGlyph>
    <TTGlyph name="p" xMin="30" yMin="-171" xMax="592" yMax="488">
      <contour>
        <pt x="387" y="-10" on="1"/>
        <pt x="331" y="-10" on="0"/>
        <pt x="294" y="16" on="1"/>
        <pt x="261" y="40" on="0"/>
        <pt x="243" y="65" on="1"/>
        <pt x="230" y="-171" on="1"/>
        <pt x="59" y="-171" on="1"/>
        <pt x="30" y="474" on="1"/>
        <pt x="245" y="474" on="1"/>
        <pt x="256" y="418" on="1"/>
        <pt x="261" y="426" on="0"/>
        <pt x="282" y="449" on="0"/>
        <pt x="351" y="488" on="0"/>
        <pt x="425" y="488" on="0"/>
        <pt x="490" y="466" on="0"/>
        <pt x="553" y="417" on="0"/>
        <pt x="592" y="317" on="0"/>
        <pt x="592" y="248" on="1"/>
        <pt x="592" y="122" on="0"/>
        <pt x="478" y="-10" on="0"/>
      </contour>
      <contour>
        <pt x="326" y="353" on="1"/>
        <pt x="260" y="353" on="0"/>
        <pt x="260" y="233" on="1"/>
        <pt x="260" y="191" on="0"/>
        <pt x="289" y="127" on="0"/>
        <pt x="347" y="127" on="0"/>
        <pt x="362" y="148" on="1"/>
        <pt x="385" y="180" on="0"/>
        <pt x="385" y="233" on="1"/>
        <pt x="385" y="353" on="0"/>
      </contour>
    </TTGlyph>
    <TTGlyph name="paragraph" xMin="10" yMin="0" xMax="456" yMax="606">
      <contour>
        <pt x="268" y="606" on="1"/>
        <pt x="268" y="0" on="1"/>
        <pt x="201" y="0" on="1"/>
        <pt x="171" y="303" on="1"/>
        <pt x="97" y="305" on="0"/>
        <pt x="10" y="378" on="0"/>
        <pt x="10" y="527" on="0"/>
        <pt x="98" y="606" on="0"/>
        <pt x="180" y="606" on="1"/>
      </contour>
      <contour>
        <pt x="329" y="0" on="1"/>
        <pt x="329" y="606" on="1"/>
        <pt x="456" y="606" on="1"/>
        <pt x="396" y="0" on="1"/>
      </contour>
    </TTGlyph>
    <TTGlyph name="parenleft" xMin="10" yMin="-192" xMax="305" yMax="688">
      <contour>
        <pt x="170" y="356" on="0"/>
        <pt x="170" y="140" on="0"/>
        <pt x="235" y="-23" on="0"/>
        <pt x="305" y="-136" on="1"/>
        <pt x="210" y="-192" on="1"/>
        <pt x="125" y="-98" on="0"/>
        <pt x="10" y="136" on="0"/>
        <pt x="10" y="360" on="0"/>
        <pt x="125" y="594" on="0"/>
        <pt x="210" y="688" on="1"/>
        <pt x="305" y="632" on="1"/>
        <pt x="235" y="519" on="0"/>
      </contour>
    </TTGlyph>
    <TTGlyph name="parenright" xMin="10" yMin="-192" xMax="305" yMax="688">
      <contour>
        <pt x="145" y="140" on="0"/>
        <pt x="145" y="356" on="0"/>
        <pt x="80" y="519" on="0"/>
        <pt x="10" y="632" on="1"/>
        <pt x="105" y="688" on="1"/>
        <pt x="190" y="594" on="0"/>
        <pt x="305" y="360" on="0"/>
        <pt x="305" y="136" on="0"/>
        <pt x="190" y="-98" on="0"/>
        <pt x="105" y="-192" on="1"/>
        <pt x="10" y="-136" on="1"/>
        <pt x="80" y="-23" on="0"/>
      </contour>
    </TTGlyph>
    <TTGlyph name="percent" xMin="25" yMin="-10" xMax="862" yMax="620">
      <contour>
        <pt x="654" y="259" on="0"/>
        <pt x="654" y="79" on="0"/>
        <pt x="732" y="79" on="0"/>
        <pt x="732" y="259" on="0"/>
      </contour>
      <contour>
        <pt x="524" y="94" on="0"/>
        <pt x="524" y="244" on="0"/>
        <pt x="617" y="338" on="0"/>
        <pt x="769" y="338" on="0"/>
        <pt x="862" y="244" on="0"/>
        <pt x="862" y="94" on="0"/>
        <pt x="769" y="0" on="0"/>
        <pt x="617" y="0" on="0"/>
      </contour>
      <contour>
        <pt x="155" y="527" on="0"/>
        <pt x="155" y="347" on="0"/>
        <pt x="233" y="347" on="0"/>
        <pt x="233" y="527" on="0"/>
      </contour>
      <contour>
        <pt x="25" y="362" on="0"/>
        <pt x="25" y="512" on="0"/>
        <pt x="118" y="606" on="0"/>
        <pt x="270" y="606" on="0"/>
        <pt x="363" y="512" on="0"/>
        <pt x="363" y="362" on="0"/>
        <pt x="270" y="268" on="0"/>
        <pt x="118" y="268" on="0"/>
      </contour>
      <contour>
        <pt x="268" y="-10" on="1"/>
        <pt x="478" y="620" on="1"/>
        <pt x="621" y="620" on="1"/>
        <pt x="408" y="-10" on="1"/>
      </contour>
    </TTGlyph>
    <TTGlyph name="period" xMin="20" yMin="-10" xMax="172" yMax="134">
      <contour>
        <pt x="58" y="134" on="0"/>
        <pt x="134" y="134" on="0"/>
        <pt x="172" y="93" on="0"/>
        <pt x="172" y="31" on="0"/>
        <pt x="134" y="-10" on="0"/>
        <pt x="58" y="-10" on="0"/>
        <pt x="20" y="31" on="0"/>
        <pt x="20" y="93" on="0"/>
      </contour>
    </TTGlyph>
    <TTGlyph name="periodcentered" xMin="30" yMin="225" xMax="182" yMax="369">
      <contour>
        <pt x="68" y="369" on="0"/>
        <pt x="144" y="369" on="0"/>
        <pt x="182" y="328" on="0"/>
        <pt x="182" y="266" on="0"/>
        <pt x="144" y="225" on="0"/>
        <pt x="68" y="225" on="0"/>
        <pt x="30" y="266" on="0"/>
        <pt x="30" y="328" on="0"/>
      </contour>
    </TTGlyph>
    <TTGlyph name="plus" xMin="30" yMin="119" xMax="385" yMax="474">
      <contour>
        <pt x="30" y="247" on="1"/>
        <pt x="30" y="345" on="1"/>
        <pt x="153" y="345" on="1"/>
        <pt x="153" y="474" on="1"/>
        <pt x="261" y="474" on="1"/>
        <pt x="261" y="345" on="1"/>
        <pt x="385" y="345" on="1"/>
        <pt x="385" y="247" on="1"/>
        <pt x="261" y="247" on="1"/>
        <pt x="261" y="119" on="1"/>
        <pt x="153" y="119" on="1"/>
        <pt x="153" y="247" on="1"/>
      </contour>
    </TTGlyph>
    <TTGlyph name="plusminus" xMin="30" yMin="60" xMax="385" yMax="534">
      <contour>
        <pt x="30" y="318" on="1"/>
        <pt x="30" y="416" on="1"/>
        <pt x="155" y="416" on="1"/>
        <pt x="155" y="534" on="1"/>
        <pt x="259" y="534" on="1"/>
        <pt x="259" y="416" on="1"/>
        <pt x="385" y="416" on="1"/>
        <pt x="385" y="318" on="1"/>
        <pt x="259" y="318" on="1"/>
        <pt x="259" y="199" on="1"/>
        <pt x="155" y="199" on="1"/>
        <pt x="155" y="318" on="1"/>
      </contour>
      <contour>
        <pt x="30" y="60" on="1"/>
        <pt x="30" y="148" on="1"/>
        <pt x="385" y="148" on="1"/>
        <pt x="385" y="60" on="1"/>
      </contour>
    </TTGlyph>
    <TTGlyph name="q" xMin="25" yMin="-171" xMax="587" yMax="488">
      <contour>
        <pt x="361" y="418" on="1"/>
        <pt x="372" y="474" on="1"/>
        <pt x="587" y="474" on="1"/>
        <pt x="558" y="-171" on="1"/>
        <pt x="387" y="-171" on="1"/>
        <pt x="374" y="65" on="1"/>
        <pt x="342" y="17" on="0"/>
        <pt x="282" y="-2" on="1"/>
        <pt x="257" y="-10" on="0"/>
        <pt x="230" y="-10" on="1"/>
        <pt x="139" y="-10" on="0"/>
        <pt x="25" y="122" on="0"/>
        <pt x="25" y="248" on="1"/>
        <pt x="25" y="317" on="0"/>
        <pt x="64" y="417" on="0"/>
        <pt x="96" y="442" on="1"/>
        <pt x="155" y="488" on="0"/>
        <pt x="306" y="488" on="0"/>
      </contour>
      <contour>
        <pt x="291" y="353" on="1"/>
        <pt x="232" y="353" on="0"/>
        <pt x="232" y="233" on="1"/>
        <pt x="232" y="180" on="0"/>
        <pt x="270" y="127" on="0"/>
        <pt x="328" y="127" on="0"/>
        <pt x="357" y="191" on="0"/>
        <pt x="357" y="233" on="1"/>
        <pt x="357" y="353" on="0"/>
      </contour>
    </TTGlyph>
    <TTGlyph name="question" xMin="7" yMin="-10" xMax="419" yMax="624">
      <contour>
        <pt x="129" y="484" on="1"/>
        <pt x="84" y="484" on="0"/>
        <pt x="35" y="451" on="1"/>
        <pt x="7" y="561" on="1"/>
        <pt x="92" y="624" on="0"/>
        <pt x="210" y="624" on="1"/>
        <pt x="288" y="624" on="0"/>
        <pt x="342" y="588" on="1"/>
        <pt x="419" y="537" on="0"/>
        <pt x="419" y="461" on="1"/>
        <pt x="419" y="426" on="0"/>
        <pt x="402" y="386" on="1"/>
        <pt x="375" y="324" on="0"/>
        <pt x="304" y="277" on="1"/>
        <pt x="265" y="159" on="1"/>
        <pt x="243" y="173" on="0"/>
        <pt x="179" y="173" on="0"/>
        <pt x="147" y="159" on="1"/>
        <pt x="106" y="278" on="1"/>
        <pt x="148" y="314" on="0"/>
        <pt x="196" y="383" on="0"/>
        <pt x="198" y="400" on="1"/>
        <pt x="201" y="416" on="1"/>
        <pt x="200" y="454" on="0"/>
        <pt x="155" y="484" on="0"/>
      </contour>
      <contour>
        <pt x="170" y="134" on="0"/>
        <pt x="246" y="134" on="0"/>
        <pt x="284" y="93" on="0"/>
        <pt x="284" y="31" on="0"/>
        <pt x="246" y="-10" on="0"/>
        <pt x="170" y="-10" on="0"/>
        <pt x="132" y="31" on="0"/>
        <pt x="132" y="93" on="0"/>
      </contour>
    </TTGlyph>
    <TTGlyph name="questiondown" xMin="57" yMin="-146" xMax="469" yMax="488">
      <contour>
        <pt x="347" y="-6" on="1"/>
        <pt x="392" y="-6" on="0"/>
        <pt x="441" y="27" on="1"/>
        <pt x="469" y="-83" on="1"/>
        <pt x="384" y="-146" on="0"/>
        <pt x="266" y="-146" on="1"/>
        <pt x="188" y="-146" on="0"/>
        <pt x="134" y="-110" on="1"/>
        <pt x="57" y="-59" on="0"/>
        <pt x="57" y="17" on="1"/>
        <pt x="57" y="52" on="0"/>
        <pt x="74" y="92" on="1"/>
        <pt x="101" y="154" on="0"/>
        <pt x="172" y="201" on="1"/>
        <pt x="211" y="319" on="1"/>
        <pt x="233" y="305" on="0"/>
        <pt x="297" y="305" on="0"/>
        <pt x="329" y="319" on="1"/>
        <pt x="370" y="200" on="1"/>
        <pt x="328" y="164" on="0"/>
        <pt x="280" y="95" on="0"/>
        <pt x="278" y="78" on="1"/>
        <pt x="275" y="62" on="1"/>
        <pt x="276" y="24" on="0"/>
        <pt x="321" y="-6" on="0"/>
      </contour>
      <contour>
        <pt x="306" y="344" on="0"/>
        <pt x="230" y="344" on="0"/>
        <pt x="192" y="385" on="0"/>
        <pt x="192" y="447" on="0"/>
        <pt x="230" y="488" on="0"/>
        <pt x="306" y="488" on="0"/>
        <pt x="344" y="447" on="0"/>
        <pt x="344" y="385" on="0"/>
      </contour>
    </TTGlyph>
    <TTGlyph name="quotedbl" xMin="10" yMin="417" xMax="361" yMax="657">
      <contour>
        <pt x="10" y="585" on="1"/>
        <pt x="10" y="616" on="0"/>
        <pt x="48" y="657" on="0"/>
        <pt x="124" y="657" on="0"/>
        <pt x="162" y="616" on="0"/>
        <pt x="162" y="585" on="1"/>
        <pt x="159" y="562" on="1"/>
        <pt x="124" y="417" on="1"/>
        <pt x="48" y="417" on="1"/>
        <pt x="13" y="562" on="1"/>
        <pt x="10" y="574" on="0"/>
      </contour>
      <contour>
        <pt x="209" y="585" on="1"/>
        <pt x="209" y="616" on="0"/>
        <pt x="247" y="657" on="0"/>
        <pt x="323" y="657" on="0"/>
        <pt x="361" y="616" on="0"/>
        <pt x="361" y="585" on="1"/>
        <pt x="358" y="562" on="1"/>
        <pt x="323" y="417" on="1"/>
        <pt x="247" y="417" on="1"/>
        <pt x="212" y="562" on="1"/>
        <pt x="209" y="574" on="0"/>
      </contour>
    </TTGlyph>
    <TTGlyph name="quotedblbase" xMin="20" yMin="-75" xMax="344" yMax="131">
      <contour>
        <pt x="20" y="-75" on="1"/>
        <pt x="20" y="62" on="1"/>
        <pt x="20" y="88" on="0"/>
        <pt x="59" y="131" on="0"/>
        <pt x="132" y="131" on="0"/>
        <pt x="171" y="89" on="0"/>
        <pt x="171" y="36" on="0"/>
        <pt x="140" y="-9" on="1"/>
        <pt x="95" y="-75" on="1"/>
      </contour>
      <contour>
        <pt x="193" y="-75" on="1"/>
        <pt x="193" y="62" on="1"/>
        <pt x="193" y="88" on="0"/>
        <pt x="232" y="131" on="0"/>
        <pt x="305" y="131" on="0"/>
        <pt x="344" y="89" on="0"/>
        <pt x="344" y="36" on="0"/>
        <pt x="313" y="-9" on="1"/>
        <pt x="268" y="-75" on="1"/>
      </contour>
    </TTGlyph>
    <TTGlyph name="quotedblleft" xMin="20" yMin="443" xMax="341" yMax="649">
      <contour>
        <pt x="171" y="649" on="1"/>
        <pt x="171" y="512" on="1"/>
        <pt x="171" y="486" on="0"/>
        <pt x="132" y="443" on="0"/>
        <pt x="59" y="443" on="0"/>
        <pt x="20" y="485" on="0"/>
        <pt x="20" y="538" on="0"/>
        <pt x="51" y="583" on="1"/>
        <pt x="96" y="649" on="1"/>
      </contour>
      <contour>
        <pt x="341" y="649" on="1"/>
        <pt x="341" y="512" on="1"/>
        <pt x="341" y="486" on="0"/>
        <pt x="302" y="443" on="0"/>
        <pt x="229" y="443" on="0"/>
        <pt x="190" y="485" on="0"/>
        <pt x="190" y="538" on="0"/>
        <pt x="221" y="583" on="1"/>
        <pt x="266" y="649" on="1"/>
      </contour>
    </TTGlyph>
    <TTGlyph name="quotedblright" xMin="20" yMin="457" xMax="341" yMax="663">
      <contour>
        <pt x="20" y="457" on="1"/>
        <pt x="20" y="594" on="1"/>
        <pt x="20" y="620" on="0"/>
        <pt x="59" y="663" on="0"/>
        <pt x="132" y="663" on="0"/>
        <pt x="171" y="621" on="0"/>
        <pt x="171" y="568" on="0"/>
        <pt x="140" y="523" on="1"/>
        <pt x="95" y="457" on="1"/>
      </contour>
      <contour>
        <pt x="190" y="457" on="1"/>
        <pt x="190" y="594" on="1"/>
        <pt x="190" y="620" on="0"/>
        <pt x="229" y="663" on="0"/>
        <pt x="302" y="663" on="0"/>
        <pt x="341" y="621" on="0"/>
        <pt x="341" y="568" on="0"/>
        <pt x="310" y="523" on="1"/>
        <pt x="265" y="457" on="1"/>
      </contour>
    </TTGlyph>
    <TTGlyph name="quoteleft" xMin="20" yMin="443" xMax="171" yMax="649">
      <contour>
        <pt x="171" y="649" on="1"/>
        <pt x="171" y="512" on="1"/>
        <pt x="171" y="486" on="0"/>
        <pt x="132" y="443" on="0"/>
        <pt x="59" y="443" on="0"/>
        <pt x="20" y="485" on="0"/>
        <pt x="20" y="538" on="0"/>
        <pt x="51" y="583" on="1"/>
        <pt x="96" y="649" on="1"/>
      </contour>
    </TTGlyph>
    <TTGlyph name="quoteright" xMin="20" yMin="457" xMax="171" yMax="663">
      <contour>
        <pt x="20" y="457" on="1"/>
        <pt x="20" y="594" on="1"/>
        <pt x="20" y="620" on="0"/>
        <pt x="59" y="663" on="0"/>
        <pt x="132" y="663" on="0"/>
        <pt x="171" y="621" on="0"/>
        <pt x="171" y="568" on="0"/>
        <pt x="140" y="523" on="1"/>
        <pt x="95" y="457" on="1"/>
      </contour>
    </TTGlyph>
    <TTGlyph name="quotesinglbase" xMin="20" yMin="-85" xMax="160" yMax="106">
      <contour>
        <pt x="20" y="-85" on="1"/>
        <pt x="20" y="42" on="1"/>
        <pt x="20" y="67" on="0"/>
        <pt x="56" y="106" on="0"/>
        <pt x="124" y="106" on="0"/>
        <pt x="160" y="67" on="0"/>
        <pt x="160" y="18" on="0"/>
        <pt x="131" y="-24" on="1"/>
        <pt x="90" y="-85" on="1"/>
      </contour>
    </TTGlyph>
    <TTGlyph name="quotesingle" xMin="10" yMin="417" xMax="162" yMax="657">
      <contour>
        <pt x="10" y="585" on="1"/>
        <pt x="10" y="616" on="0"/>
        <pt x="48" y="657" on="0"/>
        <pt x="124" y="657" on="0"/>
        <pt x="162" y="616" on="0"/>
        <pt x="162" y="585" on="1"/>
        <pt x="159" y="562" on="1"/>
        <pt x="124" y="417" on="1"/>
        <pt x="48" y="417" on="1"/>
        <pt x="13" y="562" on="1"/>
        <pt x="10" y="574" on="0"/>
      </contour>
    </TTGlyph>
    <TTGlyph name="r" xMin="30" yMin="0" xMax="451" yMax="488">
      <contour>
        <pt x="252" y="409" on="1"/>
        <pt x="305" y="488" on="0"/>
        <pt x="383" y="488" on="1"/>
        <pt x="420" y="488" on="0"/>
        <pt x="451" y="470" on="1"/>
        <pt x="427" y="306" on="1"/>
        <pt x="387" y="334" on="0"/>
        <pt x="337" y="334" on="1"/>
        <pt x="289" y="334" on="0"/>
        <pt x="272" y="294" on="1"/>
        <pt x="262" y="269" on="0"/>
        <pt x="259" y="246" on="1"/>
        <pt x="240" y="0" on="1"/>
        <pt x="60" y="0" on="1"/>
        <pt x="30" y="474" on="1"/>
        <pt x="227" y="474" on="1"/>
      </contour>
    </TTGlyph>
    <TTGlyph name="rcaron" xMin="20" yMin="0" xMax="441" yMax="674">
      <contour>
        <pt x="242" y="409" on="1"/>
        <pt x="295" y="488" on="0"/>
        <pt x="373" y="488" on="1"/>
        <pt x="410" y="488" on="0"/>
        <pt x="441" y="470" on="1"/>
        <pt x="417" y="306" on="1"/>
        <pt x="377" y="334" on="0"/>
        <pt x="327" y="334" on="1"/>
        <pt x="279" y="334" on="0"/>
        <pt x="262" y="294" on="1"/>
        <pt x="252" y="269" on="0"/>
        <pt x="249" y="246" on="1"/>
        <pt x="230" y="0" on="1"/>
        <pt x="50" y="0" on="1"/>
        <pt x="20" y="474" on="1"/>
        <pt x="217" y="474" on="1"/>
      </contour>
      <contour>
        <pt x="241" y="519" on="1"/>
        <pt x="215" y="519" on="1"/>
        <pt x="182" y="519" on="0"/>
        <pt x="143" y="542" on="0"/>
        <pt x="127" y="568" on="1"/>
        <pt x="62" y="674" on="1"/>
        <pt x="166" y="674" on="1"/>
        <pt x="228" y="612" on="1"/>
        <pt x="290" y="674" on="1"/>
        <pt x="394" y="674" on="1"/>
        <pt x="329" y="568" on="1"/>
        <pt x="313" y="542" on="0"/>
        <pt x="274" y="519" on="0"/>
      </contour>
    </TTGlyph>
    <TTGlyph name="rcommaaccent" xMin="20" yMin="-236" xMax="441" yMax="488">
      <contour>
        <pt x="83" y="-236" on="1"/>
        <pt x="83" y="-109" on="1"/>
        <pt x="83" y="-84" on="0"/>
        <pt x="119" y="-45" on="0"/>
        <pt x="187" y="-45" on="0"/>
        <pt x="223" y="-84" on="0"/>
        <pt x="223" y="-133" on="0"/>
        <pt x="194" y="-175" on="1"/>
        <pt x="153" y="-236" on="1"/>
      </contour>
      <contour>
        <pt x="242" y="409" on="1"/>
        <pt x="295" y="488" on="0"/>
        <pt x="373" y="488" on="1"/>
        <pt x="410" y="488" on="0"/>
        <pt x="441" y="470" on="1"/>
        <pt x="417" y="306" on="1"/>
        <pt x="377" y="334" on="0"/>
        <pt x="327" y="334" on="1"/>
        <pt x="279" y="334" on="0"/>
        <pt x="262" y="294" on="1"/>
        <pt x="252" y="269" on="0"/>
        <pt x="249" y="246" on="1"/>
        <pt x="230" y="0" on="1"/>
        <pt x="50" y="0" on="1"/>
        <pt x="20" y="474" on="1"/>
        <pt x="217" y="474" on="1"/>
      </contour>
    </TTGlyph>
    <TTGlyph name="registered" xMin="15" yMin="128" xMax="570" yMax="646">
      <contour>
        <pt x="513" y="467" on="0"/>
        <pt x="399" y="591" on="0"/>
        <pt x="188" y="591" on="0"/>
        <pt x="73" y="467" on="0"/>
        <pt x="73" y="300" on="0"/>
        <pt x="184" y="182" on="0"/>
        <pt x="402" y="182" on="0"/>
        <pt x="513" y="299" on="0"/>
      </contour>
      <contour>
        <pt x="224" y="646" on="0"/>
        <pt x="362" y="646" on="0"/>
        <pt x="472" y="599" on="0"/>
        <pt x="504" y="562" on="1"/>
        <pt x="570" y="486" on="0"/>
        <pt x="570" y="394" on="1"/>
        <pt x="570" y="278" on="0"/>
        <pt x="431" y="128" on="0"/>
        <pt x="156" y="128" on="0"/>
        <pt x="15" y="278" on="0"/>
        <pt x="15" y="394" on="1"/>
        <pt x="15" y="485" on="0"/>
        <pt x="82" y="562" on="1"/>
        <pt x="114" y="599" on="0"/>
      </contour>
      <contour>
        <pt x="299" y="458" on="1"/>
        <pt x="280" y="458" on="1"/>
        <pt x="273" y="380" on="1"/>
        <pt x="296" y="380" on="1"/>
        <pt x="315" y="380" on="0"/>
        <pt x="339" y="405" on="0"/>
        <pt x="339" y="422" on="1"/>
        <pt x="339" y="458" on="0"/>
      </contour>
      <contour>
        <pt x="450" y="425" on="1"/>
        <pt x="450" y="399" on="0"/>
        <pt x="414" y="357" on="0"/>
        <pt x="392" y="346" on="0"/>
        <pt x="385" y="343" on="1"/>
        <pt x="433" y="244" on="1"/>
        <pt x="355" y="244" on="1"/>
        <pt x="268" y="331" on="1"/>
        <pt x="260" y="244" on="1"/>
        <pt x="173" y="244" on="1"/>
        <pt x="147" y="513" on="1"/>
        <pt x="346" y="513" on="1"/>
        <pt x="394" y="513" on="0"/>
        <pt x="450" y="470" on="0"/>
      </contour>
    </TTGlyph>
    <TTGlyph name="ring" xMin="50" yMin="519" xMax="260" yMax="686">
      <contour>
        <pt x="160" y="519" on="1"/>
        <pt x="150" y="519" on="1"/>
        <pt x="102" y="519" on="0"/>
        <pt x="50" y="556" on="0"/>
        <pt x="50" y="648" on="0"/>
        <pt x="99" y="686" on="0"/>
        <pt x="150" y="686" on="1"/>
        <pt x="160" y="686" on="1"/>
        <pt x="211" y="686" on="0"/>
        <pt x="260" y="648" on="0"/>
        <pt x="260" y="556" on="0"/>
        <pt x="208" y="519" on="0"/>
      </contour>
      <contour>
        <pt x="153" y="581" on="1"/>
        <pt x="157" y="581" on="1"/>
        <pt x="178" y="581" on="0"/>
        <pt x="190" y="593" on="0"/>
        <pt x="190" y="617" on="0"/>
        <pt x="175" y="626" on="0"/>
        <pt x="157" y="626" on="1"/>
        <pt x="153" y="626" on="1"/>
        <pt x="135" y="626" on="0"/>
        <pt x="120" y="617" on="0"/>
        <pt x="120" y="593" on="0"/>
        <pt x="125" y="588" on="1"/>
        <pt x="132" y="581" on="0"/>
      </contour>
    </TTGlyph>
    <TTGlyph name="s" xMin="25" yMin="-10" xMax="464" yMax="488">
      <contour>
        <pt x="464" y="150" on="1"/>
        <pt x="464" y="93" on="0"/>
        <pt x="388" y="17" on="0"/>
        <pt x="289" y="-10" on="0"/>
        <pt x="197" y="-10" on="0"/>
        <pt x="128" y="2" on="0"/>
        <pt x="104" y="10" on="1"/>
        <pt x="60" y="27" on="0"/>
        <pt x="34" y="42" on="1"/>
        <pt x="25" y="48" on="1"/>
        <pt x="69" y="139" on="1"/>
        <pt x="129" y="105" on="0"/>
        <pt x="211" y="105" on="0"/>
        <pt x="211" y="139" on="1"/>
        <pt x="211" y="156" on="0"/>
        <pt x="159" y="192" on="0"/>
        <pt x="98" y="224" on="0"/>
        <pt x="46" y="290" on="0"/>
        <pt x="46" y="333" on="1"/>
        <pt x="46" y="410" on="0"/>
        <pt x="162" y="488" on="0"/>
        <pt x="257" y="488" on="1"/>
        <pt x="305" y="488" on="0"/>
        <pt x="397" y="472" on="0"/>
        <pt x="420" y="464" on="1"/>
        <pt x="442" y="455" on="1"/>
        <pt x="417" y="354" on="1"/>
        <pt x="360" y="375" on="0"/>
        <pt x="280" y="375" on="0"/>
        <pt x="280" y="344" on="1"/>
        <pt x="280" y="329" on="0"/>
        <pt x="318" y="302" on="0"/>
        <pt x="372" y="276" on="0"/>
        <pt x="426" y="243" on="0"/>
        <pt x="464" y="186" on="0"/>
      </contour>
    </TTGlyph>
    <TTGlyph name="section" xMin="50" yMin="-10" xMax="657" yMax="620">
      <contour>
        <pt x="529" y="70" on="0"/>
        <pt x="388" y="-10" on="0"/>
        <pt x="235" y="-10" on="0"/>
        <pt x="110" y="27" on="0"/>
        <pt x="80" y="46" on="1"/>
        <pt x="50" y="64" on="1"/>
        <pt x="93" y="150" on="1"/>
        <pt x="165" y="115" on="0"/>
        <pt x="281" y="115" on="0"/>
        <pt x="281" y="152" on="1"/>
        <pt x="281" y="173" on="0"/>
        <pt x="234" y="210" on="0"/>
        <pt x="166" y="244" on="0"/>
        <pt x="98" y="289" on="0"/>
        <pt x="51" y="370" on="0"/>
        <pt x="51" y="460" on="0"/>
        <pt x="61" y="487" on="1"/>
        <pt x="550" y="148" on="1"/>
      </contour>
      <contour>
        <pt x="184" y="553" on="0"/>
        <pt x="318" y="620" on="0"/>
        <pt x="464" y="620" on="0"/>
        <pt x="573" y="590" on="0"/>
        <pt x="596" y="575" on="1"/>
        <pt x="620" y="560" on="1"/>
        <pt x="581" y="475" on="1"/>
        <pt x="530" y="497" on="0"/>
        <pt x="427" y="497" on="0"/>
        <pt x="427" y="458" on="1"/>
        <pt x="427" y="437" on="0"/>
        <pt x="474" y="403" on="0"/>
        <pt x="542" y="372" on="0"/>
        <pt x="610" y="331" on="0"/>
        <pt x="657" y="257" on="0"/>
        <pt x="657" y="173" on="0"/>
        <pt x="650" y="148" on="1"/>
        <pt x="161" y="487" on="1"/>
      </contour>
    </TTGlyph>
    <TTGlyph name="semicolon" xMin="19" yMin="-75" xMax="171" yMax="439">
      <contour>
        <pt x="57" y="439" on="0"/>
        <pt x="133" y="439" on="0"/>
        <pt x="171" y="398" on="0"/>
        <pt x="171" y="336" on="0"/>
        <pt x="133" y="295" on="0"/>
        <pt x="57" y="295" on="0"/>
        <pt x="19" y="336" on="0"/>
        <pt x="19" y="398" on="0"/>
      </contour>
      <contour>
        <pt x="20" y="-75" on="1"/>
        <pt x="20" y="62" on="1"/>
        <pt x="20" y="88" on="0"/>
        <pt x="59" y="131" on="0"/>
        <pt x="132" y="131" on="0"/>
        <pt x="171" y="89" on="0"/>
        <pt x="171" y="36" on="0"/>
        <pt x="140" y="-9" on="1"/>
        <pt x="95" y="-75" on="1"/>
      </contour>
    </TTGlyph>
    <TTGlyph name="seven" xMin="4" yMin="0" xMax="473" yMax="606">
      <contour>
        <pt x="473" y="606" on="1"/>
        <pt x="473" y="439" on="1"/>
        <pt x="251" y="0" on="1"/>
        <pt x="56" y="0" on="1"/>
        <pt x="200" y="441" on="1"/>
        <pt x="14" y="411" on="1"/>
        <pt x="4" y="606" on="1"/>
      </contour>
    </TTGlyph>
    <TTGlyph name="six" xMin="30" yMin="-10" xMax="617" yMax="620">
      <contour>
        <pt x="420" y="231" on="0"/>
        <pt x="384" y="264" on="0"/>
        <pt x="330" y="264" on="0"/>
        <pt x="283" y="240" on="0"/>
        <pt x="273" y="218" on="1"/>
        <pt x="273" y="192" on="0"/>
        <pt x="319" y="149" on="0"/>
        <pt x="382" y="149" on="0"/>
        <pt x="420" y="177" on="0"/>
      </contour>
      <contour>
        <pt x="525" y="451" on="1"/>
        <pt x="460" y="477" on="0"/>
        <pt x="339" y="477" on="0"/>
        <pt x="261" y="407" on="0"/>
        <pt x="261" y="355" on="1"/>
        <pt x="265" y="361" on="0"/>
        <pt x="281" y="379" on="0"/>
        <pt x="348" y="409" on="0"/>
        <pt x="390" y="409" on="1"/>
        <pt x="492" y="409" on="0"/>
        <pt x="617" y="301" on="0"/>
        <pt x="617" y="114" on="0"/>
        <pt x="470" y="-10" on="0"/>
        <pt x="205" y="-10" on="0"/>
        <pt x="30" y="145" on="0"/>
        <pt x="30" y="450" on="0"/>
        <pt x="208" y="620" on="0"/>
        <pt x="456" y="620" on="0"/>
        <pt x="564" y="557" on="1"/>
      </contour>
    </TTGlyph>
    <TTGlyph name="slash" xMin="0" yMin="-87" xMax="398" yMax="663">
      <contour>
        <pt x="0" y="-87" on="1"/>
        <pt x="251" y="663" on="1"/>
        <pt x="398" y="663" on="1"/>
        <pt x="144" y="-87" on="1"/>
      </contour>
    </TTGlyph>
    <TTGlyph name="sterling" xMin="20" yMin="0" xMax="512" yMax="488">
      <contour>
        <pt x="106" y="294" on="1"/>
        <pt x="106" y="389" on="0"/>
        <pt x="228" y="488" on="0"/>
        <pt x="329" y="488" on="1"/>
        <pt x="390" y="488" on="0"/>
        <pt x="423" y="478" on="1"/>
        <pt x="478" y="463" on="0"/>
        <pt x="502" y="451" on="1"/>
        <pt x="488" y="366" on="1"/>
        <pt x="452" y="377" on="0"/>
        <pt x="414" y="377" on="1"/>
        <pt x="324" y="377" on="0"/>
        <pt x="312" y="288" on="1"/>
        <pt x="423" y="288" on="1"/>
        <pt x="398" y="195" on="1"/>
        <pt x="302" y="195" on="1"/>
        <pt x="290" y="103" on="1"/>
        <pt x="512" y="132" on="1"/>
        <pt x="491" y="0" on="1"/>
        <pt x="31" y="0" on="1"/>
        <pt x="31" y="70" on="1"/>
        <pt x="130" y="83" on="1"/>
        <pt x="116" y="195" on="1"/>
        <pt x="20" y="195" on="1"/>
        <pt x="45" y="288" on="1"/>
        <pt x="106" y="288" on="1"/>
        <pt x="106" y="291" on="0"/>
      </contour>
    </TTGlyph>
    <TTGlyph name="t" xMin="10" yMin="-10" xMax="386" yMax="620">
      <contour>
        <pt x="295" y="178" on="1"/>
        <pt x="294" y="120" on="0"/>
        <pt x="336" y="120" on="1"/>
        <pt x="348" y="120" on="0"/>
        <pt x="365" y="131" on="1"/>
        <pt x="386" y="34" on="1"/>
        <pt x="380" y="29" on="0"/>
        <pt x="359" y="14" on="0"/>
        <pt x="290" y="-10" on="0"/>
        <pt x="253" y="-10" on="1"/>
        <pt x="185" y="-10" on="0"/>
        <pt x="99" y="83" on="0"/>
        <pt x="96" y="155" on="1"/>
        <pt x="87" y="344" on="1"/>
        <pt x="10" y="344" on="1"/>
        <pt x="22" y="474" on="1"/>
        <pt x="82" y="474" on="1"/>
        <pt x="78" y="572" on="1"/>
        <pt x="315" y="620" on="1"/>
        <pt x="308" y="474" on="1"/>
        <pt x="366" y="474" on="1"/>
        <pt x="378" y="344" on="1"/>
        <pt x="302" y="344" on="1"/>
      </contour>
    </TTGlyph>
    <TTGlyph name="thorn" xMin="30" yMin="-171" xMax="573" yMax="649">
      <contour>
        <pt x="272" y="456" on="0"/>
        <pt x="335" y="488" on="0"/>
        <pt x="406" y="488" on="0"/>
        <pt x="471" y="466" on="0"/>
        <pt x="534" y="417" on="0"/>
        <pt x="573" y="317" on="0"/>
        <pt x="573" y="248" on="1"/>
        <pt x="573" y="122" on="0"/>
        <pt x="459" y="-10" on="0"/>
        <pt x="276" y="-10" on="0"/>
        <pt x="224" y="55" on="1"/>
        <pt x="211" y="-171" on="1"/>
        <pt x="40" y="-171" on="1"/>
        <pt x="30" y="649" on="1"/>
        <pt x="258" y="649" on="1"/>
        <pt x="250" y="430" on="1"/>
        <pt x="254" y="436" on="0"/>
      </contour>
      <contour>
        <pt x="307" y="354" on="1"/>
        <pt x="241" y="354" on="0"/>
        <pt x="241" y="234" on="1"/>
        <pt x="241" y="193" on="0"/>
        <pt x="272" y="128" on="0"/>
        <pt x="330" y="128" on="0"/>
        <pt x="360" y="172" on="0"/>
        <pt x="366" y="212" on="0"/>
        <pt x="366" y="234" on="1"/>
        <pt x="366" y="354" on="0"/>
      </contour>
    </TTGlyph>
</ttFont>
